<svg xmlns="http://www.w3.org/2000/svg" width="26.303" height="17.247" viewBox="0 0 26.303 17.247"><defs><style>.a{fill:none;stroke:#fff;stroke-miterlimit:10;}</style></defs><g transform="translate(-983.024 0.173)"><g transform="translate(983.524)"><path class="a" d="M295.353,572.79l-3.648,6.074H275.671v-1.243a4.5,4.5,0,0,1,4.5-4.5h6.167" transform="translate(-275.671 -565.69)"/><line class="a" x2="4.142" y2="11.241" transform="translate(17.118)"/><path class="a" d="M319.547,550.01h7.929a1.5,1.5,0,0,1,1.5,1.5h0a1.5,1.5,0,0,1-1.5,1.5h-2.268" transform="translate(-306.536 -549.665)"/><path class="a" d="M287.5,570.519l-2.2-7.609a2.434,2.434,0,0,0-2.339-1.759h-7.1" transform="translate(-275.801 -557.502)"/><circle class="a" cx="2.909" cy="2.909" r="2.909" transform="translate(19.485 10.748)"/><path class="a" d="M288.04,594.6a2.909,2.909,0,1,1-5.8-.439" transform="translate(-280.285 -580.724)"/></g></g></svg>