<svg xmlns="http://www.w3.org/2000/svg" width="30" height="30" viewBox="0 0 30 30"><defs><style>.a{fill:#fff;stroke:#0a83ea;stroke-width:1.25px;}.b{fill:#0a83ea;}.c{stroke:none;}.d{fill:none;}</style></defs><g transform="translate(-662 -364)"><g class="a" transform="translate(662 364)"><circle class="c" cx="15" cy="15" r="15"/><circle class="d" cx="15" cy="15" r="14.375"/></g><g transform="translate(671.5 371.297)"><path class="b" d="M15.473,8.971a2.119,2.119,0,1,0,2.119,2.119A2.119,2.119,0,0,0,15.473,8.971Zm0,3.178a1.059,1.059,0,1,1,1.059-1.059A1.059,1.059,0,0,1,15.473,12.149Z" transform="translate(-9.716 -5.33)"/><path class="b" d="M15.455,2.923A5.757,5.757,0,0,0,6.56,10.137l4,6.144a.981.981,0,0,0,1.643,0l4-6.144a5.757,5.757,0,0,0-.753-7.214ZM15.32,9.558,11.383,15.6,7.447,9.558a4.7,4.7,0,1,1,7.873,0Z" transform="translate(-5.627 -1.238)"/></g></g></svg>