<svg xmlns="http://www.w3.org/2000/svg" width="138.378" height="40" viewBox="0 0 138.378 40"><defs><style>.a{fill:#333;}.b{fill:#fff;}</style></defs><g transform="translate(-122.696 -68.064)"><rect class="a" width="138.378" height="40" rx="4" transform="translate(122.696 68.064)"/><g transform="translate(140.581 74.358)"><path class="b" d="M137.72,74.463l-.529,1.735H136.04L138,70.074h1.426l1.989,6.124h-1.2l-.553-1.735Zm1.753-.845-.48-1.509c-.118-.372-.219-.789-.31-1.144h-.017c-.09.355-.184.782-.292,1.144l-.473,1.509Z" transform="translate(-107.521 -69.379)"/><path class="b" d="M138.926,70.563l.72,2.243c.125.389.216.744.3,1.109h.028c.08-.365.181-.709.3-1.109l.709-2.243h1.172l-1.69,4.423h-1.1l-1.645-4.423Z" transform="translate(-103.361 -68.167)"/><path class="b" d="M142.942,73.994a5.891,5.891,0,0,0,.073,1.064h-1.008l-.083-.49H141.9a1.623,1.623,0,0,1-1.311.591,1.312,1.312,0,0,1-1.388-1.318c0-1.109.991-1.683,2.626-1.673V72.1c0-.289-.118-.772-.9-.772a2.337,2.337,0,0,0-1.189.327l-.219-.727a3.208,3.208,0,0,1,1.6-.39,1.657,1.657,0,0,1,1.826,1.871Zm-1.088-1.1c-.793-.01-1.547.153-1.547.828a.588.588,0,0,0,.636.636.923.923,0,0,0,.883-.609.75.75,0,0,0,.028-.247Z" transform="translate(-99.692 -68.239)"/><path class="b" d="M141.331,71.242a.63.63,0,1,1,.007,0Zm-.556,5.06V71.879h1.116V76.3Z" transform="translate(-95.946 -69.483)"/><path class="b" d="M141.514,69.977h1.116v6.461h-1.116Z" transform="translate(-93.959 -69.619)"/><path class="b" d="M145.953,73.994a5.891,5.891,0,0,0,.073,1.064h-1.008l-.08-.49h-.028a1.621,1.621,0,0,1-1.308.591,1.315,1.315,0,0,1-1.391-1.318c0-1.109.991-1.683,2.625-1.673V72.1c0-.289-.118-.772-.9-.772a2.337,2.337,0,0,0-1.189.327l-.219-.727a3.208,3.208,0,0,1,1.6-.39,1.655,1.655,0,0,1,1.826,1.871Zm-1.088-1.1c-.793-.01-1.544.153-1.544.828a.587.587,0,0,0,.633.636.92.92,0,0,0,.883-.609.749.749,0,0,0,.028-.247Z" transform="translate(-92.232 -68.239)"/><path class="b" d="M143.766,69.977h1.12v2.646h.017a1.6,1.6,0,0,1,1.415-.709c1.081,0,1.853.9,1.847,2.243a2.121,2.121,0,0,1-2.01,2.382,1.525,1.525,0,0,1-1.4-.765h-.017l-.056.664h-.953c.017-.3.035-.789.035-1.234Zm1.12,4.635a1.053,1.053,0,0,0,.028.261,1.019,1.019,0,0,0,.988.782c.7,0,1.127-.553,1.127-1.454,0-.782-.372-1.415-1.116-1.415a1.038,1.038,0,0,0-.991.817,1.364,1.364,0,0,0-.035.289Z" transform="translate(-88.466 -69.619)"/><path class="b" d="M145.384,69.977H146.5v6.461h-1.116Z" transform="translate(-84.371 -69.619)"/><path class="b" d="M147.16,73.16a1.2,1.2,0,0,0,1.363,1.144,3.558,3.558,0,0,0,1.228-.2l.163.765a3.974,3.974,0,0,1-1.544.282,2.093,2.093,0,0,1-2.281-2.236,2.19,2.19,0,0,1,2.163-2.379,1.924,1.924,0,0,1,1.906,2.153,2.889,2.889,0,0,1-.035.473Zm1.944-.782a.95.95,0,0,0-.915-1.082,1.1,1.1,0,0,0-1.029,1.082Z" transform="translate(-82.624 -68.239)"/><path class="b" d="M150.426,75.159a2.141,2.141,0,0,1-2.219-2.281,2.183,2.183,0,0,1,2.288-2.344,2.123,2.123,0,0,1,2.2,2.271,2.192,2.192,0,0,1-2.264,2.354Zm.035-.81c.636,0,1.082-.619,1.082-1.516,0-.692-.31-1.492-1.071-1.492-.793,0-1.109.772-1.109,1.509,0,.855.428,1.5,1.089,1.5Z" transform="translate(-77.377 -68.239)"/><path class="b" d="M149.9,71.949c0-.508-.017-.935-.038-1.314h.974l.056.661h.024a1.629,1.629,0,0,1,1.419-.762c.772,0,1.572.5,1.572,1.9v2.625h-1.116v-2.5c0-.633-.236-1.116-.845-1.116a.942.942,0,0,0-.873.654.986.986,0,0,0-.056.355v2.608H149.9Z" transform="translate(-73.269 -68.239)"/><path class="b" d="M153.737,70.236v1.137H154.8v.835h-1.064v1.944c0,.546.146.817.574.817a1.5,1.5,0,0,0,.435-.045l.021.845a2.5,2.5,0,0,1-.81.118,1.272,1.272,0,0,1-.963-.365,1.743,1.743,0,0,1-.355-1.241V72.208h-.626v-.835h.626v-.828Z" transform="translate(-67.95 -68.977)"/><path class="b" d="M153.172,69.977h1.116v2.636h.017a1.487,1.487,0,0,1,.556-.5,1.592,1.592,0,0,1,.772-.2c.751,0,1.544.5,1.544,1.916v2.608h-1.12v-2.49c0-.636-.236-1.127-.852-1.127a.935.935,0,0,0-.873.626,1.057,1.057,0,0,0-.045.337v2.653h-1.116Z" transform="translate(-65.076 -69.619)"/><path class="b" d="M155.773,73.16a1.2,1.2,0,0,0,1.36,1.144,3.559,3.559,0,0,0,1.228-.2l.163.765a3.961,3.961,0,0,1-1.544.282,2.093,2.093,0,0,1-2.281-2.236,2.192,2.192,0,0,1,2.163-2.379,1.924,1.924,0,0,1,1.909,2.153,2.807,2.807,0,0,1-.038.473Zm1.944-.782A.955.955,0,0,0,156.8,71.3a1.093,1.093,0,0,0-1.026,1.082Z" transform="translate(-61.293 -68.239)"/><path class="b" d="M144.138,78.51a5.439,5.439,0,0,1,2.6-4.573,5.569,5.569,0,0,0-4.4-2.379c-1.85-.195-3.644,1.109-4.583,1.109-.96,0-2.413-1.088-3.975-1.057a5.851,5.851,0,0,0-4.928,3c-2.132,3.686-.543,9.108,1.5,12.091,1.022,1.461,2.215,3.091,3.777,3.032,1.527-.063,2.1-.974,3.94-.974s2.365.974,3.957.935c1.641-.024,2.671-1.464,3.658-2.938a12.122,12.122,0,0,0,1.673-3.408,5.264,5.264,0,0,1-3.217-4.844" transform="translate(-127.839 -65.751)"/><path class="b" d="M134.222,73.72a5.373,5.373,0,0,0,1.228-3.846,5.462,5.462,0,0,0-3.533,1.829,5.112,5.112,0,0,0-1.262,3.7,4.524,4.524,0,0,0,3.568-1.687" transform="translate(-120.931 -69.874)"/><g transform="translate(27.852 11.083)"><path class="b" d="M146.378,85.592H144.25l-1.165-3.669h-4.051l-1.113,3.669h-2.073l4.016-12.477h2.479Zm-3.644-5.206-1.054-3.255q-.172-.5-.629-2.351h-.038q-.188.8-.595,2.351l-1.036,3.255Z" transform="translate(-135.848 -72.927)"/><path class="b" d="M148.015,78.635a5.105,5.105,0,0,1-1.238,3.627,3.621,3.621,0,0,1-2.758,1.186,2.764,2.764,0,0,1-2.556-1.276h-.035v4.736h-2v-9.7q0-1.44-.073-2.959h1.756l.111,1.426h.038a3.551,3.551,0,0,1,5.689-.355,4.964,4.964,0,0,1,1.064,3.314m-2.034.073a3.729,3.729,0,0,0-.591-2.166,2.121,2.121,0,0,0-3.081-.4,2.293,2.293,0,0,0-.789,1.287,2.568,2.568,0,0,0-.09.609v1.5a2.4,2.4,0,0,0,.6,1.655,2,2,0,0,0,1.565.675,2.041,2.041,0,0,0,1.76-.869,3.817,3.817,0,0,0,.629-2.3" transform="translate(-127.157 -70.581)"/><path class="b" d="M150.99,78.635a5.105,5.105,0,0,1-1.238,3.627,3.616,3.616,0,0,1-2.758,1.186,2.758,2.758,0,0,1-2.552-1.276H144.4v4.736h-2v-9.7q0-1.44-.073-2.959h1.756l.115,1.426h.038a3.551,3.551,0,0,1,5.689-.355,4.963,4.963,0,0,1,1.061,3.314m-2.034.073a3.7,3.7,0,0,0-.591-2.166,2.121,2.121,0,0,0-3.081-.4,2.269,2.269,0,0,0-.786,1.287,2.6,2.6,0,0,0-.094.609v1.5a2.385,2.385,0,0,0,.6,1.655,1.988,1.988,0,0,0,1.565.675A2.039,2.039,0,0,0,148.326,81a3.841,3.841,0,0,0,.629-2.3" transform="translate(-119.787 -70.581)"/><path class="b" d="M153.663,82.224a3.315,3.315,0,0,1-1.109,2.594,4.909,4.909,0,0,1-3.394,1.088,5.973,5.973,0,0,1-3.238-.775l.466-1.666a5.461,5.461,0,0,0,2.89.8,2.746,2.746,0,0,0,1.76-.508,1.675,1.675,0,0,0,.629-1.363,1.741,1.741,0,0,0-.518-1.28,4.834,4.834,0,0,0-1.725-.967q-3.276-1.221-3.276-3.578a3.16,3.16,0,0,1,1.148-2.518,4.53,4.53,0,0,1,3.057-.988,6.073,6.073,0,0,1,2.831.595l-.5,1.627a4.951,4.951,0,0,0-2.389-.57,2.4,2.4,0,0,0-1.645.518,1.483,1.483,0,0,0-.5,1.127,1.519,1.519,0,0,0,.57,1.221,6.391,6.391,0,0,0,1.815.963,6.164,6.164,0,0,1,2.368,1.52,3.164,3.164,0,0,1,.758,2.163" transform="translate(-110.89 -73.061)"/><path class="b" d="M153.953,77.213h-2.2V81.58q0,1.664,1.168,1.666a3.531,3.531,0,0,0,.887-.094l.056,1.52a4.568,4.568,0,0,1-1.554.219,2.392,2.392,0,0,1-1.85-.72,3.532,3.532,0,0,1-.668-2.424V77.213h-1.314v-1.5h1.314V74.066l1.961-.595v2.24h2.2Z" transform="translate(-104.57 -72.045)"/><path class="b" d="M159.185,78.673a4.932,4.932,0,0,1-1.182,3.4,4.239,4.239,0,0,1-3.3,1.37,4.028,4.028,0,0,1-3.158-1.314,4.791,4.791,0,0,1-1.175-3.311,4.877,4.877,0,0,1,1.214-3.425,4.189,4.189,0,0,1,3.265-1.335,4.113,4.113,0,0,1,3.185,1.315,4.753,4.753,0,0,1,1.148,3.3m-2.073.063a4.044,4.044,0,0,0-.539-2.132,1.968,1.968,0,0,0-1.794-1.078,2,2,0,0,0-1.833,1.078,4.115,4.115,0,0,0-.536,2.17,4.055,4.055,0,0,0,.536,2.135,2.017,2.017,0,0,0,1.815,1.075,1.992,1.992,0,0,0,1.794-1.092,4.077,4.077,0,0,0,.556-2.156" transform="translate(-99.863 -70.581)"/><path class="b" d="M158.2,76.006a3.62,3.62,0,0,0-.629-.056,1.9,1.9,0,0,0-1.631.8,3.02,3.02,0,0,0-.5,1.777v4.719h-2l.017-6.162q0-1.554-.073-2.831h1.742l.073,1.721h.052a3.1,3.1,0,0,1,1-1.426,2.427,2.427,0,0,1,1.447-.483,3.077,3.077,0,0,1,.5.038Z" transform="translate(-92.386 -70.581)"/><path class="b" d="M163.041,78.331a4.789,4.789,0,0,1-.07.908h-6a2.612,2.612,0,0,0,.866,2.038,2.968,2.968,0,0,0,1.965.629,6.62,6.62,0,0,0,2.424-.428l.313,1.391a7.556,7.556,0,0,1-3.018.556,4.36,4.36,0,0,1-3.283-1.234,4.539,4.539,0,0,1-1.2-3.3,5.159,5.159,0,0,1,1.113-3.387,3.825,3.825,0,0,1,3.144-1.443,3.358,3.358,0,0,1,2.949,1.443,4.882,4.882,0,0,1,.789,2.831m-1.906-.518a2.7,2.7,0,0,0-.386-1.534,1.75,1.75,0,0,0-1.593-.835,1.9,1.9,0,0,0-1.593.817,2.936,2.936,0,0,0-.588,1.551Z" transform="translate(-88.285 -70.593)"/></g></g></g></svg>