<svg xmlns="http://www.w3.org/2000/svg" width="48.24" height="22.406" viewBox="0 0 48.24 22.406"><defs><style>.a{fill:#283350;}.b{fill:#ffd45b;}</style></defs><g transform="translate(9935.135 5219.5)"><g transform="translate(-10149.366 -5237.542)"><path class="a" d="M236.206,40.621a.843.843,0,0,0,.491-.307c.061-.123.153-.276.123-.368-.031-.184-.061-.429-.276-.521a2.082,2.082,0,0,0-.367-.184c-.184.123-.4.123-.521.337-.061.123-.184.276-.153.4a.753.753,0,0,0,.337.521C235.961,40.56,236.115,40.652,236.206,40.621ZM238.077,25.9a.314.314,0,0,0,.306-.337.362.362,0,0,0-.337-.337.34.34,0,0,0-.337.337V25.6A.364.364,0,0,0,238.077,25.9Zm0,15.115a.78.78,0,0,0-.705.644s0,.011,0,.016h1.34A.815.815,0,0,0,238.077,41.019Zm-1.9,0h-.061a.629.629,0,0,0-.612.66h1.347v-.047A.649.649,0,0,0,236.176,41.019Zm.03-7.757a.506.506,0,1,0-.521-.491A.492.492,0,0,0,236.206,33.263Zm0,5.488c.4,0,.583-.214.583-.613s-.215-.583-.613-.583-.583.215-.583.613S235.808,38.75,236.206,38.75Zm.031-1.87a.623.623,0,0,0,.552-.582.684.684,0,0,0-.613-.583.6.6,0,0,0-.552.583A.63.63,0,0,0,236.237,36.88Zm-.092-1.839h.092a.478.478,0,0,0,.46-.491c-.031-.4-.153-.521-.521-.551h-.093a.476.476,0,0,0-.4.521C235.685,34.887,235.839,35.01,236.145,35.041Zm1.871-1.778a.506.506,0,0,0,.031-1.011.531.531,0,0,0-.521.49A.511.511,0,0,0,238.015,33.263Zm0,1.778h.061a.479.479,0,0,0,.459-.491v-.061a.478.478,0,0,0-.49-.459h-.061a.478.478,0,0,0-.46.49v.061A.479.479,0,0,0,238.015,35.041Zm.061,1.87a.684.684,0,0,0,.551-.643.623.623,0,0,0-.582-.552.685.685,0,0,0-.583.613A.657.657,0,0,0,238.077,36.911Zm-.031-12.754c.123,0,.367-.276.337-.368a.717.717,0,0,0-.367-.306.558.558,0,0,0-.307.337.918.918,0,0,0,.123.245A.278.278,0,0,0,238.046,24.157Zm0,14.594a.6.6,0,0,0,.031-1.2.572.572,0,0,0-.613.583V38.2A.576.576,0,0,0,238.046,38.75Zm.031-7.358c.306,0,.4-.123.4-.46,0-.276-.123-.368-.459-.368-.276,0-.4.123-.4.429S237.739,31.393,238.077,31.393Zm-.061-3.71c.337,0,.367-.031.367-.337s-.031-.337-.306-.337c-.337,0-.368.031-.368.307C237.709,27.622,237.739,27.683,238.015,27.683Zm0,1.931a.414.414,0,1,0-.4-.429A.46.46,0,0,0,238.015,29.614Zm-1.81-1.809c.153,0,.429-.307.429-.429,0-.153-.307-.429-.429-.429-.153,0-.429.307-.429.429S236.053,27.775,236.206,27.806ZM234,29.216c0,.307.122.429.4.4.307,0,.429-.092.429-.4s-.092-.429-.429-.429C234.121,28.786,234,28.909,234,29.216Zm.429,2.269c.184,0,.521-.368.491-.521a.717.717,0,0,0-.491-.491.744.744,0,0,0-.521.521C233.907,31.178,234.274,31.515,234.428,31.485Zm-.031,1.747h.061a.437.437,0,0,0,.429-.491V32.68a.436.436,0,0,0-.491-.429h-.061a.436.436,0,0,0-.429.49V32.8A.436.436,0,0,0,234.4,33.232Zm0-5.457c.153,0,.429-.307.429-.429s-.276-.429-.429-.429-.429.307-.429.429C233.968,27.5,234.274,27.775,234.4,27.775Zm.031-1.84a.315.315,0,0,0,.337-.306V25.6a.337.337,0,0,0-.675,0A.36.36,0,0,0,234.428,25.935Zm0-1.778a.363.363,0,0,0,.337-.337v-.031a.364.364,0,0,0-.368-.306.336.336,0,0,0-.307.337A.34.34,0,0,0,234.428,24.157Zm0,10.946c.153-.061.337-.061.429-.215.061-.123.092-.276.153-.4-.123-.091-.061-.275-.184-.4s-.307-.061-.4-.184c-.123.123-.337.031-.429.215-.061.153-.123.276-.184.4.123.123.061.337.214.429C234.152,35.01,234.336,35.133,234.428,35.1Zm1.717-10.946h.031a.337.337,0,0,0,0-.674.362.362,0,0,0-.337.337A.315.315,0,0,0,236.145,24.157Zm1.9,16.373c.429,0,.582-.184.582-.613s-.184-.583-.613-.583c-.4,0-.552.184-.583.613C237.433,40.376,237.617,40.529,238.046,40.529Zm-1.84-9.045a.958.958,0,0,0,.491-.491c.031-.153-.307-.521-.491-.521a.745.745,0,0,0-.521.521C235.685,31.147,236.023,31.515,236.206,31.485Zm-.03-1.839h.061a.435.435,0,0,0,.368-.46v-.031a.388.388,0,0,0-.429-.368.434.434,0,0,0-.4.429A.413.413,0,0,0,236.176,29.645Zm0-3.71a.34.34,0,0,0,.337-.337v-.031a.364.364,0,0,0-.368-.307.315.315,0,0,0-.306.337A.39.39,0,0,0,236.176,25.935Zm-2.33,12.479c.092.123.153.275.337.275.245,0,.491.092.675-.122a.373.373,0,0,0,.153-.368c-.031-.153.061-.307-.092-.46a.5.5,0,0,0-.491-.215c-.153.031-.307,0-.46.153a.535.535,0,0,0-.153.46C233.815,38.26,233.784,38.414,233.846,38.414Zm.613,2.606h-.092a.647.647,0,0,0-.611.66H235.1v-.016A.629.629,0,0,0,234.458,41.019ZM234.4,36.88a.508.508,0,0,0,.368-.153c.123-.123.276-.183.245-.4,0-.153,0-.307-.153-.4s-.215-.215-.429-.215a.635.635,0,0,0-.613.613.359.359,0,0,0,.153.337C234.09,36.788,234.182,36.911,234.4,36.88Zm5.427-3.618a.958.958,0,0,0,.491-.491c.031-.153-.307-.49-.491-.521-.153-.031-.521.306-.521.49A.745.745,0,0,0,239.824,33.263Zm1.747,7.757c-.092.123-.276.061-.429.184a3.165,3.165,0,0,0-.239.476h1.342a1,1,0,0,0-.152-.354C241.97,41.142,241.756,41.142,241.572,41.019ZM243.35,25.9a.34.34,0,0,0,.337-.337v-.031a.344.344,0,0,0-.368-.307.364.364,0,0,0-.307.368C243.043,25.782,243.2,25.935,243.35,25.9Zm0,1.81a.34.34,0,0,0,.337-.337v-.031a.364.364,0,0,0-.368-.307.315.315,0,0,0-.307.337A.391.391,0,0,0,243.35,27.714Zm0-3.557c.092,0,.337-.276.337-.368a.718.718,0,0,0-.368-.306.666.666,0,0,0-.307.337c.031.092.092.153.123.245A.278.278,0,0,0,243.35,24.157ZM241.572,40.5a.583.583,0,1,0-.583-.583A.507.507,0,0,0,241.572,40.5Zm0-1.748a.681.681,0,0,0,.583-.551.659.659,0,0,0-.552-.644.6.6,0,1,0-.031,1.2Zm.031-3.74a.484.484,0,0,0,.491-.491.5.5,0,0,0-.491-.49.511.511,0,0,0-.521.49A.492.492,0,0,0,241.6,35.01Zm0,1.809c.368,0,.491-.123.491-.521,0-.337-.153-.491-.521-.491-.337,0-.491.123-.491.491C241.081,36.7,241.2,36.819,241.6,36.819Zm1.778-.031h.061a.481.481,0,0,0,.429-.521v-.061a.481.481,0,0,0-.521-.429h-.061a.481.481,0,0,0-.429.521v.061A.481.481,0,0,0,243.381,36.788Zm-.031-7.143c.123,0,.429-.276.429-.429,0-.123-.276-.429-.429-.429-.123,0-.429.276-.429.429C242.921,29.338,243.2,29.614,243.35,29.645Zm0,10.854c.184.092.276-.031.337-.153a.644.644,0,0,0,.215-.429.5.5,0,0,0-.184-.4c-.092-.123-.184-.245-.368-.215a.4.4,0,0,0-.4.153c-.092.153-.215.215-.215.429a.5.5,0,0,0,.184.4C243.043,40.407,243.135,40.56,243.35,40.5Zm-1.778-7.236a.745.745,0,0,0,.521-.521.954.954,0,0,0-.491-.49c-.153-.031-.491.306-.521.49C241.05,32.895,241.388,33.263,241.572,33.263Zm1.809,5.457a.583.583,0,0,0-.031-1.165.685.685,0,0,0-.583.613A.627.627,0,0,0,243.381,38.72Zm0-7.327h.031a.388.388,0,0,0,.368-.429.434.434,0,0,0-.429-.4.413.413,0,0,0-.429.4v.061A.435.435,0,0,0,243.381,31.393Zm-.031,1.747c.307,0,.429-.092.429-.429,0-.276-.123-.4-.429-.4s-.429.123-.429.429S243.043,33.171,243.35,33.14ZM239.824,25.9h.031a.363.363,0,0,0,.307-.367.336.336,0,0,0-.337-.307.34.34,0,0,0-.337.337A.321.321,0,0,0,239.824,25.9Zm3.526,9.137h.031a.484.484,0,0,0,.491-.491v-.031a.484.484,0,0,0-.491-.49.506.506,0,1,0-.031,1.011Zm-3.556-4.507c-.307.031-.4.153-.4.46,0,.276.123.4.429.4s.4-.123.429-.429C240.254,30.626,240.131,30.534,239.794,30.534Zm0,6.377c.153-.123.368-.061.46-.215.061-.123.183-.306.153-.4-.061-.153-.061-.337-.214-.429-.123-.061-.276-.092-.4-.153-.092.123-.276.031-.4.184-.123.123-.061.307-.184.4.092.123.061.306.184.429C239.548,36.85,239.7,36.758,239.794,36.911Zm1.809-5.488c.307,0,.429-.123.429-.4,0-.337-.123-.46-.429-.46s-.429.092-.429.4S241.265,31.393,241.6,31.423Zm-8.493,8.033a.776.776,0,0,0-.46-.184.724.724,0,0,0-.491.215,1.043,1.043,0,0,0-.215.46,1.063,1.063,0,0,0,.245.491c.123.092.307.245.491.184a.806.806,0,0,0,.46-.215c.092-.123.245-.307.184-.491C233.294,39.732,233.232,39.517,233.11,39.456Zm6.715-15.3c.092,0,.337-.276.337-.368a.718.718,0,0,0-.368-.306c-.092,0-.337.245-.307.337a.616.616,0,0,0,.123.245A.278.278,0,0,0,239.824,24.157Zm-.031,3.557c.307,0,.368-.031.368-.307,0-.337-.031-.368-.337-.368s-.337.031-.337.307C239.487,27.652,239.487,27.683,239.794,27.714Zm0,1.931a.429.429,0,1,0,0-.859.56.56,0,0,0-.429.429A.521.521,0,0,0,239.794,29.645Zm0,5.365h.061a.437.437,0,0,0,.429-.491v-.061a.437.437,0,0,0-.491-.429h-.061a.436.436,0,0,0-.429.49v.061A.437.437,0,0,0,239.794,35.01Zm-.4,3.557a.525.525,0,0,0,.8,0,.524.524,0,0,0,.214-.4.684.684,0,0,0-.582-.613.5.5,0,0,0-.4.184c-.092.123-.276.215-.184.429C239.15,38.352,239.334,38.444,239.395,38.567ZM241.6,24.157a1.821,1.821,0,0,1,.245-.123.278.278,0,0,0,.092-.215c0-.091-.276-.337-.368-.337a.717.717,0,0,0-.307.367A.665.665,0,0,0,241.6,24.157Zm0,5.458a.414.414,0,1,0-.429-.4A.458.458,0,0,0,241.6,29.614Zm0-2.606a.34.34,0,0,0-.337.337v.031a.364.364,0,0,0,.368.307.336.336,0,0,0,.307-.337A.34.34,0,0,0,241.6,27.008Zm-1.778,13.521a.635.635,0,0,0,.613-.613.614.614,0,0,0-1.226,0A.636.636,0,0,0,239.824,40.529Zm0,.49c-.271-.03-.688.412-.673.66H240.5s0-.011,0-.016A.815.815,0,0,0,239.824,41.019Zm1.717-15.085h.031a.337.337,0,1,0,0-.674.36.36,0,0,0-.337.337A.315.315,0,0,0,241.541,25.935Zm-10.884,3.68a.447.447,0,0,0,.613-.153.38.38,0,0,0-.031-.521.43.43,0,0,0-.736,0,1.244,1.244,0,0,0-.153.276.47.47,0,0,0,.153.215A.314.314,0,0,0,230.657,29.614Zm-5.212,3.74a.657.657,0,0,0,.613-.583.681.681,0,0,0-.552-.582.658.658,0,0,0-.643.551A.685.685,0,0,0,225.445,33.355Zm.03-3.648h.061a.46.46,0,0,0,.46-.491v-.061a.46.46,0,0,0-.491-.46h-.061a.46.46,0,0,0-.46.491v.061A.459.459,0,0,0,225.475,29.706Zm.031,1.87a.836.836,0,0,0,.368-.184.7.7,0,0,0,.184-.368.583.583,0,0,0-.153-.4,1.01,1.01,0,0,0-.4-.215.583.583,0,0,0-.4.153,1.652,1.652,0,0,0-.215.4.733.733,0,0,0,.215.4A.641.641,0,0,0,225.506,31.577Zm6.745,7.083c.153.091.276.122.4.183.184-.123.4-.123.491-.306.061-.123.184-.307.153-.4a1.279,1.279,0,0,0-.276-.491c-.123-.092-.307-.031-.4-.153-.153.092-.368.092-.491.245-.123.123-.092.307-.184.429C232.036,38.322,232.036,38.567,232.251,38.659Zm-6.776-14.5c.184-.031.337-.184.307-.337a.34.34,0,0,0-.337-.337h-.031a.343.343,0,0,0-.307.367A.364.364,0,0,0,225.475,24.157Zm0,1.839a.429.429,0,1,0-.429-.429A.519.519,0,0,0,225.475,26Zm0,10.976a.855.855,0,0,0,.675-.643.78.78,0,0,0-.644-.705.814.814,0,0,0-.7.675C224.77,36.544,225.169,36.972,225.475,36.972Zm-.03-9.228c.306,0,.429-.092.429-.4s-.092-.429-.429-.429c-.276,0-.4.123-.4.429S225.169,27.775,225.445,27.744Zm0,12.877c.183-.031.367,0,.521-.184a.624.624,0,0,0,.184-.46c-.031-.184,0-.368-.184-.521-.153-.123-.276-.245-.46-.184a.482.482,0,0,0-.521.153.746.746,0,0,0,0,.981A.516.516,0,0,0,225.445,40.621Zm1.809-7.267a.622.622,0,0,0,.551-.583.582.582,0,1,0-1.165,0A.685.685,0,0,0,227.254,33.355Zm-.031,1.747a.582.582,0,1,0-.583-.583C226.64,34.918,226.855,35.133,227.223,35.1Zm.031-5.4a.506.506,0,0,0-.031-1.012.558.558,0,0,0-.491.521A.511.511,0,0,0,227.254,29.706Zm-.031,1.778c.367,0,.521-.123.551-.46V30.9a.476.476,0,0,0-.521-.429c-.368.031-.521.153-.521.491C226.732,31.331,226.886,31.485,227.223,31.485Zm-3.5,7.787a.482.482,0,0,0-.521.153.746.746,0,0,0,0,.981.514.514,0,0,0,.459.215c.184-.031.368,0,.521-.184a.624.624,0,0,0,.184-.46c-.031-.184,0-.368-.184-.521C224.034,39.333,223.911,39.211,223.728,39.272Zm1.747,1.686a.769.769,0,0,0-.562.3,9.35,9.35,0,0,0,1.262.288A.973.973,0,0,0,225.475,40.958Zm-.03-2.116h.03a.675.675,0,0,0,.644-.674.7.7,0,0,0-.644-.675.645.645,0,0,0-.7.644v.092A.67.67,0,0,0,225.445,38.842ZM223.728,26h.031a.387.387,0,0,0,.368-.429.434.434,0,0,0-.429-.4.413.413,0,0,0-.429.4v.061A.433.433,0,0,0,223.728,26Zm-3.679,5.581a.584.584,0,0,0,.061-1.165.659.659,0,0,0-.644.552A.685.685,0,0,0,220.049,31.577Zm-.552,1.165a.583.583,0,0,0,1.165,0,.519.519,0,0,0-.583-.582A.507.507,0,0,0,219.5,32.741Zm.613,1.1a.814.814,0,0,0-.705.674c-.031.245.368.675.675.675a.816.816,0,0,0,.675-.644A.78.78,0,0,0,220.11,33.845Zm-.092-4.078a.583.583,0,0,0,.4-.153.641.641,0,0,0,.215-.4.583.583,0,0,0-.153-.4,1.652,1.652,0,0,0-.4-.215c-.153.061-.307.153-.46.215a.646.646,0,0,0-.153.4.836.836,0,0,0,.184.368A.7.7,0,0,0,220.018,29.768Zm.476-4.046q-.117.139-.228.283A.3.3,0,0,0,220.494,25.722Zm-.415,2.145a.506.506,0,1,0-.521-.491A.532.532,0,0,0,220.079,27.867Zm3.189,5.273a.523.523,0,0,0,.8,0,.524.524,0,0,0,.215-.4.684.684,0,0,0-.583-.613.5.5,0,0,0-.4.183c-.091.123-.275.215-.183.429C223.023,32.956,223.207,33.048,223.268,33.14Zm.459,2.453a1.5,1.5,0,0,0-.491.184.9.9,0,0,0-.214.491.808.808,0,0,0,.214.459.909.909,0,0,0,.46.215c.184.061.368-.092.491-.184a.622.622,0,0,0,.184-.459.534.534,0,0,0-.153-.46A2.447,2.447,0,0,0,223.728,35.593Zm-.031-4.016a.715.715,0,0,0,.613-.613.6.6,0,0,0-1.2,0A.656.656,0,0,0,223.7,31.577Zm3.189,5.273c.123.061.276.184.4.153.153-.061.4-.092.49-.307.061-.122.184-.306.153-.4a1.279,1.279,0,0,0-.276-.491c-.123-.123-.306-.061-.4-.184-.123.092-.337.061-.46.215s-.092.337-.215.46C226.671,36.482,226.671,36.7,226.886,36.85Zm-3.22,1.993h.031a.675.675,0,0,0,.644-.674.7.7,0,0,0-.644-.675.645.645,0,0,0-.7.644v.092A.67.67,0,0,0,223.666,38.842Zm-.429-3.894a.411.411,0,0,0,.429.184c.031-.031.061-.031.123,0a.413.413,0,0,0,.368-.153.352.352,0,0,0,.153-.368V34.4a.445.445,0,0,0-.307-.459,1.121,1.121,0,0,0-.552,0c-.061,0-.122.092-.214.153-.215.153-.092.367-.123.551A.356.356,0,0,0,223.237,34.949Zm.459-10.792c.307,0,.337-.031.337-.307,0-.337-.031-.367-.307-.367-.337,0-.368.031-.368.337C223.359,24.157,223.39,24.157,223.7,24.157Zm0,4.538h-.061a.481.481,0,0,0-.429.521.042.042,0,0,0,0,.061.48.48,0,0,0,.521.429h.061a.481.481,0,0,0,.429-.521v-.061A.481.481,0,0,0,223.7,28.694ZM224,27.622l.092-.092a.352.352,0,0,0-.092-.491.731.731,0,0,0-.337-.184c-.153,0-.459.337-.49.521.061.092.122.184.153.245C223.6,27.867,223.728,27.9,224,27.622Zm.889,6.9c0,.4.184.613.582.583a.582.582,0,1,0-.582-.583Zm5.979,2.361a.582.582,0,1,0-.583-.582A.507.507,0,0,0,230.871,36.88Zm.031-3.526a.836.836,0,0,0,.368-.184.7.7,0,0,0,.184-.368.583.583,0,0,0-.153-.4,1.008,1.008,0,0,0-.4-.214.586.586,0,0,0-.4.153,1.654,1.654,0,0,0-.215.4.855.855,0,0,0,.215.4A.641.641,0,0,0,230.9,33.355Zm0,1.747a.6.6,0,0,0,.583-.552.63.63,0,0,0-.583-.613.657.657,0,0,0-.613.582A.632.632,0,0,0,230.9,35.1Zm1.747-9.2a.34.34,0,0,0,.337-.337v-.031a.344.344,0,0,0-.368-.307.364.364,0,0,0-.307.368A.3.3,0,0,0,232.65,25.9ZM230.9,37.463a.814.814,0,0,0-.705.675.78.78,0,0,0,.675.674.816.816,0,0,0,.675-.643A.78.78,0,0,0,230.9,37.463Zm0-6.991h-.061a.46.46,0,0,0-.46.491v.061a.46.46,0,0,0,.491.46h.061a.46.46,0,0,0,.46-.491v-.061A.46.46,0,0,0,230.9,30.472Zm0-2.667h.061a.411.411,0,0,0,.337-.46v-.061a.43.43,0,0,0-.46-.337h-.031a.388.388,0,0,0-.368.429A.522.522,0,0,0,230.9,27.806Zm12.478,13.275c-.429,0-.613.184-.613.583,0,.006,0,.01,0,.016h1.192C243.957,41.263,243.774,41.081,243.381,41.081Zm-10.731-9.6a.532.532,0,0,0,.521-.491.506.506,0,1,0-.521.491Zm-.031-7.328h.031a.337.337,0,1,0-.337-.337A.315.315,0,0,0,232.619,24.157Zm.031,9.106h.061a.46.46,0,0,0,.46-.491v-.061a.459.459,0,0,0-.491-.459h-.061a.459.459,0,0,0-.46.49V32.8A.46.46,0,0,0,232.65,33.263Zm0,3.618a.542.542,0,0,0,.583-.613.6.6,0,0,0-1.2.031v.061A.577.577,0,0,0,232.65,36.88Zm.031-1.747a.6.6,0,1,0-.644-.583A.718.718,0,0,0,232.68,35.133Zm-1.809-10.976a.337.337,0,1,0,0-.674h-.031a.364.364,0,0,0-.307.367A.336.336,0,0,0,230.871,24.157Zm1.778,3.649a.429.429,0,1,0,0-.859.462.462,0,0,0-.429.429A.521.521,0,0,0,232.65,27.806Zm-.031,1.809c.307,0,.429-.092.429-.4s-.092-.429-.429-.429c-.276,0-.4.123-.4.429S232.343,29.645,232.619,29.614Zm-3.495.092h.031a.485.485,0,0,0,.46-.521v-.031a.484.484,0,0,0-.521-.46.511.511,0,0,0-.491.521A.474.474,0,0,0,229.124,29.706ZM229.093,26c.123,0,.429-.275.429-.429,0-.123-.276-.429-.429-.429-.123,0-.429.276-.429.429A.606.606,0,0,0,229.093,26Zm-1.87,12.846h.061a.628.628,0,0,0,.643-.643v-.092a.671.671,0,0,0-.674-.613c-.031-.031-.031-.031-.061,0a.671.671,0,0,0-.613.675V38.2A.647.647,0,0,0,227.223,38.842Zm1.931-11.926c-.337,0-.46.123-.46.429s.092.429.4.429.429-.092.46-.4C229.553,27.039,229.431,26.916,229.155,26.916Zm-.092-2.76h.031a.337.337,0,1,0-.337-.337A.315.315,0,0,0,229.063,24.157Zm.061,16.863a.629.629,0,0,0-.521.153.7.7,0,0,0-.184.491c0,.006,0,.011,0,.016h1.341a.61.61,0,0,0-.178-.476C229.431,41.081,229.308,40.958,229.124,41.019Zm1.747-15.085c.307,0,.337-.031.337-.306,0-.337,0-.368-.337-.368s-.337,0-.337.337C230.534,25.9,230.534,25.9,230.871,25.935Zm-3.648,15.023a.87.87,0,0,0-.521.215,2.853,2.853,0,0,0-.205.424,9.314,9.314,0,0,0,1.179.083h.273a.9.9,0,0,0-.2-.476A.754.754,0,0,0,227.223,40.958Zm.031-.367h.031a.648.648,0,0,0,.643-.644v-.061a.629.629,0,0,0-.643-.644h-.092a.671.671,0,0,0-.613.675v.061A.671.671,0,0,0,227.254,40.591Zm1.839-1.349H229a.649.649,0,0,0-.583.705.7.7,0,0,0,.736.675.732.732,0,0,0,.643-.736A.7.7,0,0,0,229.093,39.241Zm0-.4a1.619,1.619,0,0,0,.46-.183.892.892,0,0,0,.214-.491.679.679,0,0,0-.183-.46.91.91,0,0,0-.46-.215c-.184-.061-.368.092-.491.184a.91.91,0,0,0-.215.46c-.031.184.123.368.215.491S228.94,38.781,229.093,38.842Zm1.778,2.208c-.215-.092-.337.031-.491.123a.585.585,0,0,0-.184.491c0,.006,0,.011,0,.016h1.341a.607.607,0,0,0-.178-.476C231.209,41.111,231.086,40.989,230.871,41.05ZM229.155,35.1c.184.092.245-.123.4-.245.153-.092.123-.245.153-.4,0-.183-.153-.275-.245-.4-.092-.153-.245-.123-.4-.153-.215-.031-.276.153-.4.245a.351.351,0,0,0-.153.367A.637.637,0,0,0,229.155,35.1Zm-.4-1.931c.123.061.276.092.4.153.092-.123.276-.061.4-.184s.061-.307.184-.4c-.123-.123-.061-.307-.215-.429-.123-.091-.276-.061-.4-.153-.123.092-.337.061-.429.214-.061.153-.123.276-.184.4C228.633,32.895,228.572,33.109,228.756,33.171Zm-.031-1.87c.092.092.153.215.337.184.123-.031.276.031.368-.123.092-.092.214-.153.184-.337-.031-.123.03-.276-.123-.368-.092-.092-.153-.215-.337-.184-.123.031-.276-.031-.368.123-.092.123-.245.184-.184.337C228.6,31.086,228.572,31.208,228.725,31.3Zm.368,5.61c.429,0,.613-.184.613-.582,0-.429-.183-.613-.582-.613-.429,0-.613.153-.613.583S228.695,36.911,229.093,36.911Zm5.273,3.68a.847.847,0,0,0,.705-.675c.031-.245-.368-.675-.675-.675-.276,0-.674.46-.674.675A.816.816,0,0,0,234.366,40.591Zm25.08-7.42c.337,0,.459-.092.459-.4s-.123-.429-.4-.429c-.337-.031-.46.092-.46.368C259.048,33.048,259.14,33.171,259.447,33.171Zm.031,2.637a.511.511,0,0,0-.521.491.586.586,0,0,0,.491.521.506.506,0,0,0,.031-1.011Zm.306-.981a.372.372,0,0,0,0-.613,1.1,1.1,0,0,0-.306-.215,2.7,2.7,0,0,1-.307.184c-.276.275-.307.429,0,.7C259.385,35.071,259.569,35.041,259.783,34.826Zm-.367,2.852a.437.437,0,0,0-.429.491v.061a.437.437,0,0,0,.491.429h.061a.437.437,0,0,0,.429-.491v-.061a.436.436,0,0,0-.49-.429Zm.061-8.033a.429.429,0,1,0-.429-.429A.521.521,0,0,0,259.477,29.645Zm0-3.71h.031a.364.364,0,0,0,.306-.367.315.315,0,0,0-.337-.307.337.337,0,1,0,0,.674Zm0,5.458a.413.413,0,0,0,.429-.4v-.061a.435.435,0,0,0-.459-.368h-.031a.388.388,0,0,0-.368.429A.434.434,0,0,0,259.477,31.393Zm1.778-1.747a.429.429,0,1,0-.429-.429A.521.521,0,0,0,261.255,29.645Zm0,2.7c-.307,0-.429.092-.4.4,0,.307.092.429.4.429s.429-.092.429-.429C261.685,32.465,261.562,32.343,261.255,32.343Zm0,3.465a.511.511,0,0,0-.521.491.531.531,0,0,0,.491.521.506.506,0,0,0,.031-1.011Zm-.031,1.839h-.061a.481.481,0,0,0-.429.521v.061a.482.482,0,0,0,.431.42c.194-.21.379-.428.555-.655A.467.467,0,0,0,261.225,37.647Zm0-9.872c.123.031.429-.245.429-.4.031-.123-.245-.429-.4-.429-.123-.031-.429.245-.429.4C260.826,27.468,261.071,27.775,261.225,27.775ZM262.6,36.3v.031a.484.484,0,0,0,.049.209c.121-.233.233-.471.336-.715A.476.476,0,0,0,262.6,36.3Zm-1.349-2.269a.511.511,0,0,0-.521.49.532.532,0,0,0,.491.521.506.506,0,0,0,.031-1.011Zm0-2.606c.337,0,.429-.123.429-.46-.031-.307-.153-.4-.46-.4-.276,0-.4.123-.4.429S260.949,31.393,261.255,31.423Zm-1.809-3.74c.337,0,.367-.031.367-.337s-.031-.337-.306-.337c-.337,0-.368.031-.368.307C259.14,27.622,259.171,27.683,259.447,27.683Zm-3.526,1.962a.607.607,0,0,0,.429-.429.429.429,0,1,0-.859,0A.969.969,0,0,0,255.92,29.645Zm1.747-1.931c.307,0,.368-.031.368-.307,0-.337-.031-.368-.337-.368s-.337.031-.337.307C257.362,27.652,257.392,27.683,257.668,27.714ZM255.89,33.14c.307,0,.429-.092.429-.4s-.092-.429-.429-.429c-.276,0-.4.123-.4.429S255.614,33.171,255.89,33.14Zm3.588,6.193-.245.123c-.184.061-.245.245-.337.429-.061.123.092.215.123.337a.229.229,0,0,0,.072.117,9.529,9.529,0,0,0,.88-.6l0-.006C259.875,39.487,259.661,39.425,259.477,39.333Zm-1.81-15.177a.364.364,0,0,0,.368-.307v-.031a.337.337,0,0,0-.674,0A.315.315,0,0,0,257.668,24.157Zm-1.747,11.62a.532.532,0,0,0-.491.521.492.492,0,0,0,.521.49.506.506,0,1,0-.031-1.011Zm0,1.87h-.061a.461.461,0,0,0-.429.521v.061a.461.461,0,0,0,.521.429h.061a.461.461,0,0,0,.429-.521v-.061A.461.461,0,0,0,255.92,37.647Zm.245-3.526c-.092-.031-.153-.061-.245-.092a.282.282,0,0,0-.184.123.314.314,0,0,0-.184.153.446.446,0,0,0,.153.613.373.373,0,0,0,.491,0,.813.813,0,0,0,.153-.184A.456.456,0,0,0,256.166,34.121Zm-.245-2.7a.458.458,0,0,0,.429-.4v-.031a.419.419,0,0,0-.429-.429.439.439,0,0,0-.429.429A.461.461,0,0,0,255.92,31.423Zm1.778-5.489a.34.34,0,0,0,.337-.337v-.031a.364.364,0,0,0-.368-.307.315.315,0,0,0-.306.337A.361.361,0,0,0,257.7,25.935ZM245.1,25.9h.031a.321.321,0,0,0,.337-.337.337.337,0,0,0-.675,0A.315.315,0,0,0,245.1,25.9Zm12.6,13.521c-.337,0-.49.153-.49.521,0,.337.123.491.49.491.4,0,.521-.123.521-.521C258.22,39.548,258.1,39.425,257.7,39.425Zm0-3.618h-.031a.484.484,0,0,0-.459.521.51.51,0,0,0,.521.49.531.531,0,0,0,.491-.521v-.031A.484.484,0,0,0,257.7,35.808Zm0-6.163a.429.429,0,1,0-.429-.429A.56.56,0,0,0,257.7,29.645Zm-.031,1.778a.464.464,0,0,0,.46-.4v-.031a.419.419,0,0,0-.429-.429.434.434,0,0,0-.429.4A.489.489,0,0,0,257.668,31.423Zm0,.889c-.306.031-.4.153-.4.46,0,.276.122.4.429.4s.429-.123.429-.429C258.128,32.4,258.005,32.312,257.668,32.312Zm-.306,2.422a.311.311,0,0,0,.153.184.447.447,0,0,0,.613-.153.379.379,0,0,0-.031-.521.43.43,0,0,0-.735,0,1.239,1.239,0,0,0-.153.275C257.208,34.611,257.27,34.673,257.362,34.734ZM218.4,33.873a9.836,9.836,0,0,0,.3,1.156.86.86,0,0,0,.1-.05,1.21,1.21,0,0,0,.184-.46c.031-.183-.123-.367-.215-.49A1.09,1.09,0,0,0,218.4,33.873Zm8.909-11.518-.136.007a.284.284,0,0,0,.081.016A.192.192,0,0,0,227.309,22.356ZM221.98,38.812c.153.092.276-.031.46-.214a.648.648,0,0,0,.184-.521.56.56,0,0,0-.184-.46.7.7,0,0,0-.491-.184.632.632,0,0,0-.521.215.746.746,0,0,0,0,.981A.549.549,0,0,0,221.98,38.812Zm-.061-3.188c-.031,0-.031,0-.061.031a.613.613,0,0,0-.613.675v.031a.622.622,0,0,0,.644.613h.092a.649.649,0,0,0,.613-.674v-.061A.629.629,0,0,0,221.919,35.624Zm5.335-11.467a.34.34,0,0,0,.337-.337v-.031a.363.363,0,0,0-.367-.306.315.315,0,0,0-.307.337A.34.34,0,0,0,227.254,24.157Zm-.031,1.87a.52.52,0,0,0,.429-.429.461.461,0,0,0-.429-.429.429.429,0,1,0,0,.858Zm1.949-3.69h-.141a.53.53,0,0,0,.063.041A.394.394,0,0,0,229.172,22.337ZM255.92,39.425c-.337,0-.491.153-.521.491v.092a.474.474,0,0,0,.491.429c.4-.031.521-.153.552-.521v-.092A.476.476,0,0,0,255.92,39.425Zm-28.7-12.478c-.276,0-.4.123-.4.429,0,.276.123.4.46.4.306,0,.4-.123.4-.46C227.682,27.039,227.561,26.947,227.223,26.947Zm-5.274,4.63a.6.6,0,1,0-.613-.583A.689.689,0,0,0,221.949,31.577Zm0,7.6a.8.8,0,0,0-.434.161,9.477,9.477,0,0,0,1.1.83,1.013,1.013,0,0,0,.073-.224.87.87,0,0,0-.215-.521A.915.915,0,0,0,221.949,39.18Zm-.031-5.825a.59.59,0,0,0,.613-.583.613.613,0,0,0-1.227,0A.572.572,0,0,0,221.919,33.355Zm-.061,1.839c.123.031.276-.092.4-.153.215-.092.245-.307.307-.491.031-.123-.092-.275-.153-.4-.092-.215-.307-.215-.491-.307-.123.123-.4.061-.521.215s-.092.337-.215.459c.123.092.092.276.184.4A.888.888,0,0,0,221.857,35.194Zm-2.974-6.009c-.1-.076-.083-.214-.141-.329q-.146.432-.251.883a.376.376,0,0,0,.238-.155C218.792,29.461,218.822,29.308,218.884,29.185Zm3.066.521h.123a.454.454,0,0,0,.368-.521c0-.337-.153-.46-.521-.521H221.8a.5.5,0,0,0-.368.552C221.428,29.584,221.581,29.676,221.949,29.706Zm0-1.839a.506.506,0,1,0-.031-1.012.511.511,0,0,0-.491.521A.532.532,0,0,0,221.949,27.867ZM221.919,26c.307,0,.429-.092.46-.429,0-.307-.123-.429-.4-.429-.337,0-.46.123-.46.429S221.612,26,221.919,26Zm37.589-1.839a.291.291,0,0,0,.191-.085c-.175-.125-.357-.239-.541-.352a.36.36,0,0,0-.019.1v.031A.364.364,0,0,0,259.508,24.157ZM232.65,41.019h-.061a.67.67,0,0,0-.611.66h1.347v-.047A.671.671,0,0,0,232.65,41.019Zm-1.778-1.778h-.031a.629.629,0,0,0-.644.644v.092a.671.671,0,0,0,.675.613h.061a.671.671,0,0,0,.613-.675v-.061A.613.613,0,0,0,230.871,39.241Zm-10.823-3.618c-.031,0-.061,0-.061-.031a.678.678,0,0,0,.123,1.349.655.655,0,0,0,.644-.674v-.031A.677.677,0,0,0,220.049,35.624Zm30.445,5.488c-.184-.092-.276.123-.429.215a.572.572,0,0,0-.145.354h1.186c.021-.2-.124-.3-.213-.415A.315.315,0,0,0,250.494,41.111Zm10.762-15.177a.377.377,0,0,0,.257-.175c-.13-.157-.266-.309-.406-.457a.366.366,0,0,0-.189.327A.335.335,0,0,0,261.255,25.935ZM255.92,41.111a.643.643,0,0,0-.553.5,9.378,9.378,0,0,0,1.036-.182A.633.633,0,0,0,255.92,41.111Zm-3.618,0a.652.652,0,0,0-.578.568h1.157c0-.006,0-.011,0-.016A.652.652,0,0,0,252.3,41.111ZM220.11,37.494a.475.475,0,0,0-.225-.006,9.544,9.544,0,0,0,.792,1.011.643.643,0,0,0,.078-.3c-.031-.184,0-.368-.184-.521C220.417,37.555,220.294,37.432,220.11,37.494Zm42.954-6.1c.307,0,.429-.092.429-.4s-.092-.429-.429-.429c-.276,0-.4.123-.4.429S262.788,31.393,263.064,31.393Zm.061,1.839a.958.958,0,0,0,.491-.491c.031-.153-.307-.521-.491-.521a.744.744,0,0,0-.521.521C262.6,32.925,262.942,33.263,263.126,33.232Zm-.031-3.587a.661.661,0,0,0,.314-.2q-.083-.315-.188-.621a.468.468,0,0,0-.126-.041.429.429,0,1,0,0,.859Zm-44.181,3.1c0-.429-.184-.582-.613-.582a.707.707,0,0,0-.072.009,9.815,9.815,0,0,0,.093,1.185h.009C218.761,33.355,218.914,33.171,218.914,32.741Zm37.006-5.058c.307,0,.337-.031.337-.307,0-.307-.031-.368-.307-.368-.307,0-.368.031-.368.307C255.583,27.652,255.614,27.683,255.92,27.683Zm6.684,6.837a.532.532,0,0,0,.491.521.547.547,0,0,0,.193-.036c.081-.256.148-.519.208-.783a.47.47,0,0,0-.37-.192A.511.511,0,0,0,262.6,34.519Zm-43.935-3.127a.524.524,0,0,0,.215-.4.687.687,0,0,0-.522-.595,9.893,9.893,0,0,0-.119,1.172c.009,0,.018.006.028.006A.5.5,0,0,0,218.669,31.393Zm39.06,6.255h-.061a.459.459,0,0,0-.459.491c-.031.031-.031.061,0,.061a.459.459,0,0,0,.49.46h.061a.46.46,0,0,0,.46-.491v-.061A.46.46,0,0,0,257.729,37.647Zm-10.762,3.464h-.061a.576.576,0,0,0-.516.568h1.188A.589.589,0,0,0,246.968,41.111Zm0-7.941c.307,0,.429-.092.429-.4s-.092-.429-.429-.429c-.275,0-.4.123-.4.429C246.57,33.048,246.692,33.171,246.968,33.171Zm2.146,8.094a.564.564,0,0,0-.367-.153c-.215-.031-.307.123-.429.215a.365.365,0,0,0-.161.354h1.2l0-.016C249.39,41.449,249.206,41.387,249.114,41.265ZM248.746,25.9a.34.34,0,0,0,.337-.337v-.031a.343.343,0,0,0-.367-.307.364.364,0,0,0-.307.368C248.44,25.782,248.593,25.935,248.746,25.9ZM247,38.659c.368,0,.491-.123.491-.521,0-.337-.153-.491-.521-.491-.337,0-.49.153-.49.491C246.478,38.536,246.6,38.659,247,38.659Zm1.748-14.5c.123.031.4-.245.367-.337a.278.278,0,0,0-.092-.214.914.914,0,0,0-.245-.123.558.558,0,0,0-.337.306A.614.614,0,0,0,248.746,24.157Zm-2.116,10.578a.316.316,0,0,0,.153.184.447.447,0,0,0,.613-.153.379.379,0,0,0-.031-.521.43.43,0,0,0-.735,0,1.239,1.239,0,0,0-.153.275A.355.355,0,0,0,246.631,34.734ZM247,36.819a.506.506,0,1,0-.521-.49A.557.557,0,0,0,247,36.819Zm0,3.71a.685.685,0,0,0,.552-.644.624.624,0,0,0-.583-.552.685.685,0,0,0-.582.613A.716.716,0,0,0,247,40.529Zm1.748-3.71a.509.509,0,0,0,.49-.521.506.506,0,1,0-1.011.031A.557.557,0,0,0,248.746,36.819Zm.031-9.136a.336.336,0,0,0,.306-.337.34.34,0,0,0-.337-.337.389.389,0,0,0-.337.337v.031A.364.364,0,0,0,248.777,27.683Zm-.368,7.051a.314.314,0,0,0,.153.184.446.446,0,0,0,.613-.153.379.379,0,0,0-.031-.521.43.43,0,0,0-.735,0,1.239,1.239,0,0,0-.153.275A.355.355,0,0,0,248.409,34.734Zm.368,5.765a.583.583,0,0,0-.031-1.165.685.685,0,0,0-.583.613A.628.628,0,0,0,248.777,40.5Zm0-10.884c.122,0,.4-.307.4-.429s-.306-.4-.429-.4-.4.307-.4.429C248.348,29.369,248.624,29.645,248.777,29.614Zm.031,3.556c.306,0,.4-.123.4-.46,0-.276-.123-.368-.459-.368-.276,0-.4.123-.4.429S248.47,33.171,248.808,33.171Zm-.061-1.778a.458.458,0,0,0,.429-.4.414.414,0,1,0-.429.4Zm7.174-7.236c.123.031.4-.245.368-.337a.278.278,0,0,0-.092-.214.918.918,0,0,0-.245-.123c-.153.061-.307.153-.337.306A.614.614,0,0,0,255.92,24.157ZM245.128,36.819h.061a.459.459,0,0,0,.46-.49v-.061a.46.46,0,0,0-.491-.46H245.1a.459.459,0,0,0-.459.491v.061A.459.459,0,0,0,245.128,36.819Zm0-1.778a.484.484,0,0,0,.491-.491.511.511,0,0,0-.491-.521.492.492,0,0,0-.49.521A.484.484,0,0,0,245.128,35.041Zm-.031-4.507a.435.435,0,0,0-.368.46v.031a.388.388,0,0,0,.429.368.434.434,0,0,0,.4-.429.458.458,0,0,0-.4-.429Zm.031,2.637c.307,0,.429-.123.4-.4,0-.307-.092-.429-.4-.429s-.429.092-.429.429C244.7,33.048,244.821,33.171,245.128,33.171Zm0-3.526c.123,0,.429-.276.429-.429,0-.123-.276-.429-.429-.429-.123,0-.429.276-.429.429C244.7,29.338,244.975,29.645,245.128,29.645Zm.031-5.489a.716.716,0,0,0,.307-.368.558.558,0,0,0-.337-.306.608.608,0,0,0-.337.337C244.791,23.942,245.036,24.187,245.159,24.157Zm-.061,3.557h.031a.337.337,0,1,0,0-.675.315.315,0,0,0-.337.307A.364.364,0,0,0,245.1,27.714Zm.061,13.4c-.393,0-.6.181-.611.568h1.188A.519.519,0,0,0,245.159,41.111Zm-.031-2.392c.092.031.245-.061.368-.122.184-.092.153-.307.215-.429.061-.092-.061-.276-.123-.4-.092-.184-.307-.153-.429-.215-.092-.031-.276.092-.4.153-.183.092-.122.307-.245.429.061.123.123.276.183.4C244.791,38.689,244.975,38.659,245.128,38.72Zm1.839-9.105c.123.031.429-.245.429-.4.031-.123-.245-.429-.4-.429-.123-.031-.429.245-.429.4C246.539,29.338,246.814,29.614,246.968,29.614ZM247,24.126a.616.616,0,0,0,.245-.123.278.278,0,0,0,.092-.215c0-.091-.276-.337-.368-.337a.716.716,0,0,0-.306.367C246.662,23.911,246.906,24.157,247,24.126Zm0,2.882a.34.34,0,0,0-.337.337.321.321,0,0,0,.337.337.315.315,0,0,0,.337-.307v-.031A.34.34,0,0,0,247,27.008Zm-1.87,13.521a.6.6,0,0,0,.031-1.2.6.6,0,0,0-.031,1.2Zm1.839-14.595H247a.364.364,0,0,0,.307-.367.315.315,0,0,0-.337-.307.362.362,0,0,0-.337.337A.339.339,0,0,0,246.968,25.935Zm0,5.458a.414.414,0,1,0-.4-.429A.489.489,0,0,0,246.968,31.393Zm1.81,6.255h-.061a.479.479,0,0,0-.46.491V38.2a.479.479,0,0,0,.491.46h.061a.479.479,0,0,0,.459-.491v-.061A.478.478,0,0,0,248.777,37.647Zm5.365-11.712a.362.362,0,0,0,.337-.337.315.315,0,0,0-.307-.337h-.031a.337.337,0,1,0,0,.674Zm.031,3.71c.153-.031.429-.307.4-.429,0-.153-.307-.4-.429-.4-.153,0-.4.307-.4.429C253.743,29.4,254.05,29.645,254.173,29.645Zm-1.839,5.4c.184-.031.521-.4.491-.552a.859.859,0,0,0-.521-.459c-.184,0-.521.367-.521.521A.8.8,0,0,0,252.333,35.041Zm1.809-7.358a.315.315,0,0,0,.337-.307v-.031a.322.322,0,0,0-.337-.337.34.34,0,0,0-.337.337A.363.363,0,0,0,254.142,27.683Zm.031,13.4a.685.685,0,0,0-.613.583c0,.006,0,.011,0,.016h.735c.143,0,.282-.016.424-.022A.651.651,0,0,0,254.173,41.081Zm-1.87-1.717a.606.606,0,0,0-.368.184.437.437,0,0,0-.184.368.583.583,0,0,0,.153.4,1.653,1.653,0,0,0,.4.215c.153-.061.276-.123.46-.215a.585.585,0,0,0-.46-.951Zm-.491-3.035v.031a.506.506,0,0,0,.521.459h.031a.5.5,0,0,0,.46-.521.511.511,0,0,0-.521-.491A.46.46,0,0,0,251.812,36.329Zm.491,2.33h.061a.481.481,0,0,0,.429-.521v-.061a.481.481,0,0,0-.521-.429h-.061a.481.481,0,0,0-.429.521v.061A.482.482,0,0,0,252.3,38.659Zm1.87-14.5c.092-.031.153-.092.245-.123a.278.278,0,0,0,.092-.215c0-.122-.276-.367-.368-.337a.717.717,0,0,0-.307.367A.557.557,0,0,0,254.173,24.157Zm-.061,16.281c.307,0,.46-.061.521-.276a1.162,1.162,0,0,0,0-.46.325.325,0,0,0-.276-.276h-.245a.453.453,0,0,0-.46.521C253.651,40.284,253.8,40.437,254.112,40.437Zm.061-9.014a.429.429,0,1,0-.429-.429A.521.521,0,0,0,254.173,31.423Zm1.747-5.489h.031a.364.364,0,0,0,.307-.367.315.315,0,0,0-.337-.307.337.337,0,1,0,0,.674Zm-1.747,12.724h.061a.461.461,0,0,0,.429-.521v-.061a.461.461,0,0,0-.521-.429h-.061a.461.461,0,0,0-.429.521v.061A.461.461,0,0,0,254.173,38.659Zm-.031-5.458c.337,0,.46-.123.46-.4,0-.337-.123-.46-.429-.46s-.429.092-.429.4S253.835,33.171,254.142,33.2Zm.031,1.809c.184,0,.521-.368.491-.521a.666.666,0,0,0-.491-.49c-.184,0-.521.367-.521.521C253.651,34.7,254.02,35.041,254.173,35.01Zm-.031,1.809a.506.506,0,1,0-.491-.521A.511.511,0,0,0,254.142,36.819Zm-3.648-3.679c.307,0,.429-.092.429-.4s-.092-.429-.429-.429c-.276,0-.4.123-.4.429S250.218,33.171,250.494,33.14Zm.031,3.679a.506.506,0,1,0-.491-.521A.531.531,0,0,0,250.525,36.819Zm.031-1.809c.184,0,.521-.368.491-.521a.666.666,0,0,0-.491-.49c-.184,0-.521.367-.521.521C250.034,34.7,250.371,35.041,250.555,35.01Zm-.031-3.618a.414.414,0,1,0-.4-.429A.489.489,0,0,0,250.525,31.393Zm0-7.236c.092,0,.337-.276.337-.368a.718.718,0,0,0-.368-.306.666.666,0,0,0-.307.337.918.918,0,0,0,.123.245A.278.278,0,0,0,250.525,24.157Zm-.337,1.441v.031a.364.364,0,0,0,.368.306.335.335,0,0,0,.307-.337.34.34,0,0,0-.337-.337C250.341,25.261,250.218,25.383,250.187,25.6Zm.307,2.116h.031a.337.337,0,1,0,0-.675.315.315,0,0,0-.337.307A.364.364,0,0,0,250.494,27.714Zm.061,1.9c.123,0,.4-.307.4-.429s-.307-.4-.429-.4c-.153,0-.429.307-.4.429C250.126,29.338,250.433,29.614,250.555,29.614Zm.368,9.872c-.123-.031-.276-.153-.368-.123-.153.031-.337.031-.429.184-.061.153-.123.276-.184.4.123.123.061.337.245.429.123.061.307.184.4.153.153-.061.368-.031.429-.215.031-.123.153-.307.123-.4C251.076,39.763,251.107,39.548,250.923,39.487Zm1.379-9.872c.123,0,.4-.307.4-.429s-.307-.4-.429-.4-.4.307-.4.429C251.9,29.369,252.18,29.645,252.3,29.614Zm0,1.809a.429.429,0,1,0-.429-.429A.56.56,0,0,0,252.3,31.423Zm-.031-3.74h.031a.337.337,0,1,0-.337-.337A.315.315,0,0,0,252.272,27.683Zm0,5.488c.337,0,.46-.092.46-.4,0-.337-.123-.46-.4-.46-.337,0-.46.123-.46.429S251.965,33.171,252.272,33.171Zm0-9.045a.614.614,0,0,0,.368-.307c0-.091-.215-.367-.337-.367a.608.608,0,0,0-.337.337C252.027,23.942,252.119,24.1,252.272,24.126Zm-1.747,14.533h.061a.436.436,0,0,0,.429-.491v-.061a.436.436,0,0,0-.49-.429h-.061a.437.437,0,0,0-.429.491v.061A.437.437,0,0,0,250.525,38.659ZM252.3,25.935h.031a.364.364,0,0,0,.307-.367.336.336,0,0,0-.337-.307.34.34,0,0,0-.337.337A.362.362,0,0,0,252.3,25.935Z" transform="translate(-1.146 -1.232)"/><g transform="translate(214.231 18.042)"><path class="b" d="M223.9,18.042h27.453a9.662,9.662,0,0,1,9.671,9.672h0a9.662,9.662,0,0,1-9.671,9.671H223.9a9.662,9.662,0,0,1-9.672-9.671h0A9.686,9.686,0,0,1,223.9,18.042Z" transform="translate(-214.231 -18.042)"/></g></g></g></svg>