<svg xmlns="http://www.w3.org/2000/svg" width="47" height="9.922" viewBox="0 0 47 9.922"><defs><style>.a{fill:#ffd438;}</style></defs><path class="a" d="M48.261,1.382A41.981,41.981,0,0,1,35.132,9.1h0a40.689,40.689,0,0,1-24.3-.576,51.943,51.943,0,0,1-7.717-3.34,2.466,2.466,0,0,1-1.382-3.34,2.537,2.537,0,0,1,3.686-.461c.115,0,.115,0,.23.115A35.6,35.6,0,0,0,21.081,7.371C30.525,8.638,41.236,4.837,47.916.806a.506.506,0,0,1,.576.115A.46.46,0,0,1,48.261,1.382Z" transform="translate(-1.492 -0.759)"/></svg>