<svg xmlns="http://www.w3.org/2000/svg" width="87.5" height="21.155" viewBox="0 0 87.5 21.155"><defs><style>.a{fill:#fff;}.b{fill:none;stroke:#909ab9;}.c{fill:#0a83ea;}.d{fill:#2a3251;}</style></defs><g transform="translate(-1105 -813.995)"><g transform="translate(-4.654)"><g transform="translate(1109.654 813.995)"><rect class="a" width="34.155" height="21.155" rx="5.577"/><rect class="b" width="33.017" height="19.982" rx="1" transform="translate(0.569 0.587)"/></g><circle class="c" cx="5.578" cy="5.578" r="5.578" transform="translate(1114.654 818.995)"/></g><g transform="translate(1146.84 816.166)"><path class="d" d="M2531.363,3413.412a2.919,2.919,0,0,1-1.141-1.093,3.2,3.2,0,0,1,0-3.15,2.947,2.947,0,0,1,1.145-1.093,3.579,3.579,0,0,1,2.966-.14,2.718,2.718,0,0,1,1.021.74l-.715.673a2.087,2.087,0,0,0-1.591-.7,2.235,2.235,0,0,0-1.1.269,1.938,1.938,0,0,0-.758.745,2.282,2.282,0,0,0,0,2.162,1.938,1.938,0,0,0,.758.746,2.237,2.237,0,0,0,1.1.268,2.074,2.074,0,0,0,1.591-.707l.715.681a2.72,2.72,0,0,1-1.025.74,3.445,3.445,0,0,1-1.341.255A3.347,3.347,0,0,1,2531.363,3413.412Z" transform="translate(-2529.809 -3407.679)"/><path class="d" d="M2548.974,3412.457H2546l-.588,1.38h-1.141l2.681-5.958h1.09l2.69,5.958h-1.158Zm-.366-.867-1.124-2.605-1.115,2.605Z" transform="translate(-2538.062 -3407.792)"/><path class="d" d="M2562.242,3413.612a2.772,2.772,0,0,1-1.018-.519l.383-.859a3.036,3.036,0,0,0,.9.472,3.261,3.261,0,0,0,1.068.182,1.85,1.85,0,0,0,.992-.212.645.645,0,0,0,.327-.562.544.544,0,0,0-.183-.421,1.292,1.292,0,0,0-.464-.26c-.187-.062-.442-.134-.766-.213a8.828,8.828,0,0,1-1.1-.324,1.8,1.8,0,0,1-.724-.506,1.364,1.364,0,0,1-.3-.931,1.59,1.59,0,0,1,.268-.9,1.815,1.815,0,0,1,.808-.643,3.291,3.291,0,0,1,1.324-.238,4.264,4.264,0,0,1,1.073.137,2.973,2.973,0,0,1,.911.391l-.349.859a3.423,3.423,0,0,0-.817-.349,3.06,3.06,0,0,0-.825-.119,1.724,1.724,0,0,0-.975.221.683.683,0,0,0-.32.588.531.531,0,0,0,.183.417,1.32,1.32,0,0,0,.464.255q.281.094.766.213a8.089,8.089,0,0,1,1.09.319,1.866,1.866,0,0,1,.728.506,1.338,1.338,0,0,1,.3.92,1.563,1.563,0,0,1-.269.893,1.815,1.815,0,0,1-.812.639,3.317,3.317,0,0,1-1.328.238A4.512,4.512,0,0,1,2562.242,3413.612Z" transform="translate(-2547.081 -3407.679)"/><path class="d" d="M2581.472,3407.878v5.958h-1.107v-2.554h-3.081v2.554h-1.107v-5.958h1.107v2.46h3.081v-2.46Z" transform="translate(-2555.289 -3407.792)"/><path class="d" d="M2600.909,3413.412a2.925,2.925,0,0,1-1.149-1.1,3.164,3.164,0,0,1,0-3.142,2.93,2.93,0,0,1,1.149-1.1,3.6,3.6,0,0,1,3.286,0,2.939,2.939,0,0,1,1.148,1.093,3.183,3.183,0,0,1,0,3.15,2.941,2.941,0,0,1-1.148,1.093,3.608,3.608,0,0,1-3.286,0Zm2.715-.842a1.939,1.939,0,0,0,.75-.75,2.267,2.267,0,0,0,0-2.153,1.94,1.94,0,0,0-.75-.749,2.273,2.273,0,0,0-2.145,0,1.939,1.939,0,0,0-.749.749,2.263,2.263,0,0,0,0,2.153,1.938,1.938,0,0,0,.749.75,2.28,2.28,0,0,0,2.145,0Z" transform="translate(-2567.973 -3407.679)"/><path class="d" d="M2623.637,3407.878v5.958h-.911l-3.286-4.035v4.035h-1.1v-5.958h.911l3.286,4.035v-4.035Z" transform="translate(-2578.437 -3407.792)"/><path class="d" d="M2530.8,3430.261h2.605a3.732,3.732,0,0,1,1.693.37,2.74,2.74,0,0,1,1.149,1.047,3.189,3.189,0,0,1,0,3.124,2.74,2.74,0,0,1-1.149,1.047,3.738,3.738,0,0,1-1.693.37H2530.8Zm2.554,5.021a2.532,2.532,0,0,0,1.153-.251,1.8,1.8,0,0,0,.767-.715,2.3,2.3,0,0,0,0-2.154,1.8,1.8,0,0,0-.767-.715,2.529,2.529,0,0,0-1.153-.251h-1.447v4.086Z" transform="translate(-2530.375 -3421.219)"/><path class="d" d="M2551.651,3435.291v.928h-4.469v-5.958h4.349v.928h-3.243v1.549h2.877v.911h-2.877v1.642Z" transform="translate(-2539.364 -3421.219)"/><path class="d" d="M2560.471,3430.261h1.107v5.021h3.115v.936h-4.222Z" transform="translate(-2546.676 -3421.219)"/><path class="d" d="M2572.351,3430.261h1.106v5.958h-1.106Z" transform="translate(-2553.275 -3421.219)"/><path class="d" d="M2582.9,3430.261l-2.6,5.958h-1.09l-2.6-5.958h1.2l1.984,4.6,2-4.6Z" transform="translate(-2555.503 -3421.219)"/><path class="d" d="M2597.207,3435.291v.928h-4.468v-5.958h4.35v.928h-3.243v1.549h2.877v.911h-2.877v1.642Z" transform="translate(-2564.418 -3421.219)"/><path class="d" d="M2609.925,3436.219l-1.217-1.745a1.935,1.935,0,0,1-.229.009h-1.346v1.736h-1.106v-5.958h2.452a3.3,3.3,0,0,1,1.349.255,1.959,1.959,0,0,1,.88.732,2.045,2.045,0,0,1,.307,1.132,2.018,2.018,0,0,1-.328,1.158,1.949,1.949,0,0,1-.94.724l1.37,1.958Zm-.4-4.716a1.7,1.7,0,0,0-1.1-.306h-1.294v2.375h1.294a1.678,1.678,0,0,0,1.1-.312,1.218,1.218,0,0,0,0-1.758Z" transform="translate(-2571.406 -3421.219)"/><path class="d" d="M2621.731,3434.116v2.1h-1.107v-2.085l-2.34-3.873h1.183l1.745,2.9,1.762-2.9h1.089Z" transform="translate(-2578.403 -3421.219)"/></g></g></svg>