<svg xmlns="http://www.w3.org/2000/svg" width="36.622" height="23.451" viewBox="0 0 36.622 23.451"><defs><style>.a{fill:#909ab9;}.b{fill:#0a83ea;}</style></defs><g transform="translate(-1105 -644.576)"><g transform="translate(-24.364 -1.938)"><g transform="translate(1132.716 649.58)"><path class="a" d="M2390.069,3934.74H2360.43a1.817,1.817,0,0,1-1.815-1.815v-1.649h1.18v1.649a.635.635,0,0,0,.635.633h29.639a.635.635,0,0,0,.635-.633V3916.17a.636.636,0,0,0-.635-.635h-2.223v-1.18h2.223a1.817,1.817,0,0,1,1.815,1.814v16.756A1.817,1.817,0,0,1,2390.069,3934.74Z" transform="translate(-2358.615 -3914.355)"/></g><g transform="translate(1130.067 651.088)"><rect class="b" width="31.982" height="4.498" transform="translate(0)"/></g><g transform="translate(1129.364 646.515)"><path class="a" d="M2380.15,3925.569h-29.864a1.7,1.7,0,0,1-1.7-1.7v-16.98a1.7,1.7,0,0,1,1.7-1.7h29.864a1.7,1.7,0,0,1,1.7,1.7v16.98A1.7,1.7,0,0,1,2380.15,3925.569Zm-29.864-19.206a.523.523,0,0,0-.522.522v16.98a.523.523,0,0,0,.522.522h29.864a.523.523,0,0,0,.522-.522v-16.98a.523.523,0,0,0-.522-.522Z" transform="translate(-2348.584 -3905.183)"/></g></g></g></svg>