<svg xmlns="http://www.w3.org/2000/svg" width="87.5" height="23.451" viewBox="0 0 87.5 23.451"><defs><style>.a{fill:#283350;}.b{fill:#909ab9;}.c{fill:#0a83ea;}</style></defs><g transform="translate(-1105 -644.576)"><path class="a" d="M-61.984,6019.144a4.824,4.824,0,0,1-2.322-.558,4.163,4.163,0,0,1-1.632-1.548,4.266,4.266,0,0,1-.594-2.238,4.265,4.265,0,0,1,.594-2.238,4.163,4.163,0,0,1,1.632-1.548,4.849,4.849,0,0,1,2.334-.558,4.9,4.9,0,0,1,1.974.384,3.958,3.958,0,0,1,1.482,1.1l-1.248,1.152a2.683,2.683,0,0,0-2.112-.984,2.8,2.8,0,0,0-1.392.342,2.43,2.43,0,0,0-.954.954,2.8,2.8,0,0,0-.342,1.392,2.8,2.8,0,0,0,.342,1.392,2.43,2.43,0,0,0,.954.954,2.8,2.8,0,0,0,1.392.342,2.671,2.671,0,0,0,2.112-1l1.248,1.152A3.89,3.89,0,0,1-60,6018.76,4.933,4.933,0,0,1-61.984,6019.144Zm13.74-1.944h-3.9l-.744,1.8H-54.88l3.744-8.4h1.92l3.756,8.4H-47.5Zm-.612-1.476-1.332-3.216-1.332,3.216ZM-35.632,6019l-1.62-2.34H-39.04V6019h-1.944v-8.4h3.636a4.666,4.666,0,0,1,1.938.372,2.879,2.879,0,0,1,1.266,1.056,2.91,2.91,0,0,1,.444,1.62,2.852,2.852,0,0,1-.45,1.614,2.852,2.852,0,0,1-1.278,1.038l1.884,2.7Zm-.036-5.352a1.33,1.33,0,0,0-.456-1.086,2.042,2.042,0,0,0-1.332-.378H-39.04v2.928h1.584a2.02,2.02,0,0,0,1.332-.384A1.334,1.334,0,0,0-35.668,6013.648Zm7.1-3.048h3.816a5.361,5.361,0,0,1,2.418.522,3.91,3.91,0,0,1,1.632,1.47,4.136,4.136,0,0,1,.582,2.208,4.134,4.134,0,0,1-.582,2.208,3.908,3.908,0,0,1-1.632,1.47,5.361,5.361,0,0,1-2.418.522h-3.816Zm3.72,6.8a2.824,2.824,0,0,0,2.01-.7,2.48,2.48,0,0,0,.75-1.9,2.48,2.48,0,0,0-.75-1.9,2.824,2.824,0,0,0-2.01-.7H-26.62v5.208Zm-38.682,4.3a3.5,3.5,0,0,1,1.454.279,2.161,2.161,0,0,1,.949.792,2.181,2.181,0,0,1,.333,1.215,2.186,2.186,0,0,1-.333,1.21,2.117,2.117,0,0,1-.949.792,3.548,3.548,0,0,1-1.454.275h-1.269V6028h-1.458v-6.3Zm-.081,3.375a1.531,1.531,0,0,0,1-.284.988.988,0,0,0,.342-.806,1,1,0,0,0-.342-.814,1.531,1.531,0,0,0-1-.283h-1.188v2.187Zm7.686,1.575h-2.925L-59.4,6028H-60.9l2.808-6.3h1.44l2.817,6.3h-1.53Zm-.459-1.107-1-2.412-1,2.412Zm5.841.225V6028H-52v-2.25l-2.439-4.05h1.548l1.683,2.8,1.683-2.8h1.431Zm8.73,2.232-.009-3.78-1.854,3.114h-.657l-1.845-3.033v3.7h-1.368v-6.3h1.206l2.358,3.915,2.322-3.915h1.2l.018,6.3Zm7.74-1.17V6028h-4.878v-6.3h4.761v1.17H-37.5v1.368h2.925v1.134H-37.5v1.458Zm6.939-5.13v6.3h-1.2l-3.141-3.825V6028h-1.44v-6.3H-31.7l3.132,3.825V6021.7Zm2.8,1.188h-2.016V6021.7h5.49v1.188h-2.016V6028h-1.458Z" transform="translate(1212.616 -5362.927)"/><g transform="translate(-24.364 -1.938)"><g transform="translate(1132.716 649.58)"><path class="b" d="M2390.069,3934.74H2360.43a1.817,1.817,0,0,1-1.815-1.815v-1.649h1.18v1.649a.635.635,0,0,0,.635.633h29.639a.635.635,0,0,0,.635-.633V3916.17a.636.636,0,0,0-.635-.635h-2.223v-1.18h2.223a1.817,1.817,0,0,1,1.815,1.814v16.756A1.817,1.817,0,0,1,2390.069,3934.74Z" transform="translate(-2358.615 -3914.355)"/></g><g transform="translate(1130.067 651.088)"><rect class="c" width="31.982" height="4.498" transform="translate(0)"/></g><g transform="translate(1129.364 646.515)"><path class="b" d="M2380.15,3925.569h-29.864a1.7,1.7,0,0,1-1.7-1.7v-16.98a1.7,1.7,0,0,1,1.7-1.7h29.864a1.7,1.7,0,0,1,1.7,1.7v16.98A1.7,1.7,0,0,1,2380.15,3925.569Zm-29.864-19.206a.523.523,0,0,0-.522.522v16.98a.523.523,0,0,0,.522.522h29.864a.523.523,0,0,0,.522-.522v-16.98a.523.523,0,0,0-.522-.522Z" transform="translate(-2348.584 -3905.183)"/></g></g></g></svg>