<svg xmlns="http://www.w3.org/2000/svg" width="14" height="14" viewBox="0 0 14 14"><defs><style>.a{fill:#0a83ea;}</style></defs><path class="a" d="M17.333,4.5H5.667A1.165,1.165,0,0,0,4.5,5.667V17.333A1.165,1.165,0,0,0,5.667,18.5H17.333A1.165,1.165,0,0,0,18.5,17.333V5.667A1.165,1.165,0,0,0,17.333,4.5ZM15.419,9.4l-4.874,4.9h0a.658.658,0,0,1-.423.2.638.638,0,0,1-.427-.208L7.65,12.251a.145.145,0,0,1,0-.208l.649-.649a.141.141,0,0,1,.2,0l1.619,1.619L14.57,8.532a.144.144,0,0,1,.1-.044h0a.132.132,0,0,1,.1.044l.638.66A.144.144,0,0,1,15.419,9.4Z" transform="translate(-4.5 -4.5)"/></svg>