<?xml version="1.0" encoding="utf-8"?>
<!-- Generator: Adobe Illustrator 24.1.3, SVG Export Plug-In . SVG Version: 6.00 Build 0)  -->
<svg version="1.1" id="Layer_1" xmlns="http://www.w3.org/2000/svg" xmlns:xlink="http://www.w3.org/1999/xlink" x="0px" y="0px"
	 viewBox="0 0 14.5 14.5" style="enable-background:new 0 0 14.5 14.5;" xml:space="preserve">
<style type="text/css">
	.st0{stroke:#000000;stroke-width:0.5;stroke-miterlimit:10;}
</style>
<g>
	<g>
		<path class="st0" d="M8.3,7.2L14,1.5c0.3-0.3,0.3-0.8,0-1c-0.3-0.3-0.8-0.3-1,0L7.2,6.2L1.5,0.5c-0.3-0.3-0.8-0.3-1,0
			s-0.3,0.8,0,1l5.7,5.7L0.5,13c-0.3,0.3-0.3,0.8,0,1c0.3,0.3,0.8,0.3,1,0l5.7-5.7L13,14c0.3,0.3,0.8,0.3,1,0c0.3-0.3,0.3-0.8,0-1
			L8.3,7.2z"/>
	</g>
</g>
</svg>
