<svg xmlns="http://www.w3.org/2000/svg" width="23.444" height="16.797" viewBox="0 0 23.444 16.797"><defs><style>.a{fill:none;stroke:#707070;stroke-miterlimit:10;}</style></defs><g transform="translate(10281.152 5242.956)"><g transform="translate(-11264.176 -5686.165)"><g transform="translate(983.524 443.382)"><path class="a" d="M293.019,572.79l-3.216,5.827H275.671v-1.192a4.151,4.151,0,0,1,3.964-4.315h5.436" transform="translate(-275.671 -565.979)"/><line class="a" x2="3.973" y2="10.785" transform="translate(14.593)"/><path class="a" d="M319.547,550.01h7.607a1.443,1.443,0,0,1,1.443,1.443h0a1.443,1.443,0,0,1-1.443,1.443h-2.176" transform="translate(-308.895 -549.679)"/><path class="a" d="M285.422,570.138l-1.806-7.3a2.071,2.071,0,0,0-1.922-1.688h-5.838" transform="translate(-274.844 -557.651)"/><circle class="a" cx="2.791" cy="2.791" r="2.791" transform="translate(16.863 10.311)"/><path class="a" d="M5.574.421A2.791,2.791,0,1,1,.008,0" transform="matrix(0.998, -0.07, 0.07, 0.998, 1.768, 13.089)"/></g></g></g></svg>