<svg xmlns="http://www.w3.org/2000/svg" width="101.167" height="92.306" viewBox="0 0 101.167 92.306"><defs><style>.a{fill:#2ccf7f;}.a,.b,.c{isolation:isolate;}.b{fill:#293250;}.c,.d,.e{fill:#ffd55a;}.d{font-size:6px;font-family:Montserrat-Bold, Montserrat;font-weight:700;}</style></defs><g transform="translate(0 0)"><g transform="translate(0)"><path class="a" d="M3772.455,2240.939c-33.224,21.93-60.611,50.673-76.75,78.094h5.3c16.023-27.838,43.774-57.186,77.562-79.488q9.237-6.1,18.3-11.005v-1.812A243.243,243.243,0,0,0,3772.455,2240.939Z" transform="translate(-3695.705 -2226.728)"/><path class="b" d="M3817.4,2232.29q-1.518.966-3.037,1.963c-37.468,24.592-67.722,57.127-83,86.429H3817.4Z" transform="translate(-3716.23 -2228.377)"/><path class="c" d="M3785.349,2240.325c-33.775,22.3-61.515,51.643-77.532,79.477h10.3c15.183-29.308,45.26-61.848,82.507-86.444q1.511-1,3.018-1.963v-2.073Q3794.6,2234.235,3785.349,2240.325Z" transform="translate(-3702.479 -2227.497)"/></g></g><text class="d" transform="translate(80.166 67.625)"><tspan x="-29.058" y="0">Diamond</tspan><tspan x="-31.5" y="6">Promoted</tspan></text><path class="e" d="M2363.88,2238.255l4.879-1.26-2.161-2.747-.041-.013-3.476.933Zm-8.767-3.068-3.578-.949-2.076,2.737,4.856,1.3Zm.655.037-.812,3.141h8.289l-.812-3.141Zm-.735,3.83,4.092,9.607,4.092-9.607Zm-5.113-1.247,8.232,10.22-3.855-9.051Zm10.272,10,8.074-9.979-4.3,1.109Zm2.607-13.274,2.53-.679-2.646-.819-7.2.048-2.708.771,2.558.678Z" transform="translate(-2281.086 -2191.938)"/></svg>