<svg xmlns="http://www.w3.org/2000/svg" width="109.016" height="91.651" viewBox="0 0 109.016 91.651"><defs><style>.a{fill:#fbd436;}.a,.b,.c{isolation:isolate;}.b{fill:#2ccf7f;}.c,.d,.e{fill:#293250;}.d{font-size:8px;font-family:Montserrat-Bold, Montserrat;font-weight:700;}</style></defs><g transform="translate(-43.764 4.205)"><g transform="translate(35.032 -4.205)"><path class="a" d="M3778.41,2240.838c-35.8,21.775-65.314,50.313-82.706,77.54h5.713c17.266-27.64,47.171-56.78,83.58-78.924q9.954-6.053,19.723-10.927v-1.8A268.287,268.287,0,0,0,3778.41,2240.838Z" transform="translate(-3686.973 -2226.728)"/><path class="b" d="M3824.072,2232.29q-1.634.959-3.273,1.949c-40.375,24.417-72.977,56.722-89.436,85.816h92.708Z" transform="translate(-3706.325 -2228.405)"/><path class="c" d="M3791.365,2240.247c-36.4,22.142-66.288,51.277-83.548,78.913h11.1c16.362-29.1,48.772-61.409,88.909-85.831q1.628-.991,3.253-1.949v-2.059Q3801.338,2234.2,3791.365,2240.247Z" transform="translate(-3693.333 -2227.509)"/></g><text class="d" transform="translate(139.479 64.766)"><tspan x="-35.128" y="0">Emerald</tspan><tspan x="-42" y="8">Promoted</tspan></text><path class="e" d="M3165.746,2205l-2.769,1.391,3.229,3.016,1.367-2.842Zm2.54,1.882-1.352,2.811h7.767l-1.353-2.811Zm-.683-14.427-1.371-2.85-3.2,2.992,2.721,1.522Zm6.458,14.11,1.405,2.919,3.27-3.054-2.848-1.43Zm2.207-11.768v9.521l2.7,1.356v-12.388Zm-2.958-2.642,1.352-2.811h-7.69l1.352,2.811Zm-7.943,2.642-2.582-1.444v12.261l2.582-1.3Zm2.87-1.863-2.09,1.878v9.505l2.084,1.785h5.172l2.085-1.785v-9.505l-2.09-1.878Zm7.646,1.185,2.8-1.564-3.24-3.027-1.408,2.927Z" transform="translate(-3040.006 -2155.174)"/></g></svg>