<svg xmlns="http://www.w3.org/2000/svg" width="344.407" height="273.879" viewBox="0 0 344.407 273.879"><defs><style>.a{fill:#f2f4fa;}.b,.c,.d,.f,.g{fill:#fff;}.b,.c,.d,.e,.f,.g,.h,.i{stroke:#c0c6d9;}.b{stroke-miterlimit:10;}.c,.h,.i{stroke-miterlimit:10;}.e{fill:#c0c6d3;}.f{stroke-miterlimit:9.998;}.g{stroke-miterlimit:10.001;}.h,.i{fill:none;}.i{stroke-width:0.734px;}</style></defs><g transform="translate(0.702)"><path class="a" d="M126.712,0A126.712,126.712,0,1,1,0,126.712,126.712,126.712,0,0,1,126.712,0Z" transform="translate(52.145 0)"/><rect class="b" width="10.332" height="61.17" transform="matrix(1, -0.014, 0.014, 1, 99.121, 122.649)"/><path class="c" d="M547.9,1076.565H471.912L459.483,933.144H560.332Z" transform="translate(-303.63 -812.774)"/><g transform="translate(206.239 50.808)"><path class="d" d="M504.457,916.364l-.587-.248-3.469-1.47-.584-.248.246-.583,13.2-31.386.136-.321.343-.059,17.741-3,.626-.105.107.626.629,3.714.107.626-.626.107-15.362,2.6L504.7,915.778Z" transform="translate(-498.987 -878.208)"/><path class="e" d="M504.294,915.687l12.4-29.485,15.706-2.659-.63-3.716-17.741,3-13.2,31.386,3.469,1.469m.677,1.666-1.172-.5-3.469-1.471-1.167-.494.491-1.167,13.2-31.386.271-.643.688-.117,17.74-3,1.252-.212.212,1.252.628,3.716.212,1.252-1.252.212-15.017,2.542L505.465,916.18Z" transform="translate(-499.163 -878.363)"/></g><g transform="translate(12.668 105.53)"><path class="f" d="M364.571,988.263l-9.893,2.976s-12.5-51.589-6.159-67.468c1.01-2.528,11.592-2.352,10.886.278C349.974,959.175,364.571,988.263,364.571,988.263Z" transform="translate(-346.723 -921.318)"/><path class="c" d="M421.2,989.422l-11.542,4.5,26.3-66.384,9.582,3.866Z" transform="translate(-329.741 -919.815)"/><rect class="c" width="61.171" height="10.333" transform="translate(60.685 56.025) rotate(-66.331)"/><path class="f" d="M406.645,994.353l-8.832-5.36s29.968-43.815,46.013-49.726c2.555-.941,9.506,7.041,7.079,8.276C418.491,964.039,406.645,994.353,406.645,994.353Z" transform="translate(-332.938 -916.672)"/><rect class="c" width="61.171" height="10.333" transform="translate(56.285 65.09) rotate(-82.04)"/><rect class="c" width="61.171" height="10.333" transform="translate(61.063 74.912) rotate(-68.778)"/><rect class="c" width="61.171" height="10.333" transform="translate(26.068 62.335) rotate(-68.588)"/></g><path class="g" d="M356.785,926.77l10.333-.134,2.481,83.3-12.018-21.994Z" transform="translate(-331.34 -814.53)"/><path class="c" d="M336.747,938.5l9.081-4.929,33.118,67.459L376.7,1003.6Z" transform="translate(-336.747 -812.659)"/><rect class="c" width="10.333" height="61.171" transform="translate(42.399 105.106) rotate(-2.447)"/><rect class="c" width="10.333" height="61.171" transform="matrix(0.963, -0.271, 0.271, 0.963, 28.063, 128.428)"/><path class="c" d="M388.835,935.155l10.057,2.37-18.672,74.052L374.8,994.7Z" transform="translate(-326.479 -812.231)"/><rect class="c" width="10.333" height="61.171" transform="translate(43.216 129.907)"/><rect class="b" width="10.332" height="61.169" transform="translate(73.25 133.444) rotate(-10.254)"/><rect class="c" width="10.333" height="61.171" transform="translate(58.488 147.486) rotate(-23.529)"/><path class="c" d="M437.756,960.595c0,17.27-17.765,31.264-39.678,31.264s-39.678-14-39.678-31.264H347.653l12.429,103.6h76l12.429-103.6Z" transform="translate(-333.805 -805.367)"/><path class="h" d="M472.931,1005.048l-4.8-71.9" transform="translate(-301.298 -812.774)"/><path class="h" d="M474.593,1030.986l-4.8-71.9" transform="translate(-300.849 -805.775)"/><rect class="c" width="77.163" height="20.115" transform="translate(167.695 87.03)"/><rect class="c" width="113.8" height="20.115" transform="translate(149.377 103.012)"/><path class="h" d="M459.64,931.812l-.158-7.9h102.91" transform="translate(-303.631 -815.266)"/><path class="h" d="M473.607,918.511l-.158-7.9h52.238" transform="translate(-299.862 -818.855)"/><line class="h" x2="3.941" transform="translate(233.425 91.752)"/><path class="c" d="M615.147,1057.713V1019.8h8.717a52.57,52.57,0,0,0-52.562-51.83h0a52.571,52.571,0,0,0-52.557,51.386h7.982v38.348h-7.992c.084,6.149,0,20.288,11.257,18.956h82.62c7.855.444,10.933-13.014,11.246-18.956Z" transform="translate(-287.643 -803.376)"/><line class="h" x2="104.254" transform="translate(230.793 254.337)"/><line class="h" x2="88.419" y2="0.444" transform="translate(239.086 215.983)"/><path class="c" d="M516.74,1014.737H629.026a3.772,3.772,0,0,1,3.709,4.482l-1.429,7.514-19.992-5.333-17.322,15.55-4.444-18.214-10.218,11.555L560.671,1018.3s-11.556,1.333-11.995,8-15.994,3.11-15.994,3.11l-5.775-7.552-15.111,14.66s-.207-9.548-.3-16.449a5.245,5.245,0,0,1,5.161-5.327Z" transform="translate(-289.597 -790.758)"/><line class="h" x2="63.529" transform="translate(240.862 245.305)"/><ellipse class="c" cx="15.085" cy="15.085" rx="15.085" ry="15.085" transform="translate(187.855 165.837)"/><ellipse class="c" cx="15.085" cy="15.085" rx="15.085" ry="15.085" transform="translate(49.188 205.515)"/><path class="c" d="M383.212,1021.31H525.094v34.966a3.224,3.224,0,0,1-3.224,3.224H386.436a3.224,3.224,0,0,1-3.224-3.224V1021.31Z" transform="translate(-324.21 -788.985)"/><path class="c" d="M531.878,1031.944H378.809l3.394-9.433a7.82,7.82,0,0,1,7.356-5.172H521.126a7.817,7.817,0,0,1,7.356,5.172Z" transform="translate(-325.398 -790.056)"/><line class="h" x2="34.469" transform="translate(142.212 255.326)"/><path class="i" d="M568.538,974.472a38.6,38.6,0,0,0-38.587,37.727" transform="translate(-284.617 -801.622)"/><path class="i" d="M535.127,1004.183h20.226" transform="translate(-283.22 -793.606)"/><path class="i" d="M554.248,1004.183h3.969" transform="translate(-278.061 -793.606)"/><path class="i" d="M535.127,1043.755h20.226" transform="translate(-283.22 -782.928)"/><path class="i" d="M554.248,1043.755h3.969" transform="translate(-278.061 -782.928)"/><path class="c" d="M386.149,1024.634h41.239" transform="translate(-323.418 -788.088)"/><path class="c" d="M425.135,1024.634h8.091" transform="translate(-312.898 -788.088)"/></g></svg>