<svg xmlns="http://www.w3.org/2000/svg" width="200.484" height="159.238" viewBox="0 0 200.484 159.238"><defs><style>.a{fill:#f2f4fa;}.b,.c,.e,.f{fill:#fff;}.b,.c,.e,.f,.g,.h{stroke:#c0c6d9;}.b{stroke-miterlimit:10;}.c,.g,.h{stroke-miterlimit:10;}.d{fill:#c0c6d3;}.e{stroke-miterlimit:9.998;}.f{stroke-miterlimit:10.001;}.g,.h{fill:none;}.h{stroke-width:0.734px;}</style></defs><g transform="translate(-1017.199 -476.875)"><g transform="translate(681.153 -361.476)"><path class="a" d="M73.575,0A73.575,73.575,0,1,1,0,73.575,73.575,73.575,0,0,1,73.575,0Z" transform="translate(367.025 838.351)"/><rect class="b" width="5.999" height="35.518" transform="matrix(1, -0.014, 0.014, 1, 394.302, 909.567)"/><path class="c" d="M510.821,1016.422H466.7l-7.217-83.278h58.558l-1.332,15.365Z" transform="translate(-32.24 -24.9)"/><g transform="translate(456.5 867.853)"><path class="d" d="M502.143,900.035l7.2-17.121,9.12-1.544-.366-2.157-10.3,1.745-7.667,18.224,2.014.853m.393.967-.681-.288-2.014-.854-.678-.287.285-.678,7.667-18.224.157-.373.4-.068,10.3-1.744.727-.123.123.727.365,2.157.123.727-.727.123-8.72,1.476-7.043,16.748Z" transform="translate(-499.163 -878.363)"/></g><g transform="translate(344.103 899.627)"><path class="e" d="M357.087,960.464l-5.744,1.728s-7.26-29.955-3.576-39.175c.586-1.468,6.731-1.366,6.321.161A57.1,57.1,0,0,0,357.087,960.464Z" transform="translate(-346.723 -921.592)"/><path class="c" d="M416.365,963.472l-6.7,2.615,15.269-38.546,5.564,2.245Z" transform="translate(-363.256 -923.055)"/><rect class="c" width="35.519" height="6" transform="translate(35.237 32.531) rotate(-66.331)"/><path class="e" d="M402.941,971.22l-5.128-3.112s17.4-25.441,26.718-28.874c1.483-.546,5.52,4.089,4.111,4.805A57.1,57.1,0,0,0,402.941,971.22Z" transform="translate(-360.143 -926.115)"/><rect class="c" width="35.519" height="6" transform="translate(32.682 37.795) rotate(-82.04)"/><rect class="c" width="35.519" height="6" transform="translate(35.456 43.498) rotate(-68.778)"/><rect class="c" width="35.519" height="6" transform="translate(15.137 36.195) rotate(-68.588)"/></g><path class="f" d="M356.785,926.713l6-.078L364.225,975l-6.978-12.771Z" transform="translate(-5.263 -23.19)"/><path class="c" d="M336.747,936.43l5.273-2.862,19.23,39.17-1.305,1.5Z" transform="translate(0 -25.011)"/><rect class="c" width="6" height="35.519" transform="translate(361.367 899.381) rotate(-2.447)"/><rect class="c" width="6" height="35.519" transform="matrix(0.963, -0.271, 0.271, 0.963, 353.042, 912.923)"/><path class="c" d="M382.95,935.155l5.84,1.376-10.842,43-3.146-9.8Z" transform="translate(-9.996 -25.428)"/><rect class="c" width="6" height="35.519" transform="translate(361.841 913.782)"/><rect class="b" width="5.999" height="35.518" transform="translate(379.28 915.835) rotate(-10.254)"/><rect class="c" width="6" height="35.519" transform="translate(370.708 923.989) rotate(-23.529)"/><path class="c" d="M399.971,960.595c0,10.028-10.315,18.154-23.039,18.154s-23.039-8.128-23.039-18.154h-6.24l7.217,60.158H399l7.217-60.158Z" transform="translate(-2.865 -32.111)"/><path class="g" d="M470.918,974.9l-2.789-41.751" transform="translate(-34.511 -24.9)"/><path class="g" d="M472.58,1000.833l-2.789-41.751" transform="translate(-34.947 -31.713)"/><rect class="c" width="44.805" height="11.68" transform="translate(434.12 888.885)"/><rect class="c" width="66.078" height="11.68" transform="translate(423.483 898.165)"/><path class="g" d="M459.574,928.5l-.092-4.59h59.755" transform="translate(-32.239 -22.474)"/><path class="g" d="M473.541,915.2l-.092-4.59h30.332" transform="translate(-35.908 -18.98)"/><line class="g" x2="2.288" transform="translate(472.286 891.627)"/><path class="c" d="M574.717,1020.081V998.07h5.062a30.525,30.525,0,0,0-30.52-30.1h0a30.525,30.525,0,0,0-30.517,29.837h4.635v22.267h-4.641c.049,3.57,0,11.78,6.536,11.007h47.973c4.561.258,6.348-7.557,6.53-11.007Z" transform="translate(-47.804 -34.049)"/><line class="g" x2="60.535" transform="translate(470.757 986.032)"/><line class="g" x2="51.341" y2="0.258" transform="translate(475.573 963.762)"/><path class="c" d="M514.539,1014.737h65.2a2.19,2.19,0,0,1,2.154,2.6l-.829,4.363-11.608-3.1-10.058,9.029-2.581-10.576-5.933,6.709-10.834-6.965s-6.71.774-6.965,4.645-9.287,1.806-9.287,1.806l-3.353-4.385-8.774,8.512s-.12-5.544-.177-9.551a3.045,3.045,0,0,1,3-3.093Z" transform="translate(-45.901 -46.333)"/><line class="g" x2="36.888" transform="translate(476.604 980.787)"/><circle class="c" cx="8.759" cy="8.759" r="8.759" transform="translate(445.826 934.644)"/><circle class="c" cx="8.759" cy="8.759" r="8.759" transform="translate(365.308 957.683)"/><path class="c" d="M383.212,1021.31H465.6v20.3a1.872,1.872,0,0,1-1.872,1.872h-78.64a1.872,1.872,0,0,1-1.872-1.872v-20.3Z" transform="translate(-12.205 -48.059)"/><path class="c" d="M467.689,1025.82h-88.88l1.971-5.477a4.54,4.54,0,0,1,4.271-3h76.394a4.539,4.539,0,0,1,4.271,3Z" transform="translate(-11.049 -47.016)"/><line class="g" x2="20.015" transform="translate(419.323 986.606)"/><path class="h" d="M552.357,974.472a22.412,22.412,0,0,0-22.406,21.907" transform="translate(-50.75 -35.756)"/><path class="h" d="M535.127,1004.183h11.744" transform="translate(-52.11 -43.56)"/><path class="h" d="M554.248,1004.183h2.3" transform="translate(-57.132 -43.56)"/><path class="h" d="M535.127,1043.755h11.744" transform="translate(-52.11 -53.955)"/><path class="h" d="M554.248,1043.755h2.3" transform="translate(-57.132 -53.955)"/><path class="c" d="M386.149,1024.634h23.945" transform="translate(-12.977 -48.932)"/><path class="c" d="M425.135,1024.634h4.7" transform="translate(-23.217 -48.932)"/></g></g></svg>