<svg xmlns="http://www.w3.org/2000/svg" viewBox="0 0 1311.17 162.61"><defs><style>.cls-1{fill:#fbd436;}.cls-2{isolation:isolate;}.cls-3{fill:#283350;}</style></defs><g id="Layer_2" data-name="Layer 2"><g id="Layer_1-2" data-name="Layer 1"><g id="famous"><path id="Path_4738" data-name="Path 4738" class="cls-1" d="M397.28,124.55a171.91,171.91,0,0,1-53.74,31.59h0a166.57,166.57,0,0,1-99.45-2.36,212.2,212.2,0,0,1-31.58-13.67,10.09,10.09,0,0,1-5.95-13c.09-.23.19-.46.29-.69a10.38,10.38,0,0,1,14.5-2.34c.2.14.39.3.59.46.47,0,.47,0,.94.47a145.63,145.63,0,0,0,63.16,24c38.65,5.19,82.48-10.37,109.82-26.87a2.08,2.08,0,0,1,2.36.47A1.88,1.88,0,0,1,397.28,124.55Z"/><g id="Famous_Restaurants" data-name="Famous Restaurants" class="cls-2"><g class="cls-2"><path class="cls-3" d="M19.89,16V38.68H59.67v16H19.89V86H0V0H65V16Z"/><path class="cls-3" d="M125.48,26.21q8.22,7.31,8.23,22V86H115.78V77.72q-5.4,9.21-20.13,9.21a31.21,31.21,0,0,1-13.2-2.58,19.7,19.7,0,0,1-8.54-7.12A18.58,18.58,0,0,1,71,66.91q0-9.19,6.94-14.48t21.42-5.28h15.22q0-6.27-3.8-9.64T99.33,34.13A33.24,33.24,0,0,0,89,35.79a27.4,27.4,0,0,0-8.65,4.48L73.42,26.89a41.4,41.4,0,0,1,13-5.89,57.78,57.78,0,0,1,15.54-2.09Q117.26,18.91,125.48,26.21ZM109.15,71.77a12.44,12.44,0,0,0,5.4-6.69V58.32H101.41q-11.77,0-11.78,7.73a6.9,6.9,0,0,0,2.88,5.84Q95.41,74,100.44,74A16.71,16.71,0,0,0,109.15,71.77Z"/><path class="cls-3" d="M255.32,26.21q7.31,7.31,7.31,21.92V86H243.47V51.08q0-7.86-3.25-11.73T231,35.48q-6.75,0-10.68,4.36t-3.93,13V86H197.19V51.08q0-15.6-12.53-15.6a13.54,13.54,0,0,0-10.56,4.36q-3.93,4.36-3.93,13V86H151V19.89h18.29V27.5a24.22,24.22,0,0,1,9-6.38,30.24,30.24,0,0,1,11.72-2.21,28.44,28.44,0,0,1,12.65,2.76,22.38,22.38,0,0,1,9.08,8,27.19,27.19,0,0,1,10.26-8,32.34,32.34,0,0,1,13.56-2.82Q248,18.91,255.32,26.21Z"/><path class="cls-3" d="M293.26,82.57a32.42,32.42,0,0,1-12.95-12.09,33.34,33.34,0,0,1-4.67-17.56,33.34,33.34,0,0,1,4.67-17.56,32.35,32.35,0,0,1,12.95-12.09,42.26,42.26,0,0,1,37.39,0,32.45,32.45,0,0,1,12.89,12.09,33.34,33.34,0,0,1,4.66,17.56,33.34,33.34,0,0,1-4.66,17.56,32.52,32.52,0,0,1-12.89,12.09,42.26,42.26,0,0,1-37.39,0Zm30.82-16.33q4.73-5,4.73-13.32T324.08,39.6a15.93,15.93,0,0,0-12.09-5,16.13,16.13,0,0,0-12.16,5q-4.79,5-4.79,13.32t4.79,13.32a16.12,16.12,0,0,0,12.16,5A15.92,15.92,0,0,0,324.08,66.24Z"/><path class="cls-3" d="M427.52,19.89V86H409.35V78.09a25.45,25.45,0,0,1-9.09,6.57,28.59,28.59,0,0,1-11.41,2.27q-13,0-20.63-7.49t-7.61-22.22V19.89h19.15v34.5q0,16,13.38,16a14.42,14.42,0,0,0,11.06-4.49q4.17-4.47,4.17-13.32V19.89Z"/><path class="cls-3" d="M451.47,84.9a42.21,42.21,0,0,1-12.53-5.09l6.39-13.76A39.55,39.55,0,0,0,456,70.66a44.63,44.63,0,0,0,12.27,1.78q12.17,0,12.16-6c0-1.89-1.1-3.24-3.32-4.06a48.8,48.8,0,0,0-10.19-2.08,97.57,97.57,0,0,1-13.38-2.83,20.67,20.67,0,0,1-9.15-5.65q-3.86-4.05-3.86-11.54a18,18,0,0,1,3.62-11.11,23.28,23.28,0,0,1,10.56-7.55,45.1,45.1,0,0,1,16.39-2.7,64.64,64.64,0,0,1,13.94,1.53,39.23,39.23,0,0,1,11.48,4.24l-6.39,13.63a38.17,38.17,0,0,0-19-4.91q-6.15,0-9.21,1.72c-2,1.14-3.07,2.62-3.07,4.42,0,2,1.1,3.48,3.31,4.29a59.14,59.14,0,0,0,10.56,2.34A113.7,113.7,0,0,1,486,49.05a20,20,0,0,1,9,5.59c2.53,2.7,3.81,6.46,3.81,11.3a17.4,17.4,0,0,1-3.69,10.92,23.47,23.47,0,0,1-10.74,7.43,47.86,47.86,0,0,1-16.76,2.64A64.08,64.08,0,0,1,451.47,84.9Z"/><path class="cls-3" d="M601.38,86,584.8,62H566.51V86H546.62V0h37.2a47.89,47.89,0,0,1,19.83,3.8,29.5,29.5,0,0,1,13,10.81,29.77,29.77,0,0,1,4.55,16.58,29.16,29.16,0,0,1-4.61,16.51,29.11,29.11,0,0,1-13.08,10.62L622.74,86Zm-5-65.87q-4.68-3.87-13.63-3.87H566.51v30h16.21q9,0,13.63-3.93t4.66-11Q601,23.95,596.35,20.08Z"/><path class="cls-3" d="M699.85,58.32h-50a15.55,15.55,0,0,0,6.39,9.7,21.09,21.09,0,0,0,12.52,3.56,25.44,25.44,0,0,0,9.15-1.53,22.35,22.35,0,0,0,7.43-4.85l10.19,11q-9.33,10.68-27.26,10.68a43.07,43.07,0,0,1-19.77-4.36,31.94,31.94,0,0,1-13.26-12.09,33.34,33.34,0,0,1-4.66-17.56,33.76,33.76,0,0,1,4.6-17.5,32.14,32.14,0,0,1,12.65-12.15,39.16,39.16,0,0,1,35.54-.19,30.53,30.53,0,0,1,12.34,12,35.64,35.64,0,0,1,4.48,18.11C700.21,53.41,700.09,55.13,699.85,58.32ZM655,37.08a15.65,15.65,0,0,0-5.4,10.07h32.53a15.8,15.8,0,0,0-5.4-10A16.13,16.13,0,0,0,666,33.4,16.48,16.48,0,0,0,655,37.08Z"/><path class="cls-3" d="M719.12,84.9a42.13,42.13,0,0,1-12.52-5.09L713,66.05a39.76,39.76,0,0,0,10.69,4.61A44.59,44.59,0,0,0,736,72.44q12.15,0,12.15-6,0-2.84-3.31-4.06a48.92,48.92,0,0,0-10.2-2.08,97.57,97.57,0,0,1-13.38-2.83,20.67,20.67,0,0,1-9.15-5.65q-3.85-4.05-3.86-11.54a18,18,0,0,1,3.62-11.11,23.28,23.28,0,0,1,10.56-7.55,45.06,45.06,0,0,1,16.39-2.7,64.41,64.41,0,0,1,13.93,1.53,39.12,39.12,0,0,1,11.48,4.24L757.8,38.31a38.17,38.17,0,0,0-19-4.91q-6.15,0-9.21,1.72c-2,1.14-3.07,2.62-3.07,4.42,0,2,1.11,3.48,3.32,4.29a58.51,58.51,0,0,0,10.56,2.34,113.25,113.25,0,0,1,13.25,2.88,20,20,0,0,1,9,5.59q3.81,4.05,3.8,11.3a17.39,17.39,0,0,1-3.68,10.92A23.58,23.58,0,0,1,752,84.29a47.9,47.9,0,0,1-16.76,2.64A64.22,64.22,0,0,1,719.12,84.9Z"/><path class="cls-3" d="M820.78,82.75a19.58,19.58,0,0,1-6.93,3.14,35.42,35.42,0,0,1-8.66,1q-11.79,0-18.23-6t-6.45-17.68V36.1H770.32V21.36h10.19V5.28h19.16V21.36h16.45V36.1H799.67V63a9,9,0,0,0,2.15,6.44,7.92,7.92,0,0,0,6.07,2.27,12.3,12.3,0,0,0,7.74-2.45Z"/><path class="cls-3" d="M881.81,26.21q8.22,7.31,8.22,22V86H872.11V77.72Q866.7,86.93,852,86.93a31.27,31.27,0,0,1-13.2-2.58,19.67,19.67,0,0,1-8.53-7.12,18.51,18.51,0,0,1-3-10.32q0-9.19,6.94-14.48t21.42-5.28h15.23q0-6.27-3.81-9.64t-11.42-3.38a33.13,33.13,0,0,0-10.37,1.66,27.35,27.35,0,0,0-8.66,4.48l-6.87-13.38a41.4,41.4,0,0,1,13-5.89,57.71,57.71,0,0,1,15.53-2.09Q873.58,18.91,881.81,26.21ZM865.48,71.77a12.53,12.53,0,0,0,5.4-6.69V58.32H857.74Q846,58.32,846,66.05a6.91,6.91,0,0,0,2.89,5.84Q851.72,74,856.76,74A16.75,16.75,0,0,0,865.48,71.77Z"/><path class="cls-3" d="M973.89,19.89V86H955.72V78.09a25.45,25.45,0,0,1-9.09,6.57,28.62,28.62,0,0,1-11.41,2.27q-13,0-20.63-7.49T907,57.22V19.89h19.15v34.5q0,16,13.38,16a14.39,14.39,0,0,0,11-4.49q4.19-4.47,4.18-13.32V19.89Z"/><path class="cls-3" d="M1019.26,21.36a34.54,34.54,0,0,1,13.44-2.45V36.59c-2.13-.16-3.56-.25-4.29-.25q-8.24,0-12.9,4.61t-4.66,13.81V86H991.7V19.89H1010v8.72A21.33,21.33,0,0,1,1019.26,21.36Z"/><path class="cls-3" d="M1094,26.21q8.22,7.31,8.23,22V86h-17.93V77.72q-5.4,9.21-20.13,9.21a31.21,31.21,0,0,1-13.2-2.58,19.7,19.7,0,0,1-8.54-7.12,18.58,18.58,0,0,1-2.94-10.32q0-9.19,6.94-14.48t21.42-5.28H1083q0-6.27-3.8-9.64t-11.42-3.38a33.24,33.24,0,0,0-10.38,1.66,27.4,27.4,0,0,0-8.65,4.48l-6.88-13.38A41.4,41.4,0,0,1,1054.86,21a57.78,57.78,0,0,1,15.54-2.09Q1085.75,18.91,1094,26.21Zm-16.33,45.56a12.44,12.44,0,0,0,5.4-6.69V58.32H1069.9q-11.78,0-11.78,7.73a6.9,6.9,0,0,0,2.88,5.84q2.89,2.14,7.93,2.15A16.71,16.71,0,0,0,1077.64,71.77Z"/><path class="cls-3" d="M1179.49,26.27q7.54,7.38,7.55,21.86V86h-19.15V51.08q0-7.86-3.44-11.73t-10-3.87q-7.24,0-11.54,4.48t-4.3,13.33V86h-19.15V19.89h18.29v7.74a25.28,25.28,0,0,1,9.46-6.45,32.81,32.81,0,0,1,12.4-2.27Q1171.93,18.91,1179.49,26.27Z"/><path class="cls-3" d="M1247,82.75a19.71,19.71,0,0,1-6.94,3.14,35.36,35.36,0,0,1-8.66,1q-11.77,0-18.23-6t-6.45-17.68V36.1H1196.5V21.36h10.18V5.28h19.16V21.36h16.45V36.1h-16.45V63a9,9,0,0,0,2.14,6.44,8,8,0,0,0,6.09,2.27,12.25,12.25,0,0,0,7.72-2.45Z"/><path class="cls-3" d="M1263.9,84.9a42.21,42.21,0,0,1-12.53-5.09l6.39-13.76a39.55,39.55,0,0,0,10.68,4.61,44.64,44.64,0,0,0,12.28,1.78q12.15,0,12.15-6,0-2.84-3.31-4.06a48.94,48.94,0,0,0-10.19-2.08A97.42,97.42,0,0,1,1266,57.46a20.72,20.72,0,0,1-9.15-5.65Q1253,47.76,1253,40.27a18.11,18.11,0,0,1,3.62-11.11,23.33,23.33,0,0,1,10.56-7.55,45.1,45.1,0,0,1,16.39-2.7,64.57,64.57,0,0,1,13.94,1.53A39.23,39.23,0,0,1,1309,24.68l-6.39,13.63a38.14,38.14,0,0,0-19-4.91q-6.13,0-9.21,1.72c-2,1.14-3.07,2.62-3.07,4.42,0,2,1.11,3.48,3.32,4.29a58.72,58.72,0,0,0,10.56,2.34,113.94,113.94,0,0,1,13.26,2.88,20,20,0,0,1,9,5.59q3.81,4.05,3.81,11.3a17.4,17.4,0,0,1-3.69,10.92,23.47,23.47,0,0,1-10.74,7.43A47.86,47.86,0,0,1,1280,86.93,64.14,64.14,0,0,1,1263.9,84.9Z"/></g></g></g></g></g></svg>