<svg xmlns="http://www.w3.org/2000/svg" width="24.939" height="24.902" viewBox="0 0 24.939 24.902"><defs><style>.a{fill:#d9dade;}</style></defs><path class="a" d="M184.65,44.582a12.47,12.47,0,0,0-2.895,24.6v-8.83h-1.829V57.082h1.829V54.967a3.623,3.623,0,0,1,2.474-3.692,4.9,4.9,0,0,1,1.407-.189l2.832.013.016.016v3.155h-2.067a.781.781,0,0,0-.814.89v1.923h2.929l-.336,3.27H185.6v9.133a12.443,12.443,0,0,0,11.293-10.057A12.482,12.482,0,0,0,184.65,44.582Z" transform="translate(-172.181 -44.582)"/></svg>