<svg xmlns="http://www.w3.org/2000/svg" width="21.565" height="22" viewBox="0 0 21.565 22"><defs><style>.a{fill:#4285f4;}.b{fill:#34a853;}.c{fill:#fbbc04;}.d{fill:#ea4335;}</style></defs><g transform="translate(-942.18 -718.126)"><path class="a" d="M969.477,734.079a12.977,12.977,0,0,0-.19-2.235H958.912v4.236h5.941a5.091,5.091,0,0,1-2.2,3.342v2.749H966.2a10.743,10.743,0,0,0,3.278-8.091Z" transform="translate(-5.733 -4.7)"/><path class="b" d="M953.789,746.957a10.529,10.529,0,0,0,7.291-2.655l-3.545-2.749a6.671,6.671,0,0,1-9.918-3.487H943.96V740.9A11,11,0,0,0,953.789,746.957Z" transform="translate(-0.61 -6.831)"/><path class="c" d="M947,734.395a6.6,6.6,0,0,1,0-4.212V727.35H943.35a11,11,0,0,0,0,9.877Z" transform="translate(0 -3.16)"/><path class="d" d="M953.789,722.48a5.977,5.977,0,0,1,4.219,1.649l3.14-3.14a10.573,10.573,0,0,0-7.36-2.862,11,11,0,0,0-9.829,6.063l3.653,2.833A6.58,6.58,0,0,1,953.789,722.48Z" transform="translate(-0.61 0)"/></g></svg>