<svg xmlns="http://www.w3.org/2000/svg" width="138.378" height="40" viewBox="0 0 138.378 40"><defs><style>.a{fill:#333;}.b{fill:#fff;}</style></defs><g transform="translate(-122.699 -81.063)"><rect class="a" width="138.378" height="40" rx="4" transform="translate(122.699 81.063)"/><g transform="translate(167.124 88.365)"><path class="b" d="M160.832,90.284a3.982,3.982,0,1,0,4,3.982A3.923,3.923,0,0,0,160.832,90.284Zm0,6.4a2.419,2.419,0,1,1,2.25-2.413A2.307,2.307,0,0,1,160.832,96.68Zm-8.715-6.4a3.982,3.982,0,1,0,4,3.982A3.923,3.923,0,0,0,152.117,90.284Zm0,6.4a2.42,2.42,0,1,1,2.246-2.413A2.3,2.3,0,0,1,152.117,96.68Zm-10.37-5.174V93.2h4.041a3.517,3.517,0,0,1-.922,2.125,4.12,4.12,0,0,1-3.119,1.238,4.493,4.493,0,0,1,0-8.986,4.307,4.307,0,0,1,3.046,1.2l1.189-1.189a5.877,5.877,0,0,0-4.236-1.7,6.184,6.184,0,1,0,0,12.366,5.654,5.654,0,0,0,4.312-1.735,5.581,5.581,0,0,0,1.464-3.95,5.334,5.334,0,0,0-.094-1.057Zm42.408,1.314a3.7,3.7,0,0,0-3.408-2.535,3.784,3.784,0,0,0-3.756,3.982,3.9,3.9,0,0,0,3.95,3.982,3.951,3.951,0,0,0,3.318-1.767l-1.356-.9a2.274,2.274,0,0,1-1.961,1.1,2.023,2.023,0,0,1-1.93-1.207l5.324-2.2Zm-5.428,1.325a2.184,2.184,0,0,1,2.08-2.323,1.54,1.54,0,0,1,1.478.845ZM174.4,98h1.749V86.3H174.4Zm-2.865-6.83h-.059a2.763,2.763,0,0,0-2.1-.89,3.985,3.985,0,0,0,0,7.963,2.712,2.712,0,0,0,2.1-.908h.059v.574c0,1.523-.814,2.337-2.125,2.337a2.2,2.2,0,0,1-2.006-1.415l-1.523.633a3.8,3.8,0,0,0,3.53,2.351c2.052,0,3.784-1.207,3.784-4.145v-7.15h-1.659Zm-2,5.5a2.422,2.422,0,0,1,0-4.827,2.433,2.433,0,0,1,0,4.827ZM192.348,86.3h-4.183V98h1.746V93.571h2.438a3.639,3.639,0,1,0,0-7.268Zm.045,5.64H189.91v-4.01h2.483a2.005,2.005,0,1,1,0,4.01Zm10.794-1.68a3.277,3.277,0,0,0-3.116,1.791l1.551.647a1.654,1.654,0,0,1,1.6-.859,1.684,1.684,0,0,1,1.836,1.506v.122a3.866,3.866,0,0,0-1.822-.452c-1.673,0-3.373.918-3.373,2.636a2.7,2.7,0,0,0,2.907,2.573,2.462,2.462,0,0,0,2.226-1.144h.063v.9h1.687V93.5C206.741,91.422,205.19,90.264,203.187,90.264Zm-.212,6.412c-.57,0-1.37-.285-1.37-.995,0-.9.995-1.248,1.854-1.248a3.106,3.106,0,0,1,1.6.393A2.12,2.12,0,0,1,202.975,96.676Zm9.907-6.159-2,5.074h-.059l-2.08-5.074H206.86l3.116,7.091-1.773,3.947h1.819l4.8-11.038ZM197.151,98H198.9V86.3h-1.746Z" transform="translate(-135.474 -76.427)"/><path class="b" d="M139.693,84.387a2.008,2.008,0,0,0-1.328-.511,2.116,2.116,0,0,0,0,4.229,1.6,1.6,0,0,0,1.76-1.488h-1.565v-.647h2.413c0,1.933-1.033,2.845-2.608,2.845a2.826,2.826,0,0,1,0-5.651,2.718,2.718,0,0,1,1.864.73Z" transform="translate(-135.197 -83.163)"/><path class="b" d="M140.685,83.182v.7h-2.514v1.756h2.2v.7h-2.2v1.662h2.594v.7h-3.338v-5.5Z" transform="translate(-130.635 -83.116)"/><path class="b" d="M142.664,83.182v.7h-1.669v4.8h-.751v-4.8h-1.669v-.7Z" transform="translate(-127.794 -83.116)"/><path class="b" d="M141.306,83.182v5.5h-.744v-5.5Z" transform="translate(-122.869 -83.116)"/><path class="b" d="M145.149,83.182v.7H143.48v4.8h-.751v-4.8h-1.673v-.7Z" transform="translate(-121.645 -83.116)"/><path class="b" d="M145.723,83.163a2.826,2.826,0,1,1-2.782,2.831A2.793,2.793,0,0,1,145.723,83.163Zm0,4.931a2.107,2.107,0,1,0-2.038-2.1A2.05,2.05,0,0,0,145.723,88.094Z" transform="translate(-116.975 -83.163)"/><path class="b" d="M148.125,88.687l-2.507-4.145v4.145h-.744v-5.5h.737l2.483,4.114V83.182h.744v5.5Z" transform="translate(-112.186 -83.116)"/></g><g transform="translate(138.042 88.611)"><path class="b" d="M138.136,94.206l3.467-3.481-12.728-7.233a1.573,1.573,0,0,0-1.516-.115Z" transform="translate(-126.497 -83.234)"/><path class="b" d="M134.841,91.324l-7.678-7.716a1.37,1.37,0,0,0-.052.334v20.684a1.983,1.983,0,0,0,.052.3L137.749,94.29Z" transform="translate(-127.111 -82.309)"/><path class="b" d="M138.727,88.01l-4.256-2.417-2.553,2.563-1.175,1.2,3.745,3.763,4.239-2.406C140.035,89.968,140.035,88.754,138.727,88.01Z" transform="translate(-118.113 -77.389)"/><path class="b" d="M127.389,97.836a1.652,1.652,0,0,0,1.412-.17l12.675-7.205-3.425-3.491Z" transform="translate(-126.422 -73.98)"/></g></g></svg>