<svg xmlns="http://www.w3.org/2000/svg" width="31.25" height="31.25" viewBox="0 0 31.25 31.25"><defs><style>.a{fill:#fff;}.a,.b{stroke:#0a83ea;stroke-width:1.25px;}.b{fill:none;}</style></defs><g transform="translate(-723.844 -417.508)"><path class="a" d="M754.469,433.133a15,15,0,1,1-15-15A14.951,14.951,0,0,1,754.469,433.133Z"/><circle class="b" cx="3" cy="3" r="3" transform="translate(736.5 424.5)"/><path class="b" d="M5.855,0H8.145A5.855,5.855,0,0,1,14,5.855V7.3A1.7,1.7,0,0,1,12.3,9H1.7A1.7,1.7,0,0,1,0,7.3V5.855A5.855,5.855,0,0,1,5.855,0Z" transform="translate(732.5 432.5)"/></g></svg>