<svg xmlns="http://www.w3.org/2000/svg" width="22" height="22" viewBox="0 0 22 22"><defs><style>.a{fill:#fbd436;}</style></defs><path class="a" d="M14.375,3.375a11,11,0,1,0,11,11A11,11,0,0,0,14.375,3.375ZM17.262,5.3a9.543,9.543,0,0,1,6.188,6.187l-4.7.317a5.078,5.078,0,0,0-1.793-1.8ZM7.643,7.643A9.451,9.451,0,0,1,11.488,5.3l.3,4.707A5.2,5.2,0,0,0,10,11.8l-4.7-.312A9.556,9.556,0,0,1,7.643,7.643ZM11.488,23.45A9.543,9.543,0,0,1,5.3,17.262l4.707-.3a5.12,5.12,0,0,0,1.788,1.787Zm2.887-5.479a3.6,3.6,0,1,1,3.6-3.6A3.6,3.6,0,0,1,14.375,17.971Zm6.732,3.136a9.486,9.486,0,0,1-3.845,2.343l-.312-4.7a5.094,5.094,0,0,0,1.8-1.809l4.7.317A9.47,9.47,0,0,1,21.107,21.107Z" transform="translate(25.375 -3.375) rotate(90)"/></svg>