<svg xmlns="http://www.w3.org/2000/svg" width="19.25" height="19.25" viewBox="0 0 19.25 19.25"><defs><style>.a{fill:#6db57b;}</style></defs><g transform="translate(-3.375 -3.375)"><path class="a" d="M20.346,13.1l-.814-.838a.175.175,0,0,0-.13-.056h0a.168.168,0,0,0-.13.056l-5.645,5.687-2.055-2.055a.179.179,0,0,0-.259,0l-.824.824a.184.184,0,0,0,0,.264l2.591,2.591a.82.82,0,0,0,.541.264.859.859,0,0,0,.537-.255h0l6.187-6.219A.2.2,0,0,0,20.346,13.1Z" transform="translate(-2.413 -3.019)"/><path class="a" d="M13,4.671A8.326,8.326,0,1,1,7.109,7.109,8.274,8.274,0,0,1,13,4.671m0-1.3A9.625,9.625,0,1,0,22.625,13,9.624,9.624,0,0,0,13,3.375Z"/></g></svg>