<svg xmlns="http://www.w3.org/2000/svg" width="15.5" height="15.5" viewBox="0 0 15.5 15.5"><defs><style>.a,.b{fill:#909ab9;}.a{fill-rule:evenodd;}</style></defs><path class="a" d="M7.75,14.531A6.781,6.781,0,1,0,.969,7.75,6.781,6.781,0,0,0,7.75,14.531Zm0,.969A7.75,7.75,0,1,0,0,7.75,7.75,7.75,0,0,0,7.75,15.5Z"/><path class="b" d="M16.98,14.823l-2.218.278-.079.368.436.081c.285.068.341.17.279.454l-.715,3.36c-.188.869.1,1.278.783,1.278a2.006,2.006,0,0,0,1.419-.579l.085-.4a1.073,1.073,0,0,1-.665.238c-.267,0-.363-.187-.295-.516Z" transform="translate(-8.087 -8.441)"/><path class="b" d="M17.688,8.844a.969.969,0,1,1-.969-.969A.969.969,0,0,1,17.688,8.844Z" transform="translate(-8.727 -4.484)"/></svg>