<svg xmlns="http://www.w3.org/2000/svg" viewBox="0 0 1630.52 182.06"><defs><style>.cls-1{isolation:isolate;}.cls-2{fill:#fff;}.cls-3{fill:#ffd438;}</style></defs><g id="Layer_2" data-name="Layer 2"><g id="Layer_1-2" data-name="Layer 1"><g id="Inspiration"><g id="Inspiration_for_Your_Order" data-name="Inspiration for Your Order" class="cls-1"><g class="cls-1"><path class="cls-2" d="M0,10.68H19.89V96.63H0Z"/><path class="cls-2" d="M98.9,37q7.55,7.36,7.55,21.85V96.63H87.29V61.76q0-7.86-3.43-11.72t-10-3.87q-7.25,0-11.54,4.48T58.07,64V96.63H38.92v-66H57.21v7.73a25.52,25.52,0,0,1,9.46-6.45,33,33,0,0,1,12.4-2.27Q91.34,29.59,98.9,37Z"/><path class="cls-2" d="M129.9,95.59a41.93,41.93,0,0,1-12.53-5.1l6.39-13.75a40.14,40.14,0,0,0,10.68,4.6,44.72,44.72,0,0,0,12.28,1.79q12.15,0,12.16-6,0-2.82-3.32-4A48.82,48.82,0,0,0,145.37,71,98.93,98.93,0,0,1,132,68.15a20.79,20.79,0,0,1-9.15-5.65Q119,58.45,119,51a18.13,18.13,0,0,1,3.62-11.12,23.33,23.33,0,0,1,10.56-7.55,45.1,45.1,0,0,1,16.39-2.7,64,64,0,0,1,13.94,1.54A39,39,0,0,1,175,35.36L168.57,49a38.14,38.14,0,0,0-19-4.91q-6.14,0-9.2,1.72t-3.07,4.42q0,3.08,3.31,4.3a58.9,58.9,0,0,0,10.56,2.33,111.65,111.65,0,0,1,13.26,2.89,19.88,19.88,0,0,1,9,5.58q3.81,4.05,3.81,11.3a17.45,17.45,0,0,1-3.69,10.93A23.46,23.46,0,0,1,162.74,95,47.86,47.86,0,0,1,146,97.61,64.19,64.19,0,0,1,129.9,95.59Z"/><path class="cls-2" d="M244.76,33.83a30.43,30.43,0,0,1,11.85,11.91,36,36,0,0,1,4.3,17.86,36,36,0,0,1-4.3,17.87,30.56,30.56,0,0,1-11.85,11.91A33.72,33.72,0,0,1,228,97.61q-12.65,0-19.89-8v30.82H189V30.58h18.29v7.61q7.11-8.59,20.75-8.6A33.62,33.62,0,0,1,244.76,33.83Zm-8,43.09q4.72-5,4.73-13.32t-4.73-13.32a17.2,17.2,0,0,0-24.19,0q-4.72,5-4.73,13.32t4.73,13.32a17.18,17.18,0,0,0,24.19,0Z"/><path class="cls-2" d="M274.66,18.3a10,10,0,0,1-3.32-7.62,10,10,0,0,1,3.32-7.61A12.16,12.16,0,0,1,283.25,0a12.44,12.44,0,0,1,8.6,3,9.44,9.44,0,0,1,3.31,7.37,10.39,10.39,0,0,1-3.31,7.91,12,12,0,0,1-8.6,3.14A12.16,12.16,0,0,1,274.66,18.3Zm-1,12.28h19.15V96.63H273.67Z"/><path class="cls-2" d="M338.19,32.05a34.37,34.37,0,0,1,13.45-2.46V47.27c-2.13-.16-3.56-.24-4.3-.24q-8.22,0-12.89,4.6t-4.67,13.81V96.63H310.63v-66h18.29v8.71A21.23,21.23,0,0,1,338.19,32.05Z"/><path class="cls-2" d="M412.91,36.9q8.22,7.31,8.22,22V96.63H403.21V88.41q-5.4,9.2-20.14,9.2A31.43,31.43,0,0,1,369.87,95a19.69,19.69,0,0,1-8.53-7.13,18.56,18.56,0,0,1-2.95-10.31q0-9.21,6.94-14.49t21.43-5.28H402q0-6.26-3.8-9.64t-11.42-3.37a33.52,33.52,0,0,0-10.38,1.65A27.47,27.47,0,0,0,367.72,51l-6.87-13.39a41.62,41.62,0,0,1,12.95-5.89,58.13,58.13,0,0,1,15.54-2.09Q404.69,29.59,412.91,36.9ZM396.58,82.45a12.4,12.4,0,0,0,5.4-6.69V69H388.84q-11.77,0-11.78,7.74a6.88,6.88,0,0,0,2.88,5.83c1.93,1.43,4.56,2.15,7.92,2.15A16.75,16.75,0,0,0,396.58,82.45Z"/><path class="cls-2" d="M481.05,93.44a19.62,19.62,0,0,1-6.94,3.13,35.36,35.36,0,0,1-8.66,1q-11.77,0-18.23-6t-6.44-17.67V46.78H430.59V32.05h10.19V16h19.15V32.05h16.46V46.78H459.93V73.67a9.05,9.05,0,0,0,2.15,6.45,8,8,0,0,0,6.08,2.27,12.28,12.28,0,0,0,7.73-2.46Z"/><path class="cls-2" d="M492.84,18.3a10,10,0,0,1-3.32-7.62,10,10,0,0,1,3.32-7.61A12.16,12.16,0,0,1,501.43,0,12.44,12.44,0,0,1,510,3a9.44,9.44,0,0,1,3.31,7.37A10.39,10.39,0,0,1,510,18.23a12,12,0,0,1-8.6,3.14A12.16,12.16,0,0,1,492.84,18.3Zm-1,12.28H511V96.63H491.86Z"/><path class="cls-2" d="M541.52,93.25a32.29,32.29,0,0,1-12.95-12.09A33.25,33.25,0,0,1,523.9,63.6,33.25,33.25,0,0,1,528.57,46,32.43,32.43,0,0,1,541.52,34a42.26,42.26,0,0,1,37.39,0A32.59,32.59,0,0,1,591.8,46a33.34,33.34,0,0,1,4.67,17.56,33.34,33.34,0,0,1-4.67,17.56,32.45,32.45,0,0,1-12.89,12.09,42.26,42.26,0,0,1-37.39,0Zm30.82-16.33q4.73-5,4.72-13.32t-4.72-13.32a16,16,0,0,0-12.1-5,16.15,16.15,0,0,0-12.15,5q-4.8,5-4.79,13.32t4.79,13.32a16.13,16.13,0,0,0,12.15,5A16,16,0,0,0,572.34,76.92Z"/><path class="cls-2" d="M669.21,37q7.56,7.36,7.55,21.85V96.63H657.61V61.76q0-7.86-3.44-11.72t-9.94-3.87c-4.84,0-8.68,1.49-11.55,4.48s-4.29,7.43-4.29,13.32V96.63H609.23v-66h18.3v7.73A25.48,25.48,0,0,1,637,31.86a33,33,0,0,1,12.4-2.27Q661.67,29.59,669.21,37Z"/><path class="cls-2" d="M749.81,32.05h17V46.78H750.31V96.63H731.15V46.78H721V32.05h10.19V29.1q0-11.3,6.69-17.92t18.85-6.64a35.3,35.3,0,0,1,8.16.92,19.82,19.82,0,0,1,6.45,2.65l-5,13.87a13.07,13.07,0,0,0-7.74-2.33q-8.71,0-8.72,9.57Z"/><path class="cls-2" d="M788.19,93.25a32.31,32.31,0,0,1-13-12.09,33.34,33.34,0,0,1-4.66-17.56A33.34,33.34,0,0,1,775.23,46a32.45,32.45,0,0,1,13-12.09,42.24,42.24,0,0,1,37.38,0A32.52,32.52,0,0,1,838.46,46a33.25,33.25,0,0,1,4.67,17.56,33.25,33.25,0,0,1-4.67,17.56,32.39,32.39,0,0,1-12.89,12.09,42.24,42.24,0,0,1-37.38,0ZM819,76.92q4.72-5,4.73-13.32T819,50.28a16,16,0,0,0-12.09-5,16.19,16.19,0,0,0-12.16,5Q790,55.26,790,63.6t4.78,13.32a16.16,16.16,0,0,0,12.16,5A15.93,15.93,0,0,0,819,76.92Z"/><path class="cls-2" d="M883.46,32.05a34.37,34.37,0,0,1,13.45-2.46V47.27c-2.13-.16-3.56-.24-4.3-.24q-8.22,0-12.89,4.6t-4.67,13.81V96.63H855.9v-66h18.29v8.71A21.23,21.23,0,0,1,883.46,32.05Z"/><path class="cls-2" d="M986.17,66.18V96.63H966.28V65.94L933,10.68h21.12l23,38.19,23-38.19h19.53Z"/><path class="cls-2" d="M1031.9,93.25a32.35,32.35,0,0,1-13-12.09,33.34,33.34,0,0,1-4.66-17.56A33.34,33.34,0,0,1,1019,46a32.49,32.49,0,0,1,13-12.09,39.71,39.71,0,0,1,18.73-4.36A39.31,39.31,0,0,1,1069.29,34,32.59,32.59,0,0,1,1082.18,46a33.34,33.34,0,0,1,4.67,17.56,33.34,33.34,0,0,1-4.67,17.56,32.45,32.45,0,0,1-12.89,12.09,39.2,39.2,0,0,1-18.66,4.36A39.59,39.59,0,0,1,1031.9,93.25Zm30.82-16.33q4.72-5,4.73-13.32t-4.73-13.32a16,16,0,0,0-12.09-5,16.18,16.18,0,0,0-12.16,5q-4.79,5-4.78,13.32t4.78,13.32a16.15,16.15,0,0,0,12.16,5A15.93,15.93,0,0,0,1062.72,76.92Z"/><path class="cls-2" d="M1166.17,30.58V96.63H1148V88.77a25.21,25.21,0,0,1-9.08,6.57,28.67,28.67,0,0,1-11.42,2.27q-13,0-20.63-7.49t-7.61-22.22V30.58h19.16v34.5q0,16,13.38,16a14.39,14.39,0,0,0,11-4.49q4.17-4.47,4.17-13.32V30.58Z"/><path class="cls-2" d="M1211.54,32.05A34.28,34.28,0,0,1,1225,29.59V47.27c-2.13-.16-3.56-.24-4.3-.24q-8.22,0-12.89,4.6t-4.67,13.81V96.63H1184v-66h18.29v8.71A21.26,21.26,0,0,1,1211.54,32.05Z"/><path class="cls-2" d="M1290.48,92.33a42.8,42.8,0,0,1-16.82-15.9,43.4,43.4,0,0,1-6.08-22.77,43.44,43.44,0,0,1,6.08-22.78A42.87,42.87,0,0,1,1290.48,15a53.19,53.19,0,0,1,48.19,0,43,43,0,0,1,23,38.68,43,43,0,0,1-23,38.67,53.11,53.11,0,0,1-48.19,0Zm37.88-14.67A25.19,25.19,0,0,0,1338,67.9a28.73,28.73,0,0,0,3.5-14.24,28.77,28.77,0,0,0-3.5-14.25,25.26,25.26,0,0,0-9.64-9.76,28.76,28.76,0,0,0-27.5,0,25.12,25.12,0,0,0-9.64,9.76,28.77,28.77,0,0,0-3.5,14.25,28.73,28.73,0,0,0,3.5,14.24,25.06,25.06,0,0,0,9.64,9.76,28.76,28.76,0,0,0,27.5,0Z"/><path class="cls-2" d="M1402.83,32.05a34.28,34.28,0,0,1,13.44-2.46V47.27c-2.13-.16-3.56-.24-4.3-.24q-8.22,0-12.89,4.6t-4.66,13.81V96.63h-19.16v-66h18.3v8.71A21.23,21.23,0,0,1,1402.83,32.05Z"/><path class="cls-2" d="M1494.36,5.53v91.1h-18.29V89q-7.12,8.6-20.63,8.59a34.31,34.31,0,0,1-16.88-4.17,29.79,29.79,0,0,1-11.85-11.91,36.26,36.26,0,0,1-4.3-17.93,36.22,36.22,0,0,1,4.3-17.92,29.88,29.88,0,0,1,11.85-11.92,34.31,34.31,0,0,1,16.88-4.17q12.64,0,19.77,8v-32Zm-23.57,71.39q4.79-5,4.79-13.32t-4.79-13.32a17.2,17.2,0,0,0-24.19,0q-4.78,5-4.79,13.32t4.79,13.32a17.18,17.18,0,0,0,24.19,0Z"/><path class="cls-2" d="M1576.38,69h-50a15.55,15.55,0,0,0,6.38,9.7,21.12,21.12,0,0,0,12.53,3.57,25.41,25.41,0,0,0,9.14-1.54,22.1,22.1,0,0,0,7.43-4.85l10.19,11.05q-9.33,10.68-27.26,10.68a43,43,0,0,1-19.76-4.36,31.85,31.85,0,0,1-13.27-12.09,33.34,33.34,0,0,1-4.66-17.56,33.75,33.75,0,0,1,4.6-17.49A32.3,32.3,0,0,1,1524.38,34a39.18,39.18,0,0,1,35.55-.19,30.59,30.59,0,0,1,12.34,12,35.77,35.77,0,0,1,4.48,18.11C1576.75,64.09,1576.63,65.81,1576.38,69Zm-44.82-21.24a15.72,15.72,0,0,0-5.4,10.07h32.54a15.87,15.87,0,0,0-5.4-10,16.15,16.15,0,0,0-10.81-3.75A16.53,16.53,0,0,0,1531.56,47.76Z"/><path class="cls-2" d="M1617.08,32.05a34.35,34.35,0,0,1,13.44-2.46V47.27c-2.12-.16-3.56-.24-4.29-.24q-8.24,0-12.89,4.6t-4.67,13.81V96.63h-19.15v-66h18.29v8.71A21.23,21.23,0,0,1,1617.08,32.05Z"/></g></g><path id="Path_4738" data-name="Path 4738" class="cls-3" d="M491.53,144a171.78,171.78,0,0,1-53.73,31.59h0a166.52,166.52,0,0,1-99.46-2.36,211.16,211.16,0,0,1-31.58-13.67,10.08,10.08,0,0,1-5.94-13c.08-.24.18-.47.28-.7a10.38,10.38,0,0,1,14.5-2.34c.2.14.4.3.59.46.47,0,.47,0,.94.47a145.68,145.68,0,0,0,63.16,24c38.65,5.19,82.49-10.37,109.83-26.86a2.05,2.05,0,0,1,2.36.47A1.88,1.88,0,0,1,491.53,144Z"/></g></g></g></svg>