<svg xmlns="http://www.w3.org/2000/svg" width="24.94" height="24.939" viewBox="0 0 24.94 24.939"><defs><style>.a{fill:#d9dade;}</style></defs><path class="a" d="M14.907,6.465H10c-2.4,0-3.567,1.146-3.567,3.5v5.024c0,2.456,1.067,3.5,3.567,3.5h4.905c2.4,0,3.567-1.147,3.567-3.5V9.969C18.474,7.611,17.308,6.465,14.907,6.465ZM7.9,8.672a.729.729,0,1,1,.728.728A.73.73,0,0,1,7.9,8.672Zm7.912,3.8a3.519,3.519,0,0,1-7.037,0c0-.024,0-.05,0-.076a3.519,3.519,0,1,1,7.038,0C15.813,12.418,15.813,12.444,15.812,12.469ZM12.294,9.847a2.549,2.549,0,0,0-2.546,2.545c0,.026,0,.052,0,.076a2.544,2.544,0,0,0,5.086,0c0-.024,0-.05,0-.076A2.547,2.547,0,0,0,12.294,9.847Zm12.621,1.84A12.472,12.472,0,0,0,13.256.024C13,.008,12.734,0,12.47,0A12.47,12.47,0,1,0,24.94,12.469Q24.94,12.075,24.915,11.687Zm-5.491,3.865a3.924,3.924,0,0,1-1.085,2.709.088.088,0,0,1-.016.017l-.135.135-.012.011h0a3.985,3.985,0,0,1-2.734,1.082H9.5a3.972,3.972,0,0,1-3.981-3.955V9.386A3.928,3.928,0,0,1,6.552,6.728c.079-.086.161-.169.246-.247A3.981,3.981,0,0,1,9.5,5.43h5.946a3.974,3.974,0,0,1,3.982,3.956Z"/></svg>