<svg xmlns="http://www.w3.org/2000/svg" viewBox="0 0 1075.56 167.76"><defs><style>.cls-1{fill:#fbd436;}.cls-2{isolation:isolate;}.cls-3{fill:#283350;}</style></defs><g id="Layer_2" data-name="Layer 2"><g id="Layer_1-2" data-name="Layer 1"><g id="jump"><path id="Path_4738" data-name="Path 4738" class="cls-1" d="M962.44,129.71a171.72,171.72,0,0,1-53.73,31.58h0a166.49,166.49,0,0,1-99.45-2.35,213.81,213.81,0,0,1-31.59-13.67,10.1,10.1,0,0,1-5.94-13,7.13,7.13,0,0,1,.29-.69,10.38,10.38,0,0,1,14.49-2.35c.21.15.4.3.59.46.47,0,.47,0,.94.47a145.87,145.87,0,0,0,63.16,24c38.66,5.18,82.49-10.37,109.83-26.87a2.07,2.07,0,0,1,2.36.47A1.9,1.9,0,0,1,962.44,129.71Z"/><g id="Jump_the_Queue" data-name="Jump the Queue" class="cls-2"><g class="cls-2"><path class="cls-3" d="M12,89.32A30.64,30.64,0,0,1,0,80.05L11.05,66.79q7,9.46,16,9.46,12.16,0,12.16-14.25V21.12H9v-16h50V60.9q0,15.84-7.86,23.76T28,92.58A38.92,38.92,0,0,1,12,89.32Z"/><path class="cls-3" d="M143.78,25.05V91.1H125.6V83.25a25.3,25.3,0,0,1-9.08,6.56,28.51,28.51,0,0,1-11.42,2.28q-13,0-20.63-7.49T76.86,62.37V25.05H96v34.5q0,16,13.39,16a14.38,14.38,0,0,0,11-4.48q4.17-4.48,4.17-13.32V25.05Z"/><path class="cls-3" d="M265.88,31.37q7.31,7.31,7.31,21.92V91.1H254V56.23q0-7.84-3.25-11.72t-9.27-3.87c-4.5,0-8.07,1.45-10.68,4.36s-3.93,7.22-3.93,13V91.1H207.75V56.23q0-15.58-12.53-15.59A13.5,13.5,0,0,0,184.66,45q-3.93,4.36-3.93,13V91.1H161.58v-66h18.29v7.61a24.36,24.36,0,0,1,9-6.39,30.43,30.43,0,0,1,11.72-2.21,28.31,28.31,0,0,1,12.65,2.77,22.38,22.38,0,0,1,9.08,8,27.09,27.09,0,0,1,10.26-8,32.35,32.35,0,0,1,13.56-2.83Q258.58,24.06,265.88,31.37Z"/><path class="cls-3" d="M346.18,28.3A30.49,30.49,0,0,1,358,40.21a36,36,0,0,1,4.3,17.86A36,36,0,0,1,358,75.94a30.56,30.56,0,0,1-11.85,11.91,33.7,33.7,0,0,1-16.76,4.24q-12.65,0-19.89-8v30.82H290.38V25.05h18.29v7.61q7.13-8.59,20.75-8.6A33.7,33.7,0,0,1,346.18,28.3Zm-8,43.09q4.73-5,4.73-13.32T338.2,44.75a17.2,17.2,0,0,0-24.19,0q-4.72,5-4.73,13.32T314,71.39a17.18,17.18,0,0,0,24.19,0Z"/><path class="cls-3" d="M452.44,87.91A19.57,19.57,0,0,1,445.51,91a35.42,35.42,0,0,1-8.66,1q-11.79,0-18.23-6t-6.45-17.68V41.25H402V26.52h10.19V10.44h19.16V26.52h16.45V41.25H431.33V68.14a9,9,0,0,0,2.15,6.45,8,8,0,0,0,6.07,2.27,12.31,12.31,0,0,0,7.74-2.46Z"/><path class="cls-3" d="M523.23,31.43q7.54,7.37,7.55,21.86V91.1H511.63V56.23q0-7.84-3.44-11.72t-9.95-3.87q-7.25,0-11.54,4.48t-4.3,13.32V91.1H463.25V0H482.4V31.92a25.47,25.47,0,0,1,9.21-5.83,33.32,33.32,0,0,1,11.79-2Q515.67,24.06,523.23,31.43Z"/><path class="cls-3" d="M613.16,63.48h-50a15.58,15.58,0,0,0,6.39,9.7,21.16,21.16,0,0,0,12.52,3.56,25.22,25.22,0,0,0,9.15-1.54,22.1,22.1,0,0,0,7.43-4.85L608.87,81.4q-9.33,10.68-27.26,10.69a43.2,43.2,0,0,1-19.77-4.36,32,32,0,0,1-13.26-12.1,33.31,33.31,0,0,1-4.66-17.56,33.75,33.75,0,0,1,4.6-17.49,32.3,32.3,0,0,1,12.65-12.16,39.12,39.12,0,0,1,35.54-.18,30.44,30.44,0,0,1,12.34,12,35.67,35.67,0,0,1,4.49,18.11C613.54,58.56,613.41,60.28,613.16,63.48ZM568.35,42.23A15.67,15.67,0,0,0,563,52.3h32.54a15.86,15.86,0,0,0-5.41-10,16.12,16.12,0,0,0-10.8-3.75A16.53,16.53,0,0,0,568.35,42.23Z"/><path class="cls-3" d="M755.35,100.31a27.55,27.55,0,0,1-10.14,7.86,31.29,31.29,0,0,1-13.07,2.7,36.27,36.27,0,0,1-17.31-4.11q-7.74-4.12-17.69-14.55a48.35,48.35,0,0,1-20.81-7.49,42.13,42.13,0,0,1-14.24-15.54A43.91,43.91,0,0,1,657,48.13a43.45,43.45,0,0,1,6.07-22.78,42.87,42.87,0,0,1,16.82-15.9,53.22,53.22,0,0,1,48.2,0A43,43,0,0,1,751,48.13a42.81,42.81,0,0,1-8.4,26.27,43.49,43.49,0,0,1-22.29,15.72,21.89,21.89,0,0,0,5.95,4.6,14,14,0,0,0,6.21,1.42q8,0,14-6.39ZM680.63,62.37a25.06,25.06,0,0,0,9.64,9.76,28.76,28.76,0,0,0,27.5,0,25.06,25.06,0,0,0,9.64-9.76,28.7,28.7,0,0,0,3.5-14.24,28.77,28.77,0,0,0-3.5-14.25,25.19,25.19,0,0,0-9.64-9.76,28.83,28.83,0,0,0-27.5,0,25.19,25.19,0,0,0-9.64,9.76,28.77,28.77,0,0,0-3.5,14.25A28.7,28.7,0,0,0,680.63,62.37Z"/><path class="cls-3" d="M831.22,25.05V91.1H813.05V83.25A25.42,25.42,0,0,1,804,89.81a28.42,28.42,0,0,1-11.41,2.28q-13,0-20.63-7.49t-7.61-22.23V25.05h19.15v34.5q0,16,13.38,16A14.42,14.42,0,0,0,807.9,71q4.17-4.48,4.17-13.32V25.05Z"/><path class="cls-3" d="M913.36,63.48h-50a15.6,15.6,0,0,0,6.38,9.7,21.19,21.19,0,0,0,12.53,3.56,25.12,25.12,0,0,0,9.14-1.54,22,22,0,0,0,7.43-4.85l10.2,11.05q-9.35,10.68-27.26,10.69A43.2,43.2,0,0,1,862,87.73a32,32,0,0,1-13.26-12.1,33.32,33.32,0,0,1-4.67-17.56,33.76,33.76,0,0,1,4.61-17.49,32.28,32.28,0,0,1,12.64-12.16,39.14,39.14,0,0,1,35.55-.18,30.44,30.44,0,0,1,12.34,12,35.67,35.67,0,0,1,4.48,18.11C913.73,58.56,913.61,60.28,913.36,63.48ZM868.55,42.23a15.73,15.73,0,0,0-5.41,10.07h32.54a15.8,15.8,0,0,0-5.4-10,16.15,16.15,0,0,0-10.81-3.75A16.49,16.49,0,0,0,868.55,42.23Z"/><path class="cls-3" d="M993.05,25.05V91.1H974.87V83.25a25.3,25.3,0,0,1-9.08,6.56,28.51,28.51,0,0,1-11.42,2.28q-13,0-20.63-7.49t-7.61-22.23V25.05h19.15v34.5q0,16,13.39,16A14.38,14.38,0,0,0,969.72,71q4.17-4.48,4.17-13.32V25.05Z"/><path class="cls-3" d="M1075.18,63.48h-50a15.58,15.58,0,0,0,6.39,9.7,21.16,21.16,0,0,0,12.52,3.56,25.22,25.22,0,0,0,9.15-1.54,22.1,22.1,0,0,0,7.43-4.85l10.19,11.05q-9.33,10.68-27.26,10.69a43.2,43.2,0,0,1-19.77-4.36,32,32,0,0,1-13.26-12.1,33.31,33.31,0,0,1-4.66-17.56,33.75,33.75,0,0,1,4.6-17.49,32.3,32.3,0,0,1,12.65-12.16,39.12,39.12,0,0,1,35.54-.18,30.44,30.44,0,0,1,12.34,12,35.67,35.67,0,0,1,4.49,18.11C1075.56,58.56,1075.43,60.28,1075.18,63.48Zm-44.81-21.25A15.67,15.67,0,0,0,1025,52.3h32.54a15.86,15.86,0,0,0-5.41-10,16.12,16.12,0,0,0-10.8-3.75A16.53,16.53,0,0,0,1030.37,42.23Z"/></g></g></g></g></g></svg>