<svg xmlns="http://www.w3.org/2000/svg" width="130" height="57.028" viewBox="0 0 130 57.028"><defs><style>.a{fill:#ffd55a;}.b{fill:#293250;}.c{fill:#26d07c;}</style></defs><g transform="translate(-2.4 -3)"><path class="a" d="M129.869,35.31a8.107,8.107,0,0,0-4.555-2.278V30.923a8.006,8.006,0,0,0,2.868-1.856,7.943,7.943,0,0,0,0-11.3,8.006,8.006,0,0,0-2.868-1.856v-1.1a7.71,7.71,0,0,0-2.278-5.568l-.084-.084a8.069,8.069,0,0,0-5.568-2.278,7.71,7.71,0,0,0-5.568,2.278l-.169.169a7.988,7.988,0,0,0-2.193,5.568v.422a9.217,9.217,0,0,0-1.434.422,15.482,15.482,0,0,0-3.965-.506h-.169a17.071,17.071,0,0,0-3.628.422,6.819,6.819,0,0,0,.084-1.35,7.985,7.985,0,0,0-2.362-5.652A7.841,7.841,0,0,0,92.329,6.29H81.868A8.069,8.069,0,0,0,76.3,8.568l-.084.084a8.069,8.069,0,0,0-2.278,5.568v4.64a12.759,12.759,0,0,0-6.665-3.881,9.586,9.586,0,0,0,.506-2.109,9.822,9.822,0,0,0-1.94-7.339L63.562,3l-3.29.928a13.255,13.255,0,0,0-7.086,4.724l-1.6-.422-.253.253a8.016,8.016,0,0,0-5.146-1.856,7.71,7.71,0,0,0-5.568,2.278l-.169.169a8.069,8.069,0,0,0-2.278,5.568v1.181a14.03,14.03,0,0,0-4.977-.844h-.169A14.848,14.848,0,0,0,18.175,29.321V13.545A7.917,7.917,0,0,0,15.9,7.977l-.084-.084a7.851,7.851,0,0,0-5.568-2.278A8.272,8.272,0,0,0,4.593,7.893l.084.084A7.71,7.71,0,0,0,2.4,13.545v27.08a7.71,7.71,0,0,0,2.278,5.568l.169.169a7.988,7.988,0,0,0,5.568,2.193h9.448a8.36,8.36,0,0,0,3.206,3.206l.506.253A50.8,50.8,0,0,0,31,55.725a46.855,46.855,0,0,0,25.477,2.7,6.7,6.7,0,0,0,4.387,1.6,8.6,8.6,0,0,0,2.784-.422,46.812,46.812,0,0,0,16.535-8.52,21.708,21.708,0,0,0,2.025-1.772c.253-.169.422-.422.675-.591H92.5a7.786,7.786,0,0,0,4.724-1.6,15.015,15.015,0,0,0,6.749,1.6h.169a15.482,15.482,0,0,0,3.965-.506,8.346,8.346,0,0,0,2.953.506,7.644,7.644,0,0,0,5.483-2.193,14.861,14.861,0,0,0,7.846,2.193,8.065,8.065,0,0,0,8.014-8.014A8.927,8.927,0,0,0,129.869,35.31Zm-86.47,9.7c-.084,0-.169-.084-.253-.084l.084-.084C43.231,44.927,43.315,44.927,43.4,45.012Z" transform="translate(0 0)"/><g transform="translate(7.715 9.074)"><g transform="translate(0 1.856)"><path class="b" d="M25.488,42.095a2.617,2.617,0,0,1-.759,1.856,2.48,2.48,0,0,1-1.856.759H11.315A2.593,2.593,0,0,1,8.7,42.095V15.015a2.625,2.625,0,0,1,4.471-1.856,2.48,2.48,0,0,1,.759,1.856V39.48h8.942a2.617,2.617,0,0,1,1.856.759A2.768,2.768,0,0,1,25.488,42.095Z" transform="translate(-8.7 -12.4)"/></g><g transform="translate(15.944 11.22)"><path class="b" d="M46.581,31.346c-.084-.422-.169-.759-.253-1.1a3.525,3.525,0,0,0-.337-.844,9.574,9.574,0,0,0-2.025-3.037A9.316,9.316,0,0,0,37.217,23.5h-.169a8.915,8.915,0,0,0-6.664,2.784A9.048,9.048,0,0,0,27.6,32.948v4.134a9.383,9.383,0,0,0,2.784,6.665,9.048,9.048,0,0,0,6.664,2.784h.169a9.247,9.247,0,0,0,7.677-3.881,2.615,2.615,0,0,0,.422-2.362,2.477,2.477,0,0,0-1.6-1.687,2.417,2.417,0,0,0-2.953.928A4.06,4.06,0,0,1,37.3,41.3h-.169A4.142,4.142,0,0,1,34.1,40.035a3.953,3.953,0,0,1-1.181-2.446h9.28a4.338,4.338,0,0,0,3.965-2.278c.084-.169.169-.253.253-.422a4.6,4.6,0,0,0,.422-1.856C46.75,32.442,46.666,31.852,46.581,31.346ZM32.83,32.358a4.231,4.231,0,0,1,4.218-3.712h.169a4.142,4.142,0,0,1,3.037,1.265,3.953,3.953,0,0,1,1.181,2.446Z" transform="translate(-27.6 -23.5)"/></g><g transform="translate(35.853 2.868)"><path class="b" d="M63.348,42.283A2.593,2.593,0,0,1,60.733,44.9,9.505,9.505,0,0,1,51.2,35.449V16.215a2.615,2.615,0,1,1,5.23,0V22.2h2.615a2.617,2.617,0,0,1,1.856.759,2.615,2.615,0,0,1-1.856,4.471H56.43v8.014a4.321,4.321,0,0,0,4.3,4.3h0a2.617,2.617,0,0,1,1.856.759A2.3,2.3,0,0,1,63.348,42.283Z" transform="translate(-51.2 -13.6)"/></g><g transform="translate(48.631 11.051)"><path class="b" d="M82,40.931a7.282,7.282,0,0,1-2.953,4.049A8.474,8.474,0,0,1,74.069,46.5,9.074,9.074,0,0,1,69.6,45.318,7.5,7.5,0,0,1,66.645,42.2a2.312,2.312,0,0,1,.169-2.531A2.984,2.984,0,0,1,71.791,40a2.32,2.32,0,0,0,2.278,1.265h.084a2.48,2.48,0,0,0,1.856-.759,1.926,1.926,0,0,0,.591-1.687,1.97,1.97,0,0,0-.844-1.35,3.181,3.181,0,0,0-1.772-.591,7.331,7.331,0,0,1-5.737-2.7,6.012,6.012,0,0,1-1.265-5.99,6.521,6.521,0,0,1,2.7-3.543,8.421,8.421,0,0,1,4.471-1.35h.084a7.226,7.226,0,0,1,6.5,3.459,2.442,2.442,0,0,1,0,2.615,2.666,2.666,0,0,1-2.446,1.265,2.938,2.938,0,0,1-2.446-1.35,1.654,1.654,0,0,0-1.6-.844,2.033,2.033,0,0,0-1.265.337,1.383,1.383,0,0,0-.591.928,1.351,1.351,0,0,0,.337,1.265,1.85,1.85,0,0,0,1.434.591,7.953,7.953,0,0,1,6.327,2.784A7.175,7.175,0,0,1,82,40.931Z" transform="translate(-66.347 -23.3)"/></g><g transform="translate(71.538 2.531)"><path class="b" d="M108.432,40.7a2.615,2.615,0,0,1-1.856,4.471H96.115A2.593,2.593,0,0,1,93.5,42.558V15.815A2.593,2.593,0,0,1,96.115,13.2H106.66a2.617,2.617,0,0,1,1.856.759,2.648,2.648,0,0,1,0,3.712,2.48,2.48,0,0,1-1.856.759H98.73v7.086h6.665a2.617,2.617,0,0,1,1.856.759,2.48,2.48,0,0,1,.759,1.856,2.593,2.593,0,0,1-2.615,2.615H98.73v9.2h7.93A2.428,2.428,0,0,1,108.432,40.7Z" transform="translate(-93.5 -13.2)"/></g><g transform="translate(86.639 11.389)"><path class="b" d="M129.791,24.459a2.48,2.48,0,0,0-1.856-.759,2.355,2.355,0,0,0-2.193,1.181A8.848,8.848,0,0,0,121.1,23.7h-.169a9.5,9.5,0,0,0-9.533,9.533v4.049a8.915,8.915,0,0,0,2.784,6.665,9.236,9.236,0,0,0,6.749,2.784h.169a9.722,9.722,0,0,0,4.64-1.181,2.355,2.355,0,0,0,2.193,1.181,2.593,2.593,0,0,0,2.615-2.615v-17.8A2.768,2.768,0,0,0,129.791,24.459Zm-8.774,17.125h-.169a4.32,4.32,0,0,1-4.3-4.3V33.233a4.32,4.32,0,0,1,4.3-4.3h.169a4.321,4.321,0,0,1,4.3,4.3v4.049a4.321,4.321,0,0,1-4.3,4.3Z" transform="translate(-111.4 -23.7)"/></g><g transform="translate(106.969 3.121)"><path class="b" d="M147.648,42.667a2.593,2.593,0,0,1-2.615,2.615,9.505,9.505,0,0,1-9.533-9.448V16.515a2.615,2.615,0,1,1,5.23,0V22.5h2.615a2.617,2.617,0,0,1,1.856.759,2.615,2.615,0,0,1-1.856,4.471H140.73v8.014a4.321,4.321,0,0,0,4.3,4.3,2.593,2.593,0,0,1,2.615,2.615Z" transform="translate(-135.5 -13.9)"/></g><g transform="translate(45.37)"><path class="c" d="M67.1,19.817a11.846,11.846,0,0,1,2.362-5.905,22.732,22.732,0,0,0-3.29,5.315c-.337-2.193-.506-7.339,5.483-9.027C71.658,10.2,75.2,14.418,67.1,19.817Z" transform="translate(-63.038 -10.2)"/><path class="c" d="M64.69,20.365a4.892,4.892,0,0,0-1.012-2.446,10.275,10.275,0,0,1,1.35,2.193A3.045,3.045,0,0,0,62.75,16.4C62.835,16.4,61.316,18.087,64.69,20.365Z" transform="translate(-62.481 -11.17)"/></g><path class="b" d="M83.039,51.255c-.506.337-1.012.591-1.434.928a43.564,43.564,0,0,1-12.823,7.171c-.337.084-.675.253-1.012.337a.694.694,0,0,1-.506-.337c-.084-.084.084-.422.253-.506a3.022,3.022,0,0,1,.928-.337A40,40,0,0,0,80.761,51.34c.422-.337.759-.844,1.181-1.265l-.253-.253a11.812,11.812,0,0,0-1.35.844A42.547,42.547,0,0,1,68.107,57.5a3.8,3.8,0,0,1-.928.253.694.694,0,0,1-.506-.337c-.084-.084.084-.422.253-.422.337-.169.675-.253,1.012-.422A39.1,39.1,0,0,0,79.5,49.737a7.285,7.285,0,0,0,1.1-1.181,1.165,1.165,0,0,1-.253-.337,8.758,8.758,0,0,0-1.434,1.012,37.241,37.241,0,0,1-11.473,6.327,2.476,2.476,0,0,1-.844.253A1.786,1.786,0,0,1,66,55.558a2.115,2.115,0,0,1,.337-.591,3,3,0,0,1,.759-.337A39.087,39.087,0,0,0,77.977,48.3a8.4,8.4,0,0,0,1.181-1.265,1.164,1.164,0,0,1-.253-.337,10.045,10.045,0,0,0-1.265.759,36.432,36.432,0,0,1-13.329,6.833c-1.1.337-2.025.759-2.025,2.193,0,.928-.759,1.181-1.6,1.35A38.772,38.772,0,0,1,47.1,57.245a37.853,37.853,0,0,1-14.847-6.833c.084,0,0,0,0-.084-1.35-.928-3.037-.844-3.712.253a2.43,2.43,0,0,0,1.181,3.374,58.752,58.752,0,0,0,7.255,3.712,41.07,41.07,0,0,0,24.043,2.109,1.914,1.914,0,0,1,2.531,1.012c.591,1.1,1.6.844,2.615.591A42.93,42.93,0,0,0,80.93,53.871a30.23,30.23,0,0,0,2.446-2.193A1.481,1.481,0,0,1,83.039,51.255Z" transform="translate(-11.754 -15.908)"/></g></g></svg>