<svg xmlns="http://www.w3.org/2000/svg" width="14.914" height="20.061" viewBox="0 0 14.914 20.061"><defs><style>.a{fill:#6db57b;}</style></defs><g transform="translate(-669.065 -369.427)"><g transform="translate(669.065 369.427)"><path class="a" d="M16.1,8.971a2.744,2.744,0,1,0,2.744,2.744A2.744,2.744,0,0,0,16.1,8.971Zm0,4.116a1.372,1.372,0,1,1,1.372-1.372A1.372,1.372,0,0,1,16.1,13.087Z" transform="translate(-8.642 -4.255)"/><path class="a" d="M18.356,3.42A7.457,7.457,0,0,0,6.835,12.764l5.184,7.959a1.27,1.27,0,0,0,2.128,0l5.185-7.959a7.457,7.457,0,0,0-.975-9.343Zm-.174,8.595-5.1,7.827-5.1-7.827a6.085,6.085,0,1,1,10.2,0Z" transform="translate(-5.627 -1.238)"/></g></g></svg>