<svg xmlns="http://www.w3.org/2000/svg" width="19.731" height="19.731" viewBox="0 0 19.731 19.731"><defs><style>.a{fill:#fbd436;}</style></defs><path class="a" d="M1854.657,712.016h-16.382a1.675,1.675,0,0,0-1.674,1.674v16.382a1.674,1.674,0,0,0,1.674,1.674h16.382a1.674,1.674,0,0,0,1.674-1.674V713.69A1.674,1.674,0,0,0,1854.657,712.016Zm-8.191,4.66a2.943,2.943,0,1,1-2.943,2.943A2.943,2.943,0,0,1,1846.466,716.676Zm7.322,12.072a.413.413,0,0,1-.413.413h-13.818a.413.413,0,0,1-.413-.413v-1.36c.061-2.148,3.314-3.88,7.322-3.88s7.261,1.732,7.322,3.88Z" transform="translate(-1836.601 -712.016)"/></svg>