<svg xmlns="http://www.w3.org/2000/svg" viewBox="0 0 1469.19 167.76"><defs><style>.cls-1{fill:#fbd436;}.cls-2{isolation:isolate;}.cls-3{fill:#283350;}</style></defs><g id="Layer_2" data-name="Layer 2"><g id="Layer_1-2" data-name="Layer 1"><g id="lorem"><path id="Path_4738" data-name="Path 4738" class="cls-1" d="M1203.7,129.7A171.56,171.56,0,0,1,1150,161.29h0a166.49,166.49,0,0,1-99.45-2.36,211.72,211.72,0,0,1-31.59-13.67,10.09,10.09,0,0,1-5.94-13c.09-.24.18-.47.29-.7a10.37,10.37,0,0,1,14.49-2.34,6.65,6.65,0,0,1,.59.46c.47,0,.47,0,1,.47a145.64,145.64,0,0,0,63.15,24c38.66,5.19,82.49-10.37,109.83-26.86a2.05,2.05,0,0,1,2.36.47A1.88,1.88,0,0,1,1203.7,129.7Z"/><g id="Lorem_Ipsum_Dummy_" data-name="Lorem Ipsum Dummy " class="cls-2"><g class="cls-2"><path class="cls-3" d="M0,5.16H19.89V74.89H63V91.1H0Z"/><path class="cls-3" d="M85,87.72a32.35,32.35,0,0,1-13-12.09,33.34,33.34,0,0,1-4.66-17.56,33.39,33.39,0,0,1,4.66-17.56A32.49,32.49,0,0,1,85,28.42a39.71,39.71,0,0,1,18.73-4.36,39.31,39.31,0,0,1,18.66,4.36A32.59,32.59,0,0,1,135.3,40.51,33.39,33.39,0,0,1,140,58.07a33.34,33.34,0,0,1-4.67,17.56,32.45,32.45,0,0,1-12.89,12.09,39.2,39.2,0,0,1-18.66,4.37A39.6,39.6,0,0,1,85,87.72Zm30.82-16.33q4.72-5,4.73-13.32t-4.73-13.32a16,16,0,0,0-12.09-5,16.18,16.18,0,0,0-12.16,5q-4.78,5-4.78,13.32t4.78,13.32a16.15,16.15,0,0,0,12.16,5A15.93,15.93,0,0,0,115.84,71.39Z"/><path class="cls-3" d="M180.3,26.51a34.55,34.55,0,0,1,13.45-2.45V41.74c-2.13-.16-3.56-.25-4.3-.25q-8.22,0-12.89,4.61t-4.67,13.81V91.1H152.74V25H171v8.72A21.33,21.33,0,0,1,180.3,26.51Z"/><path class="cls-3" d="M268.89,63.48h-50a15.56,15.56,0,0,0,6.38,9.69,21.12,21.12,0,0,0,12.53,3.57A25.12,25.12,0,0,0,247,75.2a22,22,0,0,0,7.43-4.85L264.6,81.4q-9.35,10.68-27.26,10.69a43.07,43.07,0,0,1-19.77-4.37,31.88,31.88,0,0,1-13.26-12.09,33.34,33.34,0,0,1-4.67-17.56,33.76,33.76,0,0,1,4.61-17.49,32.28,32.28,0,0,1,12.64-12.16,39.18,39.18,0,0,1,35.55-.19,30.53,30.53,0,0,1,12.34,12,35.74,35.74,0,0,1,4.48,18.11C269.26,58.56,269.14,60.28,268.89,63.48ZM224.08,42.23a15.73,15.73,0,0,0-5.41,10.07h32.54a15.9,15.9,0,0,0-5.4-10A16.19,16.19,0,0,0,235,38.55,16.49,16.49,0,0,0,224.08,42.23Z"/><path class="cls-3" d="M386.33,31.37q7.31,7.29,7.31,21.92V91.1H374.48V56.23q0-7.86-3.25-11.72T362,40.64q-6.75,0-10.68,4.36t-3.93,13V91.1H328.19V56.23q0-15.58-12.52-15.59A13.5,13.5,0,0,0,305.11,45q-3.93,4.36-3.93,13V91.1H282V25h18.29v7.61a24.34,24.34,0,0,1,9-6.38,30.39,30.39,0,0,1,11.72-2.21,28.31,28.31,0,0,1,12.65,2.77,22.31,22.31,0,0,1,9.08,8,27.21,27.21,0,0,1,10.26-8,32.35,32.35,0,0,1,13.57-2.82Q379,24.06,386.33,31.37Z"/><path class="cls-3" d="M446.93,5.16h19.88V91.1H446.93Z"/><path class="cls-3" d="M541.65,28.3A30.43,30.43,0,0,1,553.5,40.21a36,36,0,0,1,4.29,17.86,36,36,0,0,1-4.29,17.87,30.56,30.56,0,0,1-11.85,11.91,33.72,33.72,0,0,1-16.76,4.24q-12.66,0-19.9-8v30.82H485.84V25h18.3v7.61q7.11-8.58,20.75-8.59A33.72,33.72,0,0,1,541.65,28.3Zm-8,43.09q4.73-5,4.72-13.32t-4.72-13.32a17.2,17.2,0,0,0-24.19,0q-4.73,5-4.73,13.32t4.73,13.32a17.18,17.18,0,0,0,24.19,0Z"/><path class="cls-3" d="M576.7,90.06A42.2,42.2,0,0,1,564.17,85l6.39-13.75a40.14,40.14,0,0,0,10.68,4.6,44.7,44.7,0,0,0,12.28,1.78q12.15,0,12.16-6,0-2.82-3.32-4a48.82,48.82,0,0,0-10.19-2.09,97.24,97.24,0,0,1-13.38-2.83A20.74,20.74,0,0,1,569.64,57q-3.87-4-3.87-11.54a18.08,18.08,0,0,1,3.62-11.11A23.33,23.33,0,0,1,580,26.76a45.12,45.12,0,0,1,16.4-2.7,63.94,63.94,0,0,1,13.93,1.54,39,39,0,0,1,11.48,4.23l-6.39,13.63a38.13,38.13,0,0,0-19-4.91q-6.15,0-9.21,1.72c-2,1.14-3.07,2.62-3.07,4.42q0,3.08,3.31,4.29a57.85,57.85,0,0,0,10.56,2.34A113.94,113.94,0,0,1,611.2,54.2a20,20,0,0,1,9,5.59Q624,63.84,624,71.09A17.45,17.45,0,0,1,620.29,82a23.56,23.56,0,0,1-10.75,7.43,47.85,47.85,0,0,1-16.76,2.65A64.2,64.2,0,0,1,576.7,90.06Z"/><path class="cls-3" d="M702.3,25V91.1H684.13V83.25a25.47,25.47,0,0,1-9.08,6.56,28.54,28.54,0,0,1-11.42,2.28q-13,0-20.63-7.49t-7.61-22.23V25h19.15v34.5q0,16,13.38,16A14.37,14.37,0,0,0,679,71q4.18-4.47,4.18-13.31V25Z"/><path class="cls-3" d="M824.41,31.37q7.3,7.29,7.31,21.92V91.1H812.56V56.23q0-7.86-3.25-11.72T800,40.64q-6.76,0-10.69,4.36t-3.92,13V91.1H766.27V56.23q0-15.58-12.52-15.59A13.5,13.5,0,0,0,743.19,45q-3.93,4.36-3.93,13V91.1H720.11V25H738.4v7.61a24.3,24.3,0,0,1,9-6.38,30.44,30.44,0,0,1,11.73-2.21,28.34,28.34,0,0,1,12.65,2.77,22.31,22.31,0,0,1,9.08,8,27.14,27.14,0,0,1,10.26-8,32.34,32.34,0,0,1,13.56-2.82Q817.11,24.06,824.41,31.37Z"/><path class="cls-3" d="M887.76,89a120.41,120.41,0,0,1-4-31.56,121,121,0,0,1,4-31.62A87.09,87.09,0,0,1,899.12,0h18.3a111.12,111.12,0,0,0-11.3,27.68,120.66,120.66,0,0,0-3.56,29.78,120.46,120.46,0,0,0,3.56,29.77,111.18,111.18,0,0,0,11.3,27.69h-18.3A89.09,89.09,0,0,1,887.76,89Z"/><path class="cls-3" d="M928.83,5.16h39q14,0,24.75,5.34a39.89,39.89,0,0,1,16.69,15,42.23,42.23,0,0,1,6,22.59,42.23,42.23,0,0,1-6,22.59,40,40,0,0,1-16.69,15q-10.75,5.34-24.75,5.34h-39ZM966.9,74.77q12.89,0,20.56-7.18t7.67-19.46q0-12.29-7.67-19.47T966.9,21.49H948.72V74.77Z"/><path class="cls-3" d="M1095.44,25V91.1h-18.17V83.25a25.3,25.3,0,0,1-9.08,6.56,28.51,28.51,0,0,1-11.42,2.28q-13,0-20.63-7.49t-7.61-22.23V25h19.15v34.5q0,16,13.39,16a14.4,14.4,0,0,0,11-4.49q4.17-4.47,4.17-13.31V25Z"/><path class="cls-3" d="M1217.55,31.37q7.31,7.29,7.31,21.92V91.1H1205.7V56.23q0-7.86-3.25-11.72t-9.27-3.87q-6.75,0-10.68,4.36t-3.93,13V91.1h-19.16V56.23q0-15.58-12.52-15.59A13.5,13.5,0,0,0,1136.33,45q-3.93,4.36-3.93,13V91.1h-19.15V25h18.29v7.61a24.34,24.34,0,0,1,9-6.38,30.39,30.39,0,0,1,11.72-2.21,28.31,28.31,0,0,1,12.65,2.77,22.4,22.4,0,0,1,9.09,8,27.1,27.1,0,0,1,10.25-8,32.35,32.35,0,0,1,13.57-2.82Q1210.24,24.06,1217.55,31.37Z"/><path class="cls-3" d="M1346.35,31.37q7.31,7.29,7.3,21.92V91.1H1334.5V56.23q0-7.86-3.25-11.72T1322,40.64q-6.76,0-10.68,4.36c-2.63,2.91-3.93,7.22-3.93,13V91.1h-19.16V56.23q0-15.58-12.52-15.59A13.5,13.5,0,0,0,1265.13,45q-3.93,4.36-3.93,13V91.1h-19.15V25h18.29v7.61a24.3,24.3,0,0,1,9-6.38,30.48,30.48,0,0,1,11.73-2.21,28.31,28.31,0,0,1,12.65,2.77,22.31,22.31,0,0,1,9.08,8,27.18,27.18,0,0,1,10.25-8,32.42,32.42,0,0,1,13.57-2.82Q1339,24.06,1346.35,31.37Z"/><path class="cls-3" d="M1435.18,25l-29.84,70.12q-4.54,11.41-11.23,16.08A27.5,27.5,0,0,1,1378,115.9a33.72,33.72,0,0,1-10.2-1.59,22.43,22.43,0,0,1-8.22-4.42l7-13.63a16.48,16.48,0,0,0,5.09,3.07,16.06,16.06,0,0,0,5.71,1.1,10.14,10.14,0,0,0,6.39-1.9,16.2,16.2,0,0,0,4.42-6.32l.24-.62L1359.79,25h19.77l18.54,44.82L1416.76,25Z"/><path class="cls-3" d="M1435.42,114.92a113.34,113.34,0,0,0,11.36-27.69,118.57,118.57,0,0,0,3.62-29.77,118.76,118.76,0,0,0-3.62-29.78A113.28,113.28,0,0,0,1435.42,0h18.3a83.66,83.66,0,0,1,11.48,25.72,121.52,121.52,0,0,1,4,31.74,121.76,121.76,0,0,1-3.93,31.61,84.24,84.24,0,0,1-11.54,25.85Z"/></g></g></g></g></g></svg>