<svg xmlns="http://www.w3.org/2000/svg" width="20.073" height="16.924" viewBox="0 0 20.073 16.924"><defs><style>.a,.b{fill:none;stroke-miterlimit:10;}.a{stroke:#283350;}.c,.d{stroke:none;}.d{fill:#283350;}</style></defs><g transform="translate(-1175.527 -375.25)"><g transform="translate(1176 376.25)"><line class="a" y1="8.551" transform="translate(2.269 6.873)"/><line class="a" y2="8.551" transform="translate(16.586 6.873)"/><line class="a" y2="10" transform="translate(9.388 5.5)"/><path class="a" d="M460.8,601.953H441.668" transform="translate(-441.668 -586.529)"/><g class="b" transform="translate(-443.224 -548.181)"><path class="c" d="M456.316,548.181h-7.082a2.517,2.517,0,0,0-1.566.546l-3.65,2.9a.708.708,0,0,0-.268.555h0a1.863,1.863,0,0,0,1.732,1.886,1.813,1.813,0,0,0,1.809-1.261.659.659,0,0,1,.621-.475h.133a.639.639,0,0,1,.6.464,1.812,1.812,0,0,0,1.73,1.274h0a1.812,1.812,0,0,0,1.73-1.274.661.661,0,0,1,.656-.448l.1,0a.659.659,0,0,1,.6.469,1.812,1.812,0,0,0,3.453-.024.638.638,0,0,1,.6-.464h.133a.659.659,0,0,1,.621.475,1.813,1.813,0,0,0,1.984,1.245,1.854,1.854,0,0,0,1.557-1.856h0a.735.735,0,0,0-.28-.577l-3.668-2.895A2.518,2.518,0,0,0,456.316,548.181Z"/><path class="d" d="M 449.234375 548.1810302734375 C 448.6659545898438 548.1810302734375 448.1139526367188 548.37353515625 447.6687622070312 548.7273559570312 L 444.01904296875 551.625 C 443.8496704101562 551.7592163085938 443.7510375976562 551.9638061523438 443.7510375976562 552.1803588867188 C 443.7510375976562 553.1631469726562 444.5011596679688 554.0225830078125 445.4832153320312 554.0661010742188 C 446.327880859375 554.1041870117188 447.0514526367188 553.5619506835938 447.2924194335938 552.8049926757812 C 447.3806762695312 552.5279541015625 447.6229248046875 552.32958984375 447.9134521484375 552.32958984375 L 448.0463256835938 552.32958984375 C 448.32958984375 552.32958984375 448.5654907226562 552.5235595703125 448.6497192382812 552.7940673828125 C 448.8792724609375 553.531982421875 449.5664672851562 554.0678100585938 450.3799438476562 554.0678100585938 L 450.380126953125 554.0678100585938 C 451.1936645507812 554.0678100585938 451.8803100585938 553.531982421875 452.10986328125 552.7938232421875 C 452.1967163085938 552.514404296875 452.4728393554688 552.3368530273438 452.7659301757812 552.345703125 L 452.8702392578125 552.34814453125 C 453.15185546875 552.3560791015625 453.38427734375 552.5496826171875 453.4718627929688 552.817626953125 C 453.7084350585938 553.543212890625 454.3895263671875 554.0678100585938 455.1947021484375 554.0678100585938 C 456.0083618164062 554.0678100585938 456.6953125 553.531982421875 456.9251098632812 552.7940673828125 C 457.0092163085938 552.5235595703125 457.2449951171875 552.32958984375 457.5281982421875 552.32958984375 L 457.6611328125 552.32958984375 C 457.9517211914062 552.32958984375 458.1942138671875 552.5279541015625 458.2822875976562 552.8049926757812 C 458.5396728515625 553.613525390625 459.3471984863281 554.1762084960938 460.2662963867188 554.05029296875 C 461.172119140625 553.9259033203125 461.8236694335938 553.1085205078125 461.8236694335938 552.194091796875 C 461.8236694335938 551.96923828125 461.7206420898438 551.7567138671875 461.5439453125 551.6172485351562 L 457.8757934570312 548.722412109375 C 457.4315795898438 548.3718872070312 456.882080078125 548.1810302734375 456.316162109375 548.1810302734375 L 449.234375 548.1810302734375 M 449.234375 547.1810302734375 L 456.316162109375 547.1810302734375 C 457.103271484375 547.1810302734375 457.8771362304688 547.4496459960938 458.4952392578125 547.9373779296875 L 462.1634521484375 550.832275390625 C 462.5830383300781 551.1634521484375 462.8236694335938 551.6597900390625 462.8236694335938 552.194091796875 C 462.8236694335938 553.6275024414062 461.78271484375 554.8514404296875 460.40234375 555.041015625 C 460.2720336914062 555.0588989257812 460.1397399902344 555.0679931640625 460.0092468261719 555.0679931640625 C 459.0048828125 555.0679931640625 458.1024475097656 554.5426635742188 457.6021118164062 553.7116088867188 C 457.1021728515625 554.5430908203125 456.200927734375 555.0678100585938 455.1947021484375 555.0678100585938 C 454.1920166015625 555.0678100585938 453.2880554199219 554.5418090820312 452.7874145507812 553.7108154296875 C 452.2878723144531 554.5427856445312 451.3866271972656 555.0678100585938 450.380126953125 555.0678100585938 C 449.37353515625 555.0678100585938 448.4722290039062 554.5430297851562 447.9725646972656 553.711669921875 C 447.4513854980469 554.5772094726562 446.4960021972656 555.1121215820312 445.4392395019531 555.0651245117188 C 444.6994018554688 555.0323486328125 444.0133666992188 554.7059936523438 443.5071105957031 554.1461791992188 C 443.0195617675781 553.60693359375 442.7510375976562 552.9088134765625 442.7510375976562 552.1803588867188 C 442.7510375976562 551.6551513671875 442.9868469238281 551.1670532226562 443.3979797363281 550.8412475585938 L 447.0469665527344 547.9441528320312 C 447.6660461425781 547.4521484375 448.4429931640625 547.1810302734375 449.234375 547.1810302734375 Z"/></g></g></g></svg>