<svg xmlns="http://www.w3.org/2000/svg" width="55.312" height="21.996" viewBox="0 0 55.312 21.996"><defs><style>.a{isolation:isolate;}.b{fill:#fbd436;}.c{fill:#fff;}</style></defs><g transform="translate(-352.291 -742.909)"><g class="a"><g class="a"><path class="b" d="M355.274,753.741a5.579,5.579,0,0,1-2.191-2.072,5.959,5.959,0,0,1,0-5.937,5.576,5.576,0,0,1,2.191-2.071,6.934,6.934,0,0,1,6.281,0,5.712,5.712,0,0,1,0,10.08,6.934,6.934,0,0,1-6.281,0Zm4.936-1.912a3.268,3.268,0,0,0,1.256-1.272,4.005,4.005,0,0,0,0-3.712,3.262,3.262,0,0,0-1.256-1.272,3.749,3.749,0,0,0-3.584,0,3.266,3.266,0,0,0-1.255,1.272,4.005,4.005,0,0,0,0,3.712,3.272,3.272,0,0,0,1.255,1.272,3.749,3.749,0,0,0,3.584,0Z"/><path class="b" d="M369.09,745.181v2.96h5.184v2.08H369.09v4.08H366.5V743.1h8.463v2.08Z"/><path class="b" d="M379.314,745.181v2.96H384.5v2.08h-5.184v4.08h-2.592V743.1h8.465v2.08Z"/><path class="b" d="M395.618,752.221v2.08h-8.672V743.1h8.464v2.08h-5.888v2.431h5.2v2.017h-5.2v2.592Z"/><path class="b" d="M404.818,754.3l-2.16-3.12h-2.384v3.12h-2.591V743.1h4.847a6.231,6.231,0,0,1,2.584.5,3.843,3.843,0,0,1,1.689,1.408,3.89,3.89,0,0,1,.592,2.16,3.654,3.654,0,0,1-2.3,3.536l2.513,3.6Zm-.656-8.584a2.72,2.72,0,0,0-1.775-.5h-2.113v3.9h2.113a2.686,2.686,0,0,0,1.775-.513,2.015,2.015,0,0,0,0-2.887Z"/></g></g><path class="c" d="M395.083,759.572A24.055,24.055,0,0,1,387.552,764h0a23.333,23.333,0,0,1-13.938-.33,29.674,29.674,0,0,1-4.426-1.912,1.413,1.413,0,0,1-.836-1.816c.013-.035.027-.07.043-.1a1.455,1.455,0,0,1,2.031-.328c.028.021.056.042.083.064.066,0,.066,0,.132.066a20.4,20.4,0,0,0,8.852,3.369c5.417.727,11.56-1.451,15.392-3.765a.291.291,0,0,1,.33.066A.264.264,0,0,1,395.083,759.572Z"/></g></svg>