<svg xmlns="http://www.w3.org/2000/svg" width="15.889" height="14.955" viewBox="0 0 15.889 14.955"><defs><style>.a{fill:#44566f;}</style></defs><path class="a" d="M642.147,511.266a1.624,1.624,0,0,0,0-2.78,2.413,2.413,0,0,1-.544-.722,2.46,2.46,0,0,1,0-.939,2.091,2.091,0,0,0-.192-1.537,2.224,2.224,0,0,0-1.439-.657,2.55,2.55,0,0,1-.9-.282,2.453,2.453,0,0,1-.542-.745,1.635,1.635,0,0,0-2.619-.857,1.593,1.593,0,0,1-1.854,0,1.635,1.635,0,0,0-2.619.857,2.45,2.45,0,0,1-.542.745,2.548,2.548,0,0,1-.9.282,2.224,2.224,0,0,0-1.439.657,2.09,2.09,0,0,0-.192,1.537,2.46,2.46,0,0,1,0,.939,2.42,2.42,0,0,1-.544.721,1.624,1.624,0,0,0,0,2.78,2.422,2.422,0,0,1,.544.721,2.461,2.461,0,0,1,0,.939,2.09,2.09,0,0,0,.192,1.537,2.225,2.225,0,0,0,1.439.657,2.549,2.549,0,0,1,.9.282,2.45,2.45,0,0,1,.542.745,1.635,1.635,0,0,0,2.619.856,1.594,1.594,0,0,1,1.854,0,2.979,2.979,0,0,0,1.169.349,1.179,1.179,0,0,0,.36-.054,2.191,2.191,0,0,0,1.091-1.151,2.453,2.453,0,0,1,.542-.745,2.554,2.554,0,0,1,.9-.282,2.225,2.225,0,0,0,1.439-.657,2.092,2.092,0,0,0,.192-1.537,2.459,2.459,0,0,1,0-.939A2.418,2.418,0,0,1,642.147,511.266Zm-1.2.511a2.888,2.888,0,0,0-.026,1.227,1.7,1.7,0,0,1-.064,1.058,1.783,1.783,0,0,1-1.015.391,2.994,2.994,0,0,0-1.172.4,2.885,2.885,0,0,0-.739.963c-.209.368-.426.748-.7.836a1.773,1.773,0,0,1-1.026-.266,2.236,2.236,0,0,0-2.431,0,1.772,1.772,0,0,1-1.026.266c-.274-.087-.491-.468-.7-.836a2.884,2.884,0,0,0-.739-.963,3,3,0,0,0-1.172-.4,1.784,1.784,0,0,1-1.015-.391,1.7,1.7,0,0,1-.064-1.058,2.888,2.888,0,0,0-.026-1.227,2.835,2.835,0,0,0-.7-.974c-.295-.312-.6-.635-.6-.928s.3-.615.6-.927a2.835,2.835,0,0,0,.7-.974,2.888,2.888,0,0,0,.026-1.227,1.7,1.7,0,0,1,.064-1.058,1.783,1.783,0,0,1,1.015-.391,3,3,0,0,0,1.172-.4,2.884,2.884,0,0,0,.739-.963c.209-.368.426-.749.7-.836a1.773,1.773,0,0,1,1.026.266,2.236,2.236,0,0,0,2.431,0,1.774,1.774,0,0,1,1.026-.266c.274.087.491.468.7.836a2.885,2.885,0,0,0,.739.963,3,3,0,0,0,1.172.4,1.782,1.782,0,0,1,1.015.391,1.7,1.7,0,0,1,.064,1.058,2.887,2.887,0,0,0,.026,1.227,2.836,2.836,0,0,0,.7.974c.295.312.6.635.6.927s-.3.615-.6.928A2.836,2.836,0,0,0,640.944,511.777Zm-6.892-3.541a1.565,1.565,0,0,0-1.6-1.732,1.677,1.677,0,0,0-1.663,1.831,1.623,1.623,0,0,0,1.617,1.759A1.675,1.675,0,0,0,634.052,508.236Zm-1.617,1.113c-.4,0-.612-.44-.6-1.05,0-.583.183-1.05.6-1.05s.585.458.585,1.05C633.019,508.954,632.827,509.349,632.434,509.349Zm4.3-3.047-4.3,7.6h.933l4.307-7.6Zm1.051,3.522a1.677,1.677,0,0,0-1.663,1.831,1.623,1.623,0,0,0,1.617,1.759,1.675,1.675,0,0,0,1.645-1.858A1.565,1.565,0,0,0,637.789,509.823Zm-.018,2.845c-.4,0-.612-.44-.6-1.05,0-.583.183-1.05.6-1.05s.585.458.585,1.05C638.355,512.273,638.164,512.668,637.771,512.668Z" transform="translate(-627.042 -502.399)"/></svg>