<svg xmlns="http://www.w3.org/2000/svg" width="17" height="16.299" viewBox="0 0 17 16.299"><defs><style>.a{fill:#fbd436;}</style></defs><path class="a" d="M1194.2,282.785a1.874,1.874,0,0,0,0-3.151,2.541,2.541,0,0,1-.547-.729,2.632,2.632,0,0,1,.008-.957,1.831,1.831,0,0,0-1.817-2.489,1.462,1.462,0,0,1-1.438-1.043,2.422,2.422,0,0,0-1.219-1.293,2.385,2.385,0,0,0-1.7.322,1.548,1.548,0,0,1-1.854,0,2.384,2.384,0,0,0-1.7-.322,2.422,2.422,0,0,0-1.219,1.293,2.579,2.579,0,0,1-.537.761,2.607,2.607,0,0,1-.9.282,1.831,1.831,0,0,0-1.817,2.489,2.629,2.629,0,0,1,.008.957,2.54,2.54,0,0,1-.547.729,1.873,1.873,0,0,0,0,3.151,2.54,2.54,0,0,1,.547.729,2.629,2.629,0,0,1-.008.957,1.831,1.831,0,0,0,1.817,2.489,1.462,1.462,0,0,1,1.438,1.043,2.422,2.422,0,0,0,1.219,1.292,1.324,1.324,0,0,0,.413.064,3.22,3.22,0,0,0,1.288-.385,1.548,1.548,0,0,1,1.854,0,2.386,2.386,0,0,0,1.7.322A2.423,2.423,0,0,0,1190.4,288a1.461,1.461,0,0,1,1.438-1.043,1.831,1.831,0,0,0,1.817-2.489,2.632,2.632,0,0,1-.008-.957A2.538,2.538,0,0,1,1194.2,282.785Zm-.714-.662a3.129,3.129,0,0,0-.76,1.091,3.244,3.244,0,0,0-.033,1.369,1.827,1.827,0,0,1-.045,1.051c-.147.2-.579.288-1,.372a2.347,2.347,0,0,0-2.1,1.523c-.209.375-.426.762-.669.841a1.817,1.817,0,0,1-.994-.281,2.436,2.436,0,0,0-2.665,0,1.822,1.822,0,0,1-.994.281c-.244-.079-.46-.466-.669-.841a3.176,3.176,0,0,0-.814-1.073,3.209,3.209,0,0,0-1.284-.45c-.417-.083-.849-.17-1-.372a1.826,1.826,0,0,1-.045-1.051,3.243,3.243,0,0,0-.033-1.369,3.13,3.13,0,0,0-.76-1.091c-.295-.318-.6-.646-.6-.913s.3-.6.6-.913a3.131,3.131,0,0,0,.76-1.091,3.243,3.243,0,0,0,.033-1.369,1.826,1.826,0,0,1,.045-1.051c.147-.2.578-.288,1-.372a2.347,2.347,0,0,0,2.1-1.523c.209-.375.426-.762.67-.841a.377.377,0,0,1,.116-.017,2.6,2.6,0,0,1,.877.3,2.436,2.436,0,0,0,2.665,0,1.823,1.823,0,0,1,.994-.281c.244.079.46.467.669.841a2.347,2.347,0,0,0,2.1,1.523c.417.083.849.17,1,.372a1.827,1.827,0,0,1,.045,1.051,3.244,3.244,0,0,0,.033,1.369,3.131,3.131,0,0,0,.76,1.091c.295.318.6.646.6.913S1193.78,281.8,1193.485,282.123Zm-7.912-2.674a1.668,1.668,0,0,0-1.686-1.86,1.788,1.788,0,0,0-1.754,1.966,1.73,1.73,0,0,0,1.706,1.889A1.786,1.786,0,0,0,1185.573,279.449Zm-1.706,1.195c-.424,0-.646-.472-.636-1.127,0-.626.193-1.127.636-1.127s.617.491.617,1.127C1184.484,280.219,1184.282,280.643,1183.868,280.643Zm5.647.51a1.788,1.788,0,0,0-1.754,1.966,1.729,1.729,0,0,0,1.705,1.889,1.785,1.785,0,0,0,1.734-1.994A1.668,1.668,0,0,0,1189.514,281.153Zm-.019,3.054c-.424,0-.646-.472-.636-1.127,0-.626.193-1.127.636-1.127s.617.491.617,1.127C1190.112,283.783,1189.909,284.207,1189.495,284.207Zm-1.089-6.836-4.53,8.162h.984l4.542-8.162Z" transform="translate(-1178.059 -273.06)"/></svg>