<svg xmlns="http://www.w3.org/2000/svg" viewBox="0 0 1086.24 173.29"><defs><style>.cls-1{fill:#fbd436;}.cls-2{isolation:isolate;}.cls-3{fill:#283350;}</style></defs><g id="Layer_2" data-name="Layer 2"><g id="Layer_1-2" data-name="Layer 1"><g id="ordering"><path id="Path_4738" data-name="Path 4738" class="cls-1" d="M1045.15,135.23a171.67,171.67,0,0,1-53.73,31.59h0A166.52,166.52,0,0,1,892,164.46a211.61,211.61,0,0,1-31.58-13.67,10.09,10.09,0,0,1-5.94-13c.09-.24.18-.47.29-.7a10.37,10.37,0,0,1,14.49-2.34c.2.14.4.3.59.46.47,0,.47,0,.94.47a145.73,145.73,0,0,0,63.16,24c38.65,5.19,82.49-10.37,109.83-26.86a2.05,2.05,0,0,1,2.36.47A1.88,1.88,0,0,1,1045.15,135.23Z"/><g id="Ordering_for_One" data-name="Ordering for One" class="cls-2"><g class="cls-2"><path class="cls-3" d="M22.9,92.33A42.8,42.8,0,0,1,6.08,76.43,43.4,43.4,0,0,1,0,53.66,43.44,43.44,0,0,1,6.08,30.88,42.87,42.87,0,0,1,22.9,15,50.23,50.23,0,0,1,47,9.21,49.87,49.87,0,0,1,71.09,15a43,43,0,0,1,23,38.68,43,43,0,0,1-23,38.67A49.76,49.76,0,0,1,47,98.11,50.12,50.12,0,0,1,22.9,92.33ZM60.78,77.66a25.19,25.19,0,0,0,9.64-9.76,28.73,28.73,0,0,0,3.49-14.24,28.76,28.76,0,0,0-3.49-14.25,25.26,25.26,0,0,0-9.64-9.76A27.33,27.33,0,0,0,47,26.15a27.34,27.34,0,0,0-13.76,3.5,25.26,25.26,0,0,0-9.64,9.76,28.76,28.76,0,0,0-3.49,14.25A28.73,28.73,0,0,0,23.63,67.9a25.19,25.19,0,0,0,9.64,9.76A27.34,27.34,0,0,0,47,81.16,27.33,27.33,0,0,0,60.78,77.66Z"/><path class="cls-3" d="M135.24,32.05a34.37,34.37,0,0,1,13.45-2.46V47.27c-2.13-.16-3.56-.24-4.3-.24q-8.23,0-12.89,4.6t-4.67,13.81V96.63H107.68v-66H126v8.71A21.23,21.23,0,0,1,135.24,32.05Z"/><path class="cls-3" d="M226.78,5.53v91.1h-18.3V89q-7.12,8.6-20.63,8.59A34.34,34.34,0,0,1,171,93.44a29.91,29.91,0,0,1-11.85-11.91,36.36,36.36,0,0,1-4.29-17.93,36.32,36.32,0,0,1,4.29-17.92A30,30,0,0,1,171,33.76a34.34,34.34,0,0,1,16.88-4.17q12.66,0,19.77,8v-32ZM203.2,76.92Q208,72,208,63.6T203.2,50.28a17.19,17.19,0,0,0-24.18,0q-4.8,5-4.8,13.32T179,76.92a17.17,17.17,0,0,0,24.18,0Z"/><path class="cls-3" d="M308.79,69h-50a15.52,15.52,0,0,0,6.39,9.7,21.09,21.09,0,0,0,12.52,3.57,25.43,25.43,0,0,0,9.15-1.54,22.06,22.06,0,0,0,7.42-4.85l10.2,11.05q-9.33,10.68-27.26,10.68a43.07,43.07,0,0,1-19.77-4.36,31.88,31.88,0,0,1-13.26-12.09,33.34,33.34,0,0,1-4.67-17.56,33.76,33.76,0,0,1,4.61-17.49A32.28,32.28,0,0,1,256.79,34a39.18,39.18,0,0,1,35.55-.19,30.53,30.53,0,0,1,12.34,12,35.67,35.67,0,0,1,4.48,18.11C309.16,64.09,309,65.81,308.79,69ZM264,47.76a15.67,15.67,0,0,0-5.4,10.07h32.53a15.78,15.78,0,0,0-5.4-10,16.14,16.14,0,0,0-10.8-3.75A16.53,16.53,0,0,0,264,47.76Z"/><path class="cls-3" d="M349.5,32.05a34.28,34.28,0,0,1,13.44-2.46V47.27c-2.13-.16-3.56-.24-4.3-.24q-8.22,0-12.89,4.6t-4.66,13.81V96.63H321.93v-66h18.3v8.71A21.23,21.23,0,0,1,349.5,32.05Z"/><path class="cls-3" d="M375.34,18.3A10,10,0,0,1,372,10.68a10,10,0,0,1,3.31-7.61A12.17,12.17,0,0,1,383.94,0a12.43,12.43,0,0,1,8.59,3,9.45,9.45,0,0,1,3.32,7.37,10.4,10.4,0,0,1-3.32,7.91,12,12,0,0,1-8.59,3.14A12.17,12.17,0,0,1,375.34,18.3Zm-1,12.28h19.15V96.63H374.36Z"/><path class="cls-3" d="M471.29,37q7.56,7.36,7.56,21.85V96.63H459.69V61.76q0-7.86-3.44-11.72t-9.94-3.87q-7.24,0-11.54,4.48T430.47,64V96.63H411.32v-66h18.29v7.73a25.48,25.48,0,0,1,9.45-6.45,33.06,33.06,0,0,1,12.41-2.27Q463.74,29.59,471.29,37Z"/><path class="cls-3" d="M565,30.58v55q0,18.17-9.46,27T528,121.43a68.8,68.8,0,0,1-18.17-2.33,40,40,0,0,1-14.25-6.75l7.62-13.75a31.29,31.29,0,0,0,10.56,5.46,41.93,41.93,0,0,0,12.77,2q9.93,0,14.67-4.48T545.88,88V85.21Q538.4,93.45,525,93.44a35.08,35.08,0,0,1-16.64-4,30.39,30.39,0,0,1-12-11.24A31.44,31.44,0,0,1,492,61.51a31.45,31.45,0,0,1,4.42-16.69,30.46,30.46,0,0,1,12-11.24,35.08,35.08,0,0,1,16.64-4q14.37,0,21.85,9.45V30.58ZM541.28,73.24a15.23,15.23,0,0,0,4.85-11.73,15.24,15.24,0,0,0-4.85-11.72q-4.86-4.49-12.46-4.48a17.87,17.87,0,0,0-12.53,4.48,15.15,15.15,0,0,0-4.91,11.72,15.14,15.14,0,0,0,4.91,11.73,17.87,17.87,0,0,0,12.53,4.48Q536.42,77.72,541.28,73.24Z"/><path class="cls-3" d="M638.58,32.05h16.95V46.78H639.07V96.63H619.92V46.78H609.73V32.05h10.19V29.1q0-11.3,6.69-17.92t18.85-6.64a35.36,35.36,0,0,1,8.16.92,19.91,19.91,0,0,1,6.45,2.65L655,22a13,13,0,0,0-7.73-2.33q-8.73,0-8.72,9.57Z"/><path class="cls-3" d="M677,93.25a32.29,32.29,0,0,1-13-12.09,33.34,33.34,0,0,1-4.67-17.56A33.34,33.34,0,0,1,664,46,32.43,32.43,0,0,1,677,34a42.26,42.26,0,0,1,37.39,0A32.59,32.59,0,0,1,727.23,46,33.34,33.34,0,0,1,731.9,63.6a33.34,33.34,0,0,1-4.67,17.56,32.45,32.45,0,0,1-12.89,12.09,42.26,42.26,0,0,1-37.39,0Zm30.82-16.33q4.72-5,4.73-13.32t-4.73-13.32a16,16,0,0,0-12.1-5,16.17,16.17,0,0,0-12.15,5q-4.78,5-4.79,13.32t4.79,13.32a16.14,16.14,0,0,0,12.15,5A15.94,15.94,0,0,0,707.77,76.92Z"/><path class="cls-3" d="M772.23,32.05a34.35,34.35,0,0,1,13.44-2.46V47.27q-3.2-.24-4.29-.24-8.24,0-12.9,4.6t-4.66,13.81V96.63H744.67v-66H763v8.71A21.23,21.23,0,0,1,772.23,32.05Z"/><path class="cls-3" d="M851.18,92.33a42.83,42.83,0,0,1-16.83-15.9,43.49,43.49,0,0,1-6.07-22.77,43.52,43.52,0,0,1,6.07-22.78A42.9,42.9,0,0,1,851.18,15a53.19,53.19,0,0,1,48.19,0,43,43,0,0,1,23,38.68,43,43,0,0,1-23,38.67,53.11,53.11,0,0,1-48.19,0Zm37.87-14.67a25.06,25.06,0,0,0,9.64-9.76,28.73,28.73,0,0,0,3.5-14.24,28.77,28.77,0,0,0-3.5-14.25,25.12,25.12,0,0,0-9.64-9.76,28.76,28.76,0,0,0-27.5,0,25.26,25.26,0,0,0-9.64,9.76,28.77,28.77,0,0,0-3.5,14.25,28.73,28.73,0,0,0,3.5,14.24,25.19,25.19,0,0,0,9.64,9.76,28.76,28.76,0,0,0,27.5,0Z"/><path class="cls-3" d="M995.94,37q7.54,7.36,7.55,21.85V96.63H984.33V61.76q0-7.86-3.43-11.72T971,46.17q-7.25,0-11.54,4.48T955.11,64V96.63H936v-66h18.29v7.73a25.52,25.52,0,0,1,9.46-6.45,33,33,0,0,1,12.4-2.27Q988.38,29.59,995.94,37Z"/><path class="cls-3" d="M1085.87,69h-50a15.55,15.55,0,0,0,6.38,9.7,21.12,21.12,0,0,0,12.53,3.57,25.34,25.34,0,0,0,9.14-1.54,22,22,0,0,0,7.43-4.85l10.2,11.05q-9.35,10.68-27.26,10.68a43.07,43.07,0,0,1-19.77-4.36,31.88,31.88,0,0,1-13.26-12.09,33.34,33.34,0,0,1-4.67-17.56,33.76,33.76,0,0,1,4.61-17.49A32.28,32.28,0,0,1,1033.87,34a39.18,39.18,0,0,1,35.55-.19,30.53,30.53,0,0,1,12.34,12,35.77,35.77,0,0,1,4.48,18.11C1086.24,64.09,1086.12,65.81,1085.87,69Zm-44.81-21.24a15.73,15.73,0,0,0-5.41,10.07h32.54a15.82,15.82,0,0,0-5.4-10A16.15,16.15,0,0,0,1052,44.08,16.49,16.49,0,0,0,1041.06,47.76Z"/></g></g></g></g></g></svg>