<svg xmlns="http://www.w3.org/2000/svg" width="30" height="30" viewBox="0 0 30 30"><defs><style>.a{fill:#fff;stroke:#0a83ea;stroke-width:1.25px;}.b{fill:#0a83ea;}.c{stroke:none;}.d{fill:none;}</style></defs><g transform="translate(-662 -436)"><g class="a" transform="translate(662 436)"><circle class="c" cx="15" cy="15" r="15"/><circle class="d" cx="15" cy="15" r="14.375"/></g><g transform="translate(669.385 444.241)"><path class="b" d="M18.173,9.756h-.523V6.616a.523.523,0,0,0-.523-.523H4.567a.523.523,0,0,1-.523-.429V5.476a.523.523,0,0,1,.523-.429H16.906a.523.523,0,1,0,0-1.047H4.567A1.57,1.57,0,0,0,3,5.57a1.612,1.612,0,0,0,0,.188V16.522a2.145,2.145,0,0,0,2.161,2.13H17.126a.523.523,0,0,0,.523-.523v-3.14h.523a.523.523,0,0,0,.523-.523V10.279A.523.523,0,0,0,18.173,9.756ZM16.6,17.605H5.159a1.1,1.1,0,0,1-1.115-1.083V7.077a1.627,1.627,0,0,0,.523.063H16.6V9.756H12.94a2.616,2.616,0,1,0,0,5.233H16.6Zm1.047-3.663H12.94a1.57,1.57,0,0,1,0-3.14h4.709Z" transform="translate(-2.995 -4)"/><path class="b" d="M23.08,19.285a.785.785,0,1,1-.785-.785A.785.785,0,0,1,23.08,19.285Z" transform="translate(-11.821 -10.912)"/></g></g></svg>