<svg xmlns="http://www.w3.org/2000/svg" width="74.301" height="18.005" viewBox="0 0 74.301 18.005"><defs><style>.a{fill:#009ee3;}.a,.b,.c{fill-rule:evenodd;}.b{fill:#113984;}.c{fill:#172c70;}</style></defs><g transform="translate(0 0)"><path class="a" d="M77.572,64.488h5.076c2.727,0,3.755,1.378,3.6,3.408-.262,3.347-2.285,5.2-4.97,5.2H79.917c-.368,0-.616.241-.716.9l-.574,3.84a.429.429,0,0,1-.365.414H75.071c-.3,0-.407-.23-.329-.726L76.69,65.214A.771.771,0,0,1,77.572,64.488Z" transform="translate(-71.089 -60.248)"/><path class="b" d="M86.561,64.423c1.714,0,3.294.932,3.078,3.248-.262,2.752-1.736,4.275-4.063,4.279H83.543c-.29,0-.432.241-.51.73l-.393,2.5c-.057.379-.251.563-.538.563H80.21c-.3,0-.4-.191-.34-.623L81.432,65.1c.078-.492.262-.677.6-.677h4.53Zm-3.078,5.363h1.541c.963-.035,1.6-.7,1.665-1.906a1.163,1.163,0,0,0-1.261-1.272l-1.449.007-.5,3.17Zm11.3,5.189c.174-.156.347-.237.322-.046l-.06.464c-.032.244.064.372.29.372h1.679c.283,0,.422-.113.489-.553l1.038-6.5c.05-.326-.028-.485-.276-.485H96.415c-.166,0-.248.092-.29.347l-.067.4c-.035.209-.131.248-.22.035-.315-.74-1.116-1.073-2.228-1.048a4.628,4.628,0,0,0-4.527,4.545,3.124,3.124,0,0,0,3.1,3.482,3.321,3.321,0,0,0,2.607-1.01h0Zm-1.41-1A1.687,1.687,0,0,1,91.644,72a2.409,2.409,0,0,1,2.317-1.98A1.688,1.688,0,0,1,95.693,72a2.41,2.41,0,0,1-2.32,1.98Zm8.455-5.767h-1.7c-.351,0-.5.262-.383.584l2.115,6.192L99.78,77.936c-.174.244-.039.468.205.468H101.9a.588.588,0,0,0,.57-.276l6.5-9.334c.2-.287.106-.588-.223-.588h-1.81c-.312,0-.436.124-.613.383l-2.713,3.932L102.4,68.578a.519.519,0,0,0-.574-.368Z" transform="translate(-58.035 -60.413)"/><path class="a" d="M94.8,64.423c1.714,0,3.294.932,3.078,3.248-.262,2.752-1.736,4.275-4.063,4.279H91.781c-.29,0-.432.241-.51.73l-.393,2.5c-.057.379-.251.563-.538.563H88.448c-.3,0-.4-.191-.337-.623L89.673,65.1c.078-.5.262-.677.6-.677Zm-3.078,5.363h1.537c.963-.035,1.6-.7,1.668-1.906a1.164,1.164,0,0,0-1.261-1.272l-1.449.007-.5,3.17Zm11.3,5.189c.17-.156.347-.237.322-.046l-.06.464c-.032.244.064.372.287.372h1.682c.283,0,.418-.113.489-.553l1.034-6.5c.053-.326-.025-.485-.273-.485h-1.845c-.166,0-.248.092-.29.347l-.071.4c-.035.209-.131.248-.22.035-.312-.74-1.112-1.073-2.228-1.048a4.631,4.631,0,0,0-4.527,4.545,3.126,3.126,0,0,0,3.1,3.482,3.324,3.324,0,0,0,2.611-1.01h0Zm-1.406-1A1.689,1.689,0,0,1,99.882,72a2.41,2.41,0,0,1,2.32-1.98A1.685,1.685,0,0,1,103.93,72a2.412,2.412,0,0,1-2.317,1.98Zm7.747,1.8h-1.938a.23.23,0,0,1-.241-.22.173.173,0,0,1,0-.043l1.7-10.793a.33.33,0,0,1,.322-.262h1.941a.226.226,0,0,1,.237.216.2.2,0,0,1,0,.046l-1.7,10.793a.334.334,0,0,1-.322.266Z" transform="translate(-37.089 -60.413)"/><path class="b" d="M77,63.291h5.083c1.431,0,3.131.046,4.265,1.052a3.432,3.432,0,0,1,1.066,2.883C87.1,71.1,84.781,73.28,81.667,73.28H79.159c-.425,0-.708.283-.829,1.048l-.7,4.456c-.046.29-.17.46-.393.482H74.1c-.347,0-.471-.262-.379-.843l2.253-14.282A.9.9,0,0,1,77,63.291Z" transform="translate(-73.693 -63.291)"/><path class="c" d="M75.023,70.835l.886-5.618a.778.778,0,0,1,.886-.73H81.87a4.917,4.917,0,0,1,2.054.375c-.51,3.454-2.745,5.373-5.671,5.373h-2.5A.738.738,0,0,0,75.023,70.835Z" transform="translate(-70.311 -60.25)"/></g></svg>