<svg xmlns="http://www.w3.org/2000/svg" width="24.94" height="24.939" viewBox="0 0 24.94 24.939"><defs><style>.a{fill:#d9dade;}</style></defs><path class="a" d="M373.67,44.558A12.47,12.47,0,1,0,386.14,57.027,12.47,12.47,0,0,0,373.67,44.558Zm6.494,10.732c-.252,3.289-1.77,4.568-2.269,4.988l-.076.065a4.324,4.324,0,0,1-1.007.542,4.988,4.988,0,0,1-1.83.394,2.869,2.869,0,0,1-1.313-.3v0c-.043-.022-.084-.049-.126-.074s-.087-.048-.129-.075-.087-.064-.13-.1-.082-.059-.122-.093-.093-.087-.14-.131c-.031-.03-.064-.058-.094-.09-.057-.061-.11-.128-.164-.195-.017-.021-.035-.04-.051-.061l-.242-.317-.549,1.989-.464,1.683a6,6,0,0,1-.712,1.32c-.191-.055-.389-.12-.556-.18-.048-.02-.1-.043-.143-.063-.068-.03-.136-.059-.2-.09l-.008,0v0a10.224,10.224,0,0,1,.063-1.718v-.011c0-.021.009-.034.014-.053a1.071,1.071,0,0,1,.029-.116l.375-1.552.986-4.077-.014-.039-.007-.018-.024-.068a4.009,4.009,0,0,1-.135-2.412c.006-.014.543-1.432,1.585-1.432h0c.012,0,.024,0,.037,0a1.19,1.19,0,0,1,.241.028l.04.012.029.01.024.01.05.021.024.011c.026.012.052.026.081.043l.008,0c.033.019.067.041.1.066l.013.01q.044.033.089.073l.027.026c.026.024.05.05.075.078.01.011.02.023.029.035a1.015,1.015,0,0,1,.071.1c.006.009.013.016.019.025l0,.008a1.347,1.347,0,0,1,.095.2c0,.012.008.024.013.037a1.511,1.511,0,0,1,.065.243v0a1.831,1.831,0,0,1,.024.3c0,.017,0,.035,0,.053a2.353,2.353,0,0,1-.03.356l-.726,2.534-.021.074,0,.006a2.936,2.936,0,0,0-.039,1.376,1.118,1.118,0,0,0,.314.537,1.278,1.278,0,0,0,.088.093l.02.02c.021.019.043.04.068.062l.029.024q.042.035.093.073a1.866,1.866,0,0,0,1.113.365,2.661,2.661,0,0,0,1.469-.508c.185-.088,1.323-.749,1.783-3.764.017-.119.384-2.918-1.207-4.138A4.533,4.533,0,0,0,373.81,50.5a6.592,6.592,0,0,0-2.047.345,4.779,4.779,0,0,0-2.972,3.485,4.062,4.062,0,0,0,.581,3.158l.039.061.058.018c.027.018.074.108.024.33l-.271.9a.291.291,0,0,1-.229-.017l-.021-.01c-.09-.033-2.2-.853-1.752-4.568a5.941,5.941,0,0,1,3.653-4.44,8.435,8.435,0,0,1,2.98-.542,7.963,7.963,0,0,1,3.343.692,5.945,5.945,0,0,1,1,.738l-.014-.014.023.022c.03.027.059.056.09.084.06.056.121.112.182.175.042.043.084.089.126.134s.083.084.124.131l-.039-.039A5.436,5.436,0,0,1,380.164,55.29Z" transform="translate(-361.2 -44.558)"/></svg>