<svg xmlns="http://www.w3.org/2000/svg" width="109.016" height="91.651" viewBox="0 0 109.016 91.651"><defs><style>.a{fill:#26d07c;}.a,.b,.c{isolation:isolate;}.b{fill:#fbd436;}.c,.d,.e{fill:#293250;}.d{font-size:8px;font-family:Montserrat-Bold, Montserrat;font-weight:700;}</style></defs><g transform="translate(-43.764 4.205)"><g transform="translate(35.032 -4.205)"><path class="a" d="M3778.41,2240.838c-35.8,21.775-65.314,50.313-82.706,77.54h5.713c17.266-27.64,47.171-56.78,83.58-78.924q9.954-6.053,19.723-10.927v-1.8A268.287,268.287,0,0,0,3778.41,2240.838Z" transform="translate(-3686.973 -2226.728)"/><path class="b" d="M3824.072,2232.29q-1.634.959-3.273,1.949c-40.375,24.417-72.977,56.722-89.436,85.816h92.708Z" transform="translate(-3706.325 -2228.405)"/><path class="c" d="M3791.365,2240.247c-36.4,22.142-66.288,51.277-83.548,78.913h11.1c16.362-29.1,48.772-61.409,88.909-85.831q1.628-.991,3.253-1.949v-2.059Q3801.338,2234.2,3791.365,2240.247Z" transform="translate(-3693.333 -2227.509)"/></g><text class="d" transform="translate(139.479 64.766)"><tspan x="-37.44" y="0">Sapphire</tspan><tspan x="-42" y="8">Promoted</tspan></text><path class="e" d="M3174.223,2256.272l3.772,3.771,2.747-6.845h-5.285Zm-3.709,1.907v5.334l6.782-2.9-3.737-3.737Zm-7.719,2.475,6.82,2.738v-5.285l-3.049-1.224Zm12.67-8.355h5.333l-2.887-6.76-3.738,3.737Zm1.839-7.425-6.79-2.726v5.285l3.019,1.212Zm-12.59,8.324h-5.333l2.872,6.726,3.738-3.737Zm9.96-.461-1.373-3.216-3.245-1.3-3.216,1.373-1.3,3.246,1.373,3.215,3.245,1.3,3.216-1.373Zm-8.688-3.431-3.771-3.772-2.716,6.765h5.285Zm3.629-1.877v-5.334l-6.7,2.864,3.737,3.737Z" transform="translate(-3042.102 -2209.148)"/></g></svg>