<svg xmlns="http://www.w3.org/2000/svg" width="221.617" height="29.8" viewBox="0 0 221.617 29.8"><defs><style>.a{isolation:isolate;}.b{fill:#283350;}.c{fill:#ffd438;}</style></defs><g transform="translate(-268.24 -668.832)"><g class="a"><g class="a"><path class="b" d="M276.9,678.712v4.96H273.66v-5l-5.42-9h3.44l3.739,6.22,3.741-6.22h3.179Z"/><path class="b" d="M284.349,683.122a5.285,5.285,0,0,1-2.11-1.97,5.761,5.761,0,0,1,0-5.72,5.285,5.285,0,0,1,2.11-1.97,6.448,6.448,0,0,1,3.05-.71,6.382,6.382,0,0,1,3.04.71,5.3,5.3,0,0,1,2.1,1.97,5.768,5.768,0,0,1,0,5.72,5.3,5.3,0,0,1-2.1,1.97,6.382,6.382,0,0,1-3.04.71A6.448,6.448,0,0,1,284.349,683.122Zm5.02-2.66a3.443,3.443,0,0,0,0-4.34,2.6,2.6,0,0,0-1.97-.81,2.631,2.631,0,0,0-1.98.81,3.408,3.408,0,0,0,0,4.34,2.63,2.63,0,0,0,1.98.809A2.6,2.6,0,0,0,289.369,680.462Z"/><path class="b" d="M306.219,672.912v10.76h-2.96v-1.28a4.141,4.141,0,0,1-1.48,1.07,4.664,4.664,0,0,1-1.86.37,4.577,4.577,0,0,1-3.359-1.22,4.858,4.858,0,0,1-1.241-3.62v-6.08h3.12v5.62q0,2.6,2.181,2.6a2.341,2.341,0,0,0,1.8-.73,3.08,3.08,0,0,0,.681-2.171v-5.319Z"/><path class="b" d="M313.609,673.152a5.614,5.614,0,0,1,2.19-.4v2.88q-.521-.041-.7-.04a2.861,2.861,0,0,0-2.1.75,3.03,3.03,0,0,0-.76,2.25v5.08h-3.12v-10.76h2.98v1.42A3.472,3.472,0,0,1,313.609,673.152Z"/><path class="b" d="M326.469,682.972a6.977,6.977,0,0,1-2.74-2.59,7.447,7.447,0,0,1,0-7.42,6.977,6.977,0,0,1,2.74-2.59,8.664,8.664,0,0,1,7.85,0,7.14,7.14,0,0,1,0,12.6,8.664,8.664,0,0,1-7.85,0Zm6.17-2.39a4.088,4.088,0,0,0,1.57-1.59,5.007,5.007,0,0,0,0-4.64,4.088,4.088,0,0,0-1.57-1.59,4.679,4.679,0,0,0-4.48,0,4.088,4.088,0,0,0-1.57,1.59,5.007,5.007,0,0,0,0,4.64,4.088,4.088,0,0,0,1.57,1.59,4.686,4.686,0,0,0,4.48,0Z"/><path class="b" d="M344.769,673.152a5.614,5.614,0,0,1,2.19-.4v2.88q-.521-.041-.7-.04a2.859,2.859,0,0,0-2.1.75,3.03,3.03,0,0,0-.76,2.25v5.08h-3.12v-10.76h2.98v1.42A3.467,3.467,0,0,1,344.769,673.152Z"/><path class="b" d="M359.679,668.832v14.84H356.7v-1.24a4.115,4.115,0,0,1-3.36,1.4,5.592,5.592,0,0,1-2.75-.68,4.875,4.875,0,0,1-1.93-1.94,6.44,6.44,0,0,1,0-5.84,4.881,4.881,0,0,1,1.93-1.94,5.592,5.592,0,0,1,2.75-.68,4.1,4.1,0,0,1,3.22,1.3v-5.22Zm-3.84,11.63a3.408,3.408,0,0,0,0-4.34,2.8,2.8,0,0,0-3.94,0,3.408,3.408,0,0,0,0,4.34,2.8,2.8,0,0,0,3.94,0Z"/><path class="b" d="M373.039,679.172H364.9a2.535,2.535,0,0,0,1.04,1.58,3.444,3.444,0,0,0,2.04.58,4.121,4.121,0,0,0,1.49-.25,3.614,3.614,0,0,0,1.21-.79l1.66,1.8a5.578,5.578,0,0,1-4.44,1.74,7.015,7.015,0,0,1-3.22-.71,5.213,5.213,0,0,1-2.16-1.97,5.426,5.426,0,0,1-.76-2.86,5.5,5.5,0,0,1,.75-2.851,5.27,5.27,0,0,1,2.06-1.979,6.378,6.378,0,0,1,5.79-.03,4.969,4.969,0,0,1,2.01,1.95,5.822,5.822,0,0,1,.73,2.95Q373.1,678.392,373.039,679.172Zm-7.3-3.46a2.557,2.557,0,0,0-.88,1.64h5.3a2.582,2.582,0,0,0-.88-1.63,2.629,2.629,0,0,0-1.76-.61A2.686,2.686,0,0,0,365.739,675.712Z"/><path class="b" d="M379.669,673.152a5.614,5.614,0,0,1,2.19-.4v2.88q-.521-.041-.7-.04a2.858,2.858,0,0,0-2.1.75,3.03,3.03,0,0,0-.76,2.25v5.08h-3.12v-10.76h2.98v1.42A3.467,3.467,0,0,1,379.669,673.152Z"/><path class="b" d="M391.068,683.462a7.554,7.554,0,0,1-2.49-1.17l1.1-2.44a7.424,7.424,0,0,0,2.139,1.06,8.032,8.032,0,0,0,2.48.4,3.952,3.952,0,0,0,2.04-.41,1.237,1.237,0,0,0,.66-1.09,1.046,1.046,0,0,0-.39-.831,2.954,2.954,0,0,0-1-.529q-.611-.2-1.65-.44a22.921,22.921,0,0,1-2.62-.76,4.256,4.256,0,0,1-1.75-1.22,3.3,3.3,0,0,1-.73-2.24,3.891,3.891,0,0,1,.661-2.21,4.422,4.422,0,0,1,1.99-1.57,8.112,8.112,0,0,1,3.25-.58,10.781,10.781,0,0,1,2.619.32,7.7,7.7,0,0,1,2.24.92l-1,2.46a7.8,7.8,0,0,0-3.88-1.1,3.633,3.633,0,0,0-2.009.44,1.343,1.343,0,0,0-.651,1.16,1.134,1.134,0,0,0,.75,1.07,11.774,11.774,0,0,0,2.29.69,22.732,22.732,0,0,1,2.62.76,4.345,4.345,0,0,1,1.75,1.2,3.216,3.216,0,0,1,.731,2.22,3.821,3.821,0,0,1-.671,2.19,4.5,4.5,0,0,1-2.01,1.57,8.183,8.183,0,0,1-3.26.58A11.46,11.46,0,0,1,391.068,683.462Z"/><path class="b" d="M413.058,672.912v10.76H410.1v-1.28a4.15,4.15,0,0,1-1.48,1.07,4.665,4.665,0,0,1-1.86.37,4.581,4.581,0,0,1-3.36-1.22,4.861,4.861,0,0,1-1.24-3.62v-6.08h3.12v5.62q0,2.6,2.18,2.6a2.342,2.342,0,0,0,1.8-.73,3.084,3.084,0,0,0,.68-2.171v-5.319Z"/><path class="b" d="M432.948,673.941a4.855,4.855,0,0,1,1.191,3.571v6.16h-3.12v-5.68a2.912,2.912,0,0,0-.531-1.91,1.861,1.861,0,0,0-1.509-.63,2.224,2.224,0,0,0-1.741.71,3.064,3.064,0,0,0-.639,2.109v5.4h-3.12v-5.68q0-2.539-2.041-2.54a2.2,2.2,0,0,0-1.719.71,3.054,3.054,0,0,0-.641,2.109v5.4h-3.12v-10.76h2.98v1.24a3.942,3.942,0,0,1,1.47-1.04,4.949,4.949,0,0,1,1.91-.36,4.624,4.624,0,0,1,2.06.45,3.643,3.643,0,0,1,1.48,1.31,4.412,4.412,0,0,1,1.67-1.3,5.263,5.263,0,0,1,2.21-.46A4.337,4.337,0,0,1,432.948,673.941Z"/><path class="b" d="M453.928,673.941a4.855,4.855,0,0,1,1.19,3.571v6.16H452v-5.68a2.918,2.918,0,0,0-.53-1.91,1.865,1.865,0,0,0-1.51-.63,2.224,2.224,0,0,0-1.74.71,3.059,3.059,0,0,0-.64,2.109v5.4h-3.12v-5.68q0-2.539-2.04-2.54a2.2,2.2,0,0,0-1.72.71,3.059,3.059,0,0,0-.64,2.109v5.4h-3.121v-10.76h2.981v1.24a3.934,3.934,0,0,1,1.47-1.04,4.946,4.946,0,0,1,1.91-.36,4.62,4.62,0,0,1,2.059.45,3.639,3.639,0,0,1,1.481,1.31,4.4,4.4,0,0,1,1.67-1.3,5.263,5.263,0,0,1,2.21-.46A4.339,4.339,0,0,1,453.928,673.941Z"/><path class="b" d="M466.1,673.941a4.558,4.558,0,0,1,1.339,3.591v6.14h-2.919v-1.34a3.478,3.478,0,0,1-3.281,1.5,5.1,5.1,0,0,1-2.149-.42,3.2,3.2,0,0,1-1.39-1.16,3.018,3.018,0,0,1-.48-1.68,2.8,2.8,0,0,1,1.13-2.36,5.761,5.761,0,0,1,3.49-.86h2.479a1.988,1.988,0,0,0-.619-1.57,2.731,2.731,0,0,0-1.86-.551,5.443,5.443,0,0,0-1.691.271,4.523,4.523,0,0,0-1.41.729l-1.119-2.179a6.743,6.743,0,0,1,2.11-.96,9.437,9.437,0,0,1,2.53-.34A5.6,5.6,0,0,1,466.1,673.941Zm-2.661,7.421a2.016,2.016,0,0,0,.88-1.091v-1.1h-2.139q-1.922,0-1.92,1.26a1.121,1.121,0,0,0,.47.95,2.118,2.118,0,0,0,1.29.349A2.72,2.72,0,0,0,463.437,681.362Z"/><path class="b" d="M474.748,673.152a5.609,5.609,0,0,1,2.189-.4v2.88c-.346-.027-.58-.04-.7-.04a2.858,2.858,0,0,0-2.1.75,3.03,3.03,0,0,0-.76,2.25v5.08h-3.12v-10.76h2.979v1.42A3.47,3.47,0,0,1,474.748,673.152Z"/><path class="b" d="M489.857,672.912,485,684.332a5.616,5.616,0,0,1-1.829,2.62,4.493,4.493,0,0,1-2.631.76,5.469,5.469,0,0,1-1.659-.26,3.676,3.676,0,0,1-1.341-.721l1.141-2.219a2.678,2.678,0,0,0,.83.5,2.577,2.577,0,0,0,.929.179,1.65,1.65,0,0,0,1.041-.309,2.637,2.637,0,0,0,.719-1.03l.04-.1-4.66-10.84H480.8l3.019,7.3,3.04-7.3Z"/></g></g><path class="c" d="M463.149,689.334a41.987,41.987,0,0,1-13.129,7.718h0a40.7,40.7,0,0,1-24.3-.576,51.979,51.979,0,0,1-7.717-3.34,2.467,2.467,0,0,1-1.452-3.171c.021-.057.045-.114.07-.169a2.537,2.537,0,0,1,3.542-.573c.05.035.1.073.144.112.115,0,.115,0,.23.115a35.6,35.6,0,0,0,15.432,5.873c9.444,1.267,20.155-2.534,26.835-6.565a.505.505,0,0,1,.576.115A.459.459,0,0,1,463.149,689.334Z"/></g></svg>