<svg xmlns="http://www.w3.org/2000/svg" viewBox="0 0 1154.26 169.02"><defs><style>.cls-1{fill:#ffd438;}.cls-2{isolation:isolate;}.cls-3{fill:#2a3251;}</style></defs><g id="Layer_2" data-name="Layer 2"><g id="Layer_1-2" data-name="Layer 1"><g id="Top-rated"><path id="Path_4738" data-name="Path 4738" class="cls-1" d="M883.51,131a171.72,171.72,0,0,1-53.73,31.58h0a166.49,166.49,0,0,1-99.45-2.35,213.24,213.24,0,0,1-31.58-13.67,10.1,10.1,0,0,1-6-13,7.13,7.13,0,0,1,.29-.69,10.38,10.38,0,0,1,14.49-2.35c.21.15.4.3.59.46.48,0,.48,0,1,.47a145.65,145.65,0,0,0,63.15,24c38.66,5.18,82.49-10.37,109.83-26.87a2.08,2.08,0,0,1,2.36.47A1.88,1.88,0,0,1,883.51,131Z"/><g id="Top-rated_Near_by" data-name="Top-rated Near by" class="cls-2"><g class="cls-2"><path class="cls-3" d="M27.5,21.36H0V5.16H74.9v16.2H47.39V91.1H27.5Z"/><path class="cls-3" d="M90.18,87.73a32.44,32.44,0,0,1-13-12.1,33.31,33.31,0,0,1-4.66-17.56,33.32,33.32,0,0,1,4.66-17.55,32.44,32.44,0,0,1,13-12.1,39.71,39.71,0,0,1,18.73-4.36,39.31,39.31,0,0,1,18.66,4.36,32.54,32.54,0,0,1,12.89,12.1,33.33,33.33,0,0,1,4.67,17.55,33.32,33.32,0,0,1-4.67,17.56,32.54,32.54,0,0,1-12.89,12.1,39.31,39.31,0,0,1-18.66,4.36A39.71,39.71,0,0,1,90.18,87.73ZM121,71.39q4.73-5,4.73-13.32T121,44.75a16,16,0,0,0-12.09-5,16.18,16.18,0,0,0-12.16,5Q92,49.73,92,58.07t4.78,13.32a16.15,16.15,0,0,0,12.16,5A15.93,15.93,0,0,0,121,71.39Z"/><path class="cls-3" d="M213.7,28.3a30.36,30.36,0,0,1,11.85,11.91,36,36,0,0,1,4.3,17.86,36,36,0,0,1-4.3,17.87A30.43,30.43,0,0,1,213.7,87.85a33.7,33.7,0,0,1-16.76,4.24q-12.65,0-19.89-8v30.82H157.9V25.05h18.29v7.61q7.13-8.59,20.75-8.6A33.7,33.7,0,0,1,213.7,28.3Zm-8,43.09q4.72-5,4.73-13.32t-4.73-13.32a17.2,17.2,0,0,0-24.19,0q-4.72,5-4.72,13.32t4.72,13.32a17.18,17.18,0,0,0,24.19,0Z"/><path class="cls-3" d="M241.39,48.86h34.74V64.21H241.39Z"/><path class="cls-3" d="M318.8,26.52a34.33,34.33,0,0,1,13.45-2.46V41.75c-2.14-.17-3.57-.25-4.31-.25q-8.22,0-12.88,4.6t-4.67,13.82V91.1H291.23v-66h18.3v8.71A21.31,21.31,0,0,1,318.8,26.52Z"/><path class="cls-3" d="M393.51,31.37q8.24,7.31,8.23,22V91.1H383.81V82.88q-5.4,9.21-20.13,9.21a31.21,31.21,0,0,1-13.2-2.58A19.61,19.61,0,0,1,342,82.39,18.51,18.51,0,0,1,339,72.07q0-9.21,6.93-14.49t21.43-5.28h15.22q0-6.25-3.8-9.63t-11.42-3.38A33.13,33.13,0,0,0,357,41a27.35,27.35,0,0,0-8.66,4.48l-6.88-13.38a41.59,41.59,0,0,1,13-5.9,58.06,58.06,0,0,1,15.53-2.09Q385.29,24.06,393.51,31.37ZM377.18,76.92a12.37,12.37,0,0,0,5.4-6.69V63.48H369.45q-11.79,0-11.79,7.73a6.89,6.89,0,0,0,2.89,5.84q2.88,2.15,7.91,2.14A16.63,16.63,0,0,0,377.18,76.92Z"/><path class="cls-3" d="M461.65,87.91A19.57,19.57,0,0,1,454.72,91a35.42,35.42,0,0,1-8.66,1q-11.79,0-18.23-6t-6.45-17.68V41.25H411.19V26.52h10.19V10.44h19.16V26.52H457V41.25H440.54V68.14a9,9,0,0,0,2.14,6.45,8,8,0,0,0,6.08,2.27,12.31,12.31,0,0,0,7.74-2.46Z"/><path class="cls-3" d="M534.71,63.48h-50a15.56,15.56,0,0,0,6.38,9.7,21.19,21.19,0,0,0,12.53,3.56,25.2,25.2,0,0,0,9.14-1.54,22.1,22.1,0,0,0,7.43-4.85L530.41,81.4q-9.33,10.68-27.25,10.69a43.2,43.2,0,0,1-19.77-4.36,32,32,0,0,1-13.26-12.1,33.32,33.32,0,0,1-4.67-17.56,33.76,33.76,0,0,1,4.61-17.49,32.28,32.28,0,0,1,12.64-12.16,39.14,39.14,0,0,1,35.55-.18,30.44,30.44,0,0,1,12.34,12,35.77,35.77,0,0,1,4.48,18.11C535.08,58.56,535,60.28,534.71,63.48ZM489.89,42.23a15.76,15.76,0,0,0-5.4,10.07H517a15.89,15.89,0,0,0-5.4-10,16.15,16.15,0,0,0-10.81-3.75A16.53,16.53,0,0,0,489.89,42.23Z"/><path class="cls-3" d="M615.13,0V91.1H596.84V83.49q-7.12,8.6-20.63,8.6a34.21,34.21,0,0,1-16.88-4.18A29.79,29.79,0,0,1,547.48,76a36.26,36.26,0,0,1-4.3-17.93,36.22,36.22,0,0,1,4.3-17.92,29.79,29.79,0,0,1,11.85-11.91,34.32,34.32,0,0,1,16.88-4.18q12.64,0,19.77,8V0ZM591.56,71.39q4.79-5,4.79-13.32t-4.79-13.32a17.2,17.2,0,0,0-24.19,0q-4.8,5-4.79,13.32t4.79,13.32a17.18,17.18,0,0,0,24.19,0Z"/><path class="cls-3" d="M747.73,5.16V91.1H731.4L688.55,38.92V91.1H668.91V5.16h16.45l42.73,52.18V5.16Z"/><path class="cls-3" d="M831.1,63.48h-50a15.56,15.56,0,0,0,6.38,9.7A21.19,21.19,0,0,0,800,76.74a25.2,25.2,0,0,0,9.14-1.54,22.1,22.1,0,0,0,7.43-4.85L826.8,81.4q-9.33,10.68-27.25,10.69a43.2,43.2,0,0,1-19.77-4.36,32,32,0,0,1-13.26-12.1,33.32,33.32,0,0,1-4.67-17.56,33.76,33.76,0,0,1,4.61-17.49A32.28,32.28,0,0,1,779.1,28.42a39.14,39.14,0,0,1,35.55-.18,30.44,30.44,0,0,1,12.34,12,35.77,35.77,0,0,1,4.48,18.11C831.47,58.56,831.34,60.28,831.1,63.48ZM786.28,42.23a15.76,15.76,0,0,0-5.4,10.07h32.54a15.89,15.89,0,0,0-5.4-10,16.15,16.15,0,0,0-10.81-3.75A16.53,16.53,0,0,0,786.28,42.23Z"/><path class="cls-3" d="M892.62,31.37q8.21,7.31,8.22,22V91.1H882.92V82.88q-5.42,9.21-20.14,9.21a31.21,31.21,0,0,1-13.2-2.58A19.7,19.7,0,0,1,841,82.39a18.58,18.58,0,0,1-2.94-10.32q0-9.21,6.94-14.49t21.42-5.28h15.22q0-6.25-3.8-9.63t-11.42-3.38A33.24,33.24,0,0,0,856.08,41a27.4,27.4,0,0,0-8.65,4.48l-6.88-13.38a41.59,41.59,0,0,1,13-5.9A58.06,58.06,0,0,1,869,24.06Q884.39,24.06,892.62,31.37ZM876.28,76.92a12.37,12.37,0,0,0,5.4-6.69V63.48H868.55q-11.79,0-11.79,7.73a6.89,6.89,0,0,0,2.89,5.84q2.88,2.15,7.92,2.14A16.59,16.59,0,0,0,876.28,76.92Z"/><path class="cls-3" d="M945.72,26.52a34.28,34.28,0,0,1,13.44-2.46V41.75c-2.13-.17-3.56-.25-4.3-.25q-8.22,0-12.89,4.6T937.3,59.92V91.1H918.15v-66h18.29v8.71A21.34,21.34,0,0,1,945.72,26.52Z"/><path class="cls-3" d="M1061.62,28.3a30.49,30.49,0,0,1,11.85,11.91,36,36,0,0,1,4.3,17.86,36,36,0,0,1-4.3,17.87,30.56,30.56,0,0,1-11.85,11.91,33.72,33.72,0,0,1-16.76,4.24q-13.63,0-20.75-8.6V91.1h-18.29V0H1025V32.05q7.24-8,19.89-8A33.72,33.72,0,0,1,1061.62,28.3Zm-8,43.09q4.72-5,4.73-13.32t-4.73-13.32a17.2,17.2,0,0,0-24.19,0q-4.73,5-4.73,13.32t4.73,13.32a17.18,17.18,0,0,0,24.19,0Z"/><path class="cls-3" d="M1154.26,25.05l-29.84,70.11q-4.55,11.41-11.23,16.08A27.54,27.54,0,0,1,1097,115.9a33.61,33.61,0,0,1-10.19-1.59,22.35,22.35,0,0,1-8.22-4.42l7-13.63a16.53,16.53,0,0,0,5.1,3.07,15.82,15.82,0,0,0,5.71,1.11,10.11,10.11,0,0,0,6.38-1.91,16.1,16.1,0,0,0,4.42-6.32l.25-.62-28.61-66.54h19.77l18.54,44.81,18.66-44.81Z"/></g></g></g></g></g></svg>