<svg xmlns="http://www.w3.org/2000/svg" xmlns:xlink="http://www.w3.org/1999/xlink" width="500" height="114" viewBox="0 0 500 114"><defs><style>.a{fill:#fff;}.b{clip-path:url(#c);}.c{fill:#26d07c;}.d{fill:#fbd436;}.e{fill:#2a3251;}.f{filter:url(#a);}</style><filter id="a" x="-9" y="-9" width="524" height="138" filterUnits="userSpaceOnUse"><feOffset dx="3" dy="3" input="SourceAlpha"/><feGaussianBlur stdDeviation="4" result="b"/><feFlood flood-opacity="0.059"/><feComposite operator="in" in2="b"/><feComposite in="SourceGraphic"/></filter><clipPath id="c"><g class="f" transform="matrix(1, 0, 0, 1, 0, 0)"><path class="a" d="M10,0H490a10,10,0,0,1,10,10V114a0,0,0,0,1,0,0H0a0,0,0,0,1,0,0V10A10,10,0,0,1,10,0Z" transform="translate(432 162)"/></g></clipPath></defs><g class="b" transform="translate(-432 -162)"><g transform="translate(432 162)"><path class="c" d="M452.117-495.332v98.73c58.24,7.379,129.006,10.352,204.99,7.5,125.339-4.709,234.261-24.107,295.01-49.44v-56.785Z" transform="translate(-452.117 495.332)"/><path class="d" d="M452.117-495.332v88.492c58.711,8.132,130.456,12,207.7,10.088,122.43-3.036,229.657-19.883,292.3-43.012v-55.568Z" transform="translate(-452.117 495.332)"/><path class="e" d="M452.117-495.332v58.8c58.2,17.58,146.417,28.792,245.181,28.792,104.4,0,196.989-12.532,254.819-31.866v-55.727Z" transform="translate(-452.117 495.332)"/></g></g></svg>