<svg xmlns="http://www.w3.org/2000/svg" width="24.939" height="24.939" viewBox="0 0 24.939 24.939"><defs><style>.a{fill:#d9dade;}</style></defs><path class="a" d="M310.663,44.558a12.47,12.47,0,1,0,12.469,12.469A12.469,12.469,0,0,0,310.663,44.558Zm6.012,9.155-.07.05,0,.087c.006.138.009.275.009.407a8.953,8.953,0,0,1-13.2,7.881,6.555,6.555,0,0,0,4.179-1.405l.356-.279-.451-.008a3.044,3.044,0,0,1-2.752-1.866,3.344,3.344,0,0,0,1.245-.1l.657-.179-.669-.133a3.051,3.051,0,0,1-2.432-2.76,3.373,3.373,0,0,0,1.278.3l.561.017-.467-.312a3.045,3.045,0,0,1-1.051-3.857,9.286,9.286,0,0,0,6.565,3.221l.214.011-.049-.208a3.09,3.09,0,0,1-.078-.693,3.044,3.044,0,0,1,5.265-2.082l.061.065.087-.017a6.53,6.53,0,0,0,1.687-.579,3.055,3.055,0,0,1-1.176,1.278l-.645.387.747-.089a6.686,6.686,0,0,0,1.363-.312A6.3,6.3,0,0,1,316.675,53.713Z" transform="translate(-298.194 -44.558)"/></svg>