<svg xmlns="http://www.w3.org/2000/svg" width="17.198" height="18" viewBox="0 0 17.198 18"><defs><style>.a{fill:#26d07c;}.b{fill:none;stroke:#fff;stroke-linecap:round;stroke-linejoin:round;stroke-width:2px;}</style></defs><g transform="translate(-285.595 -188.687)"><g transform="translate(285.595 188.687)"><path class="a" d="M294.194,188.687c.9,0,1.546,1.493,2.355,1.755.838.272,2.239-.544,2.937-.037s.358,2.1.871,2.805,2.127.856,2.4,1.695c.262.809-.946,1.885-.946,2.782s1.209,1.973.946,2.782c-.272.838-1.892,1-2.4,1.694s-.167,2.293-.872,2.805-2.1-.309-2.936-.037c-.809.263-1.458,1.756-2.355,1.756s-1.545-1.493-2.354-1.756c-.838-.272-2.24.545-2.937.037s-.359-2.1-.871-2.805-2.128-.856-2.4-1.694c-.262-.809.946-1.886.946-2.782s-1.209-1.973-.946-2.782c.273-.838,1.892-1,2.4-1.694s.166-2.292.871-2.805,2.1.309,2.937.037C292.649,190.18,293.3,188.687,294.194,188.687Z" transform="translate(-285.595 -188.687)"/></g><path class="b" d="M293.016,200.879l2.072,2.154,4.851-4.846" transform="translate(-2.283 -2.923)"/></g></svg>