<svg xmlns="http://www.w3.org/2000/svg" width="87.5" height="13.638" viewBox="0 0 87.5 13.638"><defs><style>.a{fill:#161e6f;}</style></defs><path class="a" d="M30.009,64l-3.051,6.22c-.66,1.362-1.307,2.678-1.817,4.039H25.1c-.082-1.362-.182-2.659-.323-4.039l-.319-3.26L24.171,64H16.994v.451h.246c3.324.182,4.171,2.117,4.39,3.11l-.4-3.11.419,3.2-.018-.087.068.578v-.073l1.166,9.007h3.37L33.251,64Zm7.782-.046L35.213,77.042H32.308l2.577-13.087Zm.2,10.059a6.625,6.625,0,0,0,3.206.838c1.125,0,2.163-.51,2.163-1.535,0-.738-.583-1.225-1.835-1.844-1.453-.751-2.823-1.762-2.823-3.479,0-2.641,2.4-4.249,5.364-4.249a6.5,6.5,0,0,1,3.206.665l-1.3,2.322a3.148,3.148,0,0,0-2.154-.683c-1.352.018-2.058.756-2.058,1.475,0,.751.824,1.225,1.981,1.84,1.648.838,2.7,1.9,2.7,3.452,0,2.914-2.509,4.4-5.533,4.4a7.355,7.355,0,0,1-4.085-1.225Zm12.668-.369-1.617,3.4H45.956l6.621-13.087h3.734l1.6,13.087H54.854l-.278-3.4Zm3.8-2.136-.264-2.814c-.064-.719-.146-1.762-.2-2.564h-.036c-.346.8-.729,1.808-1.088,2.564l-1.352,2.814Zm7.892,5.847a2.972,2.972,0,0,1-2.036-.642,2.372,2.372,0,0,1-.719-1.853,4.6,4.6,0,0,1,.319-1.735,4.079,4.079,0,0,1,.874-1.343,3.86,3.86,0,0,1,1.3-.865,4.2,4.2,0,0,1,1.589-.305,5.361,5.361,0,0,1,1.243.137,3.783,3.783,0,0,1,1.034.4l-.378,1.571h-.191a2.882,2.882,0,0,0-.829-.651,2.133,2.133,0,0,0-.961-.209,2.009,2.009,0,0,0-1.607.779,3.071,3.071,0,0,0-.628,1.99,1.568,1.568,0,0,0,.346,1.125,1.368,1.368,0,0,0,1.015.346,2.624,2.624,0,0,0,1.129-.246,4.95,4.95,0,0,0,1-.615h.173l-.383,1.553c-.128.055-.282.118-.451.191a4.787,4.787,0,0,1-.5.178,4.189,4.189,0,0,1-.592.137,2.646,2.646,0,0,1-.742.064Zm8.9-3.912c0,.073-.009.164-.018.273a2.3,2.3,0,0,1-.055.332l-.733,3.188H68.852l.56-2.432c.036-.182.073-.346.1-.474a1.657,1.657,0,0,0,.036-.346.516.516,0,0,0-.146-.414.838.838,0,0,0-.524-.128,1.4,1.4,0,0,0-.437.082,3.422,3.422,0,0,0-.546.246l-.8,3.475h-1.58l1.562-6.79h1.58L68.1,72.889a6.555,6.555,0,0,1,.883-.5,2.194,2.194,0,0,1,.879-.178,1.478,1.478,0,0,1,1.025.323,1.111,1.111,0,0,1,.364.911Zm3.169,3.921a3,3,0,0,1-1.935-.551A1.885,1.885,0,0,1,71.8,75.28a3.178,3.178,0,0,1,.228-1.229,2.793,2.793,0,0,1,.642-.979,2.858,2.858,0,0,1,1.011-.656,3.537,3.537,0,0,1,1.325-.232,2.63,2.63,0,0,1,1.653.442,1.589,1.589,0,0,1,.551,1.307,2.486,2.486,0,0,1-.064.583,5.726,5.726,0,0,1-.155.565H73.346v.109a.959.959,0,0,0,.364.8,1.727,1.727,0,0,0,1.1.291,2.7,2.7,0,0,0,.979-.173,4.382,4.382,0,0,0,.8-.392h.173l-.291,1.266a4.651,4.651,0,0,1-.965.3,6.018,6.018,0,0,1-1.088.091Zm1.2-3.206a.909.909,0,0,0,.018-.146l.009-.132a.648.648,0,0,0-.219-.528.879.879,0,0,0-.615-.182,1.282,1.282,0,0,0-.82.264,1.569,1.569,0,0,0-.5.733h2.122Zm4.28,3.206a3.552,3.552,0,0,1-.947-.127,1.942,1.942,0,0,1-.76-.387,1.848,1.848,0,0,1-.5-.647,2.146,2.146,0,0,1-.182-.9,2.992,2.992,0,0,1,.961-2.218,3.269,3.269,0,0,1,1.093-.656,3.938,3.938,0,0,1,1.389-.241,4.114,4.114,0,0,1,.888.1,3.24,3.24,0,0,1,.829.287l-.337,1.343H82.1a1.712,1.712,0,0,0-.578-.46,1.741,1.741,0,0,0-.729-.155,1.477,1.477,0,0,0-1.189.528,1.951,1.951,0,0,0-.455,1.316,1.075,1.075,0,0,0,.282.815,1.183,1.183,0,0,0,.861.273,1.907,1.907,0,0,0,.829-.182,3.306,3.306,0,0,0,.633-.41h.228L81.643,77a5.3,5.3,0,0,1-.824.287,4.252,4.252,0,0,1-.924.082Zm7.764-.137H86.006l-.974-2.158-.688.615-.364,1.553H82.4l1.562-6.79h1.58L84.608,74.5,86.8,72.333H88.61l-2.268,2.136Zm6.166-3.106a3.544,3.544,0,0,1-.228,1.293,3.08,3.08,0,0,1-.656,1.034,2.936,2.936,0,0,1-1.006.688,3.415,3.415,0,0,1-1.343.246,2.436,2.436,0,0,1-1.68-.524,1.845,1.845,0,0,1-.583-1.453,3.56,3.56,0,0,1,.219-1.248,3.1,3.1,0,0,1,.647-1.034,3.019,3.019,0,0,1,1.015-.7,3.475,3.475,0,0,1,1.352-.25,2.441,2.441,0,0,1,1.68.515,1.862,1.862,0,0,1,.583,1.434ZM91.78,75.73a2.124,2.124,0,0,0,.3-.669,3.146,3.146,0,0,0,.1-.883,1.04,1.04,0,0,0-.2-.688.748.748,0,0,0-.628-.246,1.025,1.025,0,0,0-.578.164,1.639,1.639,0,0,0-.446.455,2.287,2.287,0,0,0-.282.678,3.2,3.2,0,0,0-.1.838.943.943,0,0,0,.228.715.849.849,0,0,0,.61.219,1.064,1.064,0,0,0,.542-.155,1.358,1.358,0,0,0,.455-.428Zm8.32-3.4-1.134,4.9h-1.58l.123-.542c-.15.1-.305.2-.46.282a2.278,2.278,0,0,1-.428.2,2.419,2.419,0,0,1-.465.146,2.154,2.154,0,0,1-.414.036,1.557,1.557,0,0,1-1.02-.305,1.135,1.135,0,0,1-.373-.92c0-.109.009-.209.018-.31a2.223,2.223,0,0,1,.055-.31l.738-3.188h1.589l-.565,2.436c-.046.191-.073.346-.1.483a2.748,2.748,0,0,0-.036.342.566.566,0,0,0,.137.419.826.826,0,0,0,.528.128,1.5,1.5,0,0,0,.446-.082,4.288,4.288,0,0,0,.542-.237l.8-3.479h1.6Zm2,5a1.942,1.942,0,0,1-1.166-.269.939.939,0,0,1-.346-.8c0-.091.009-.182.018-.273s.036-.191.055-.31l.537-2.322h-.642l.232-1.034h.647l.328-1.4h1.58l-.319,1.4h1.471l-.237,1.034h-1.471l-.41,1.771c-.027.118-.055.246-.082.369a1.483,1.483,0,0,0-.036.319.4.4,0,0,0,.146.364.768.768,0,0,0,.455.1,1.661,1.661,0,0,0,.319-.046,1.469,1.469,0,0,0,.319-.1h.128l-.246,1.052a3.651,3.651,0,0,1-.565.1c-.2.018-.446.046-.715.046Z" transform="translate(-16.994 -63.745)"/></svg>